<?xml version="1.0" encoding="UTF-8" standalone="no"?>
<!-- Created with Inkscape (http://www.inkscape.org/) -->

<svg
   xmlns:dc="http://purl.org/dc/elements/1.1/"
   xmlns:cc="http://creativecommons.org/ns#"
   xmlns:rdf="http://www.w3.org/1999/02/22-rdf-syntax-ns#"
   xmlns:svg="http://www.w3.org/2000/svg"
   xmlns="http://www.w3.org/2000/svg"
   xmlns:sodipodi="http://sodipodi.sourceforge.net/DTD/sodipodi-0.dtd"
   xmlns:inkscape="http://www.inkscape.org/namespaces/inkscape"
   version="1.1"
   id="svg2"
   xml:space="preserve"
   width="1000"
   height="666.66669"
   viewBox="0 0 1000 666.66669"
   sodipodi:docname="hero.svg"
   inkscape:version="0.92.4 (5da689c313, 2019-01-14)"><metadata
     id="metadata8"><rdf:RDF><cc:Work
         rdf:about=""><dc:format>image/svg+xml</dc:format><dc:type
           rdf:resource="http://purl.org/dc/dcmitype/StillImage" /><dc:title></dc:title></cc:Work></rdf:RDF></metadata><defs
     id="defs6"><clipPath
       clipPathUnits="userSpaceOnUse"
       id="clipPath20"><path
         d="M 0,500 H 750 V 0 H 0 Z"
         id="path18"
         inkscape:connector-curvature="0" /></clipPath><clipPath
       clipPathUnits="userSpaceOnUse"
       id="clipPath28"><path
         d="M 87.1565,79.3381 H 662.606 V 60.2263 H 87.1565 Z"
         id="path26"
         inkscape:connector-curvature="0" /></clipPath><clipPath
       clipPathUnits="userSpaceOnUse"
       id="clipPath32"><path
         d="M 87.2766,79.3381 H 662.486 V 60.426 H 87.2766 Z"
         id="path30"
         inkscape:connector-curvature="0" /></clipPath><clipPath
       clipPathUnits="userSpaceOnUse"
       id="clipPath36"><path
         d="M 87.3966,79.3381 H 662.366 V 60.6256 H 87.3966 Z"
         id="path34"
         inkscape:connector-curvature="0" /></clipPath><clipPath
       clipPathUnits="userSpaceOnUse"
       id="clipPath40"><path
         d="M 87.5167,79.3381 H 662.246 V 60.8251 H 87.5167 Z"
         id="path38"
         inkscape:connector-curvature="0" /></clipPath><clipPath
       clipPathUnits="userSpaceOnUse"
       id="clipPath44"><path
         d="M 87.6368,79.3381 H 662.126 V 61.0248 H 87.6368 Z"
         id="path42"
         inkscape:connector-curvature="0" /></clipPath><clipPath
       clipPathUnits="userSpaceOnUse"
       id="clipPath48"><path
         d="M 87.7569,79.3381 H 662.006 V 61.2244 H 87.7569 Z"
         id="path46"
         inkscape:connector-curvature="0" /></clipPath><clipPath
       clipPathUnits="userSpaceOnUse"
       id="clipPath52"><path
         d="M 87.8769,79.3381 H 661.886 V 61.4241 H 87.8769 Z"
         id="path50"
         inkscape:connector-curvature="0" /></clipPath><clipPath
       clipPathUnits="userSpaceOnUse"
       id="clipPath56"><path
         d="M 87.997,79.3381 H 661.766 V 61.6237 H 87.997 Z"
         id="path54"
         inkscape:connector-curvature="0" /></clipPath><clipPath
       clipPathUnits="userSpaceOnUse"
       id="clipPath60"><path
         d="M 88.1171,79.3381 H 661.646 V 61.8232 H 88.1171 Z"
         id="path58"
         inkscape:connector-curvature="0" /></clipPath><clipPath
       clipPathUnits="userSpaceOnUse"
       id="clipPath64"><path
         d="M 88.2372,79.3381 H 661.526 V 62.0229 H 88.2372 Z"
         id="path62"
         inkscape:connector-curvature="0" /></clipPath><clipPath
       clipPathUnits="userSpaceOnUse"
       id="clipPath68"><path
         d="M 88.3573,79.3381 H 661.406 V 62.2225 H 88.3573 Z"
         id="path66"
         inkscape:connector-curvature="0" /></clipPath><clipPath
       clipPathUnits="userSpaceOnUse"
       id="clipPath72"><path
         d="M 88.4773,79.3381 H 661.286 V 62.4221 H 88.4773 Z"
         id="path70"
         inkscape:connector-curvature="0" /></clipPath><clipPath
       clipPathUnits="userSpaceOnUse"
       id="clipPath76"><path
         d="M 88.5974,79.3381 H 661.166 V 62.6218 H 88.5974 Z"
         id="path74"
         inkscape:connector-curvature="0" /></clipPath><clipPath
       clipPathUnits="userSpaceOnUse"
       id="clipPath80"><path
         d="M 88.7175,79.3381 H 661.046 V 62.8213 H 88.7175 Z"
         id="path78"
         inkscape:connector-curvature="0" /></clipPath><clipPath
       clipPathUnits="userSpaceOnUse"
       id="clipPath84"><path
         d="M 88.8376,79.3381 H 660.926 V 63.021 H 88.8376 Z"
         id="path82"
         inkscape:connector-curvature="0" /></clipPath><clipPath
       clipPathUnits="userSpaceOnUse"
       id="clipPath88"><path
         d="M 88.9577,79.3381 H 660.806 V 63.2206 H 88.9577 Z"
         id="path86"
         inkscape:connector-curvature="0" /></clipPath><clipPath
       clipPathUnits="userSpaceOnUse"
       id="clipPath92"><path
         d="M 89.0777,79.3381 H 660.685 V 63.4203 H 89.0777 Z"
         id="path90"
         inkscape:connector-curvature="0" /></clipPath><clipPath
       clipPathUnits="userSpaceOnUse"
       id="clipPath96"><path
         d="M 89.1978,79.3381 H 660.565 V 63.6199 H 89.1978 Z"
         id="path94"
         inkscape:connector-curvature="0" /></clipPath><clipPath
       clipPathUnits="userSpaceOnUse"
       id="clipPath100"><path
         d="M 89.3179,79.3381 H 660.445 V 63.8194 H 89.3179 Z"
         id="path98"
         inkscape:connector-curvature="0" /></clipPath><clipPath
       clipPathUnits="userSpaceOnUse"
       id="clipPath104"><path
         d="M 89.438,79.3381 H 660.326 V 64.0191 H 89.438 Z"
         id="path102"
         inkscape:connector-curvature="0" /></clipPath><clipPath
       clipPathUnits="userSpaceOnUse"
       id="clipPath108"><path
         d="M 89.558,79.3381 H 660.205 V 64.2187 H 89.558 Z"
         id="path106"
         inkscape:connector-curvature="0" /></clipPath><clipPath
       clipPathUnits="userSpaceOnUse"
       id="clipPath112"><path
         d="M 89.6781,79.3381 H 660.085 V 64.4184 H 89.6781 Z"
         id="path110"
         inkscape:connector-curvature="0" /></clipPath><clipPath
       clipPathUnits="userSpaceOnUse"
       id="clipPath116"><path
         d="M 89.7982,79.3381 H 659.965 V 64.618 H 89.7982 Z"
         id="path114"
         inkscape:connector-curvature="0" /></clipPath><clipPath
       clipPathUnits="userSpaceOnUse"
       id="clipPath120"><path
         d="M 89.9183,79.3381 H 659.845 V 64.8175 H 89.9183 Z"
         id="path118"
         inkscape:connector-curvature="0" /></clipPath><clipPath
       clipPathUnits="userSpaceOnUse"
       id="clipPath124"><path
         d="M 90.0384,79.3381 H 659.725 V 65.0172 H 90.0384 Z"
         id="path122"
         inkscape:connector-curvature="0" /></clipPath><clipPath
       clipPathUnits="userSpaceOnUse"
       id="clipPath128"><path
         d="M 90.1584,79.3381 H 659.605 V 65.2168 H 90.1584 Z"
         id="path126"
         inkscape:connector-curvature="0" /></clipPath><clipPath
       clipPathUnits="userSpaceOnUse"
       id="clipPath132"><path
         d="M 90.2785,79.3381 H 659.485 V 65.4164 H 90.2785 Z"
         id="path130"
         inkscape:connector-curvature="0" /></clipPath><clipPath
       clipPathUnits="userSpaceOnUse"
       id="clipPath136"><path
         d="M 90.3986,79.3381 H 659.365 V 65.6161 H 90.3986 Z"
         id="path134"
         inkscape:connector-curvature="0" /></clipPath><clipPath
       clipPathUnits="userSpaceOnUse"
       id="clipPath140"><path
         d="M 90.5187,79.3381 H 659.245 V 65.8156 H 90.5187 Z"
         id="path138"
         inkscape:connector-curvature="0" /></clipPath><clipPath
       clipPathUnits="userSpaceOnUse"
       id="clipPath144"><path
         d="M 90.6388,79.3381 H 659.125 V 66.0153 H 90.6388 Z"
         id="path142"
         inkscape:connector-curvature="0" /></clipPath><clipPath
       clipPathUnits="userSpaceOnUse"
       id="clipPath148"><path
         d="M 90.7588,79.3381 H 659.005 V 66.2149 H 90.7588 Z"
         id="path146"
         inkscape:connector-curvature="0" /></clipPath><clipPath
       clipPathUnits="userSpaceOnUse"
       id="clipPath152"><path
         d="M 90.8789,79.3381 H 658.885 V 66.4146 H 90.8789 Z"
         id="path150"
         inkscape:connector-curvature="0" /></clipPath><clipPath
       clipPathUnits="userSpaceOnUse"
       id="clipPath156"><path
         d="M 90.999,79.3381 H 658.765 V 66.6142 H 90.999 Z"
         id="path154"
         inkscape:connector-curvature="0" /></clipPath><clipPath
       clipPathUnits="userSpaceOnUse"
       id="clipPath160"><path
         d="M 91.1191,79.3381 H 658.645 V 66.8137 H 91.1191 Z"
         id="path158"
         inkscape:connector-curvature="0" /></clipPath><clipPath
       clipPathUnits="userSpaceOnUse"
       id="clipPath164"><path
         d="M 91.2391,79.3381 H 658.525 V 67.0134 H 91.2391 Z"
         id="path162"
         inkscape:connector-curvature="0" /></clipPath><clipPath
       clipPathUnits="userSpaceOnUse"
       id="clipPath168"><path
         d="M 91.3592,79.3381 H 658.405 V 67.213 H 91.3592 Z"
         id="path166"
         inkscape:connector-curvature="0" /></clipPath><clipPath
       clipPathUnits="userSpaceOnUse"
       id="clipPath172"><path
         d="M 91.4793,79.3381 H 658.285 V 67.4126 H 91.4793 Z"
         id="path170"
         inkscape:connector-curvature="0" /></clipPath><clipPath
       clipPathUnits="userSpaceOnUse"
       id="clipPath176"><path
         d="M 91.5994,79.3381 H 658.165 V 67.6123 H 91.5994 Z"
         id="path174"
         inkscape:connector-curvature="0" /></clipPath><clipPath
       clipPathUnits="userSpaceOnUse"
       id="clipPath180"><path
         d="M 91.7195,79.3381 H 658.045 V 67.8118 H 91.7195 Z"
         id="path178"
         inkscape:connector-curvature="0" /></clipPath><clipPath
       clipPathUnits="userSpaceOnUse"
       id="clipPath184"><path
         d="M 91.8395,79.3381 H 657.925 V 68.0115 H 91.8395 Z"
         id="path182"
         inkscape:connector-curvature="0" /></clipPath><clipPath
       clipPathUnits="userSpaceOnUse"
       id="clipPath188"><path
         d="M 91.9596,79.3381 H 657.805 V 68.2111 H 91.9596 Z"
         id="path186"
         inkscape:connector-curvature="0" /></clipPath><clipPath
       clipPathUnits="userSpaceOnUse"
       id="clipPath192"><path
         d="M 92.0797,79.3381 H 657.685 V 68.4107 H 92.0797 Z"
         id="path190"
         inkscape:connector-curvature="0" /></clipPath><clipPath
       clipPathUnits="userSpaceOnUse"
       id="clipPath196"><path
         d="M 92.1998,79.3381 H 657.565 V 68.6104 H 92.1998 Z"
         id="path194"
         inkscape:connector-curvature="0" /></clipPath><clipPath
       clipPathUnits="userSpaceOnUse"
       id="clipPath200"><path
         d="M 92.3199,79.3381 H 657.445 V 68.8099 H 92.3199 Z"
         id="path198"
         inkscape:connector-curvature="0" /></clipPath><clipPath
       clipPathUnits="userSpaceOnUse"
       id="clipPath204"><path
         d="M 92.4399,79.3381 H 657.325 V 69.0096 H 92.4399 Z"
         id="path202"
         inkscape:connector-curvature="0" /></clipPath><clipPath
       clipPathUnits="userSpaceOnUse"
       id="clipPath208"><path
         d="M 92.56,79.3381 H 657.205 V 69.2092 H 92.56 Z"
         id="path206"
         inkscape:connector-curvature="0" /></clipPath><clipPath
       clipPathUnits="userSpaceOnUse"
       id="clipPath212"><path
         d="M 92.6801,79.3381 H 657.085 V 69.4088 H 92.6801 Z"
         id="path210"
         inkscape:connector-curvature="0" /></clipPath><clipPath
       clipPathUnits="userSpaceOnUse"
       id="clipPath216"><path
         d="M 92.8002,79.3381 H 656.965 V 69.6085 H 92.8002 Z"
         id="path214"
         inkscape:connector-curvature="0" /></clipPath><clipPath
       clipPathUnits="userSpaceOnUse"
       id="clipPath220"><path
         d="M 92.9202,79.3381 H 656.845 V 69.808 H 92.9202 Z"
         id="path218"
         inkscape:connector-curvature="0" /></clipPath><clipPath
       clipPathUnits="userSpaceOnUse"
       id="clipPath224"><path
         d="M 93.0403,79.3381 H 656.725 V 70.0076 H 93.0403 Z"
         id="path222"
         inkscape:connector-curvature="0" /></clipPath><clipPath
       clipPathUnits="userSpaceOnUse"
       id="clipPath228"><path
         d="M 93.1604,79.3381 H 656.605 V 70.2073 H 93.1604 Z"
         id="path226"
         inkscape:connector-curvature="0" /></clipPath><clipPath
       clipPathUnits="userSpaceOnUse"
       id="clipPath232"><path
         d="M 93.2805,79.3381 H 656.485 V 70.4069 H 93.2805 Z"
         id="path230"
         inkscape:connector-curvature="0" /></clipPath><clipPath
       clipPathUnits="userSpaceOnUse"
       id="clipPath236"><path
         d="M 93.4006,79.3381 H 656.365 V 70.6066 H 93.4006 Z"
         id="path234"
         inkscape:connector-curvature="0" /></clipPath><clipPath
       clipPathUnits="userSpaceOnUse"
       id="clipPath240"><path
         d="M 93.5206,79.3381 H 656.245 v -8.532 H 93.5206 Z"
         id="path238"
         inkscape:connector-curvature="0" /></clipPath><clipPath
       clipPathUnits="userSpaceOnUse"
       id="clipPath244"><path
         d="M 93.6407,79.3381 H 656.125 V 71.0058 H 93.6407 Z"
         id="path242"
         inkscape:connector-curvature="0" /></clipPath><clipPath
       clipPathUnits="userSpaceOnUse"
       id="clipPath248"><path
         d="M 93.7608,79.3381 H 656.005 V 71.2054 H 93.7608 Z"
         id="path246"
         inkscape:connector-curvature="0" /></clipPath><clipPath
       clipPathUnits="userSpaceOnUse"
       id="clipPath252"><path
         d="M 93.8809,79.3381 H 655.885 V 71.405 H 93.8809 Z"
         id="path250"
         inkscape:connector-curvature="0" /></clipPath><clipPath
       clipPathUnits="userSpaceOnUse"
       id="clipPath256"><path
         d="M 94.001,79.3381 H 655.765 V 71.6047 H 94.001 Z"
         id="path254"
         inkscape:connector-curvature="0" /></clipPath><clipPath
       clipPathUnits="userSpaceOnUse"
       id="clipPath260"><path
         d="M 94.121,79.3381 H 655.645 V 71.8042 H 94.121 Z"
         id="path258"
         inkscape:connector-curvature="0" /></clipPath><clipPath
       clipPathUnits="userSpaceOnUse"
       id="clipPath264"><path
         d="M 94.2411,79.3381 H 655.524 V 72.0038 H 94.2411 Z"
         id="path262"
         inkscape:connector-curvature="0" /></clipPath><clipPath
       clipPathUnits="userSpaceOnUse"
       id="clipPath268"><path
         d="M 94.3612,79.3381 H 655.404 V 72.2035 H 94.3612 Z"
         id="path266"
         inkscape:connector-curvature="0" /></clipPath><clipPath
       clipPathUnits="userSpaceOnUse"
       id="clipPath272"><path
         d="M 94.4813,79.3381 H 655.284 v -6.935 H 94.4813 Z"
         id="path270"
         inkscape:connector-curvature="0" /></clipPath><clipPath
       clipPathUnits="userSpaceOnUse"
       id="clipPath276"><path
         d="M 94.6013,79.3381 H 655.164 V 72.6028 H 94.6013 Z"
         id="path274"
         inkscape:connector-curvature="0" /></clipPath><clipPath
       clipPathUnits="userSpaceOnUse"
       id="clipPath280"><path
         d="M 94.7214,79.3381 H 655.044 V 72.8023 H 94.7214 Z"
         id="path278"
         inkscape:connector-curvature="0" /></clipPath><clipPath
       clipPathUnits="userSpaceOnUse"
       id="clipPath284"><path
         d="M 94.8415,79.3381 H 654.924 V 73.0019 H 94.8415 Z"
         id="path282"
         inkscape:connector-curvature="0" /></clipPath><clipPath
       clipPathUnits="userSpaceOnUse"
       id="clipPath288"><path
         d="M 94.9616,79.3381 H 654.804 V 73.2016 H 94.9616 Z"
         id="path286"
         inkscape:connector-curvature="0" /></clipPath><clipPath
       clipPathUnits="userSpaceOnUse"
       id="clipPath1086"><path
         d="m 297.75,432.46 c 0,0 116.75,-8.422 32.25,-48.39 v 0 c -84.5,-39.968 166.075,-46.737 60.787,-101.853 v 0 C 285.5,227.102 414.353,224.142 455.926,230.123 v 0 c 41.574,5.979 -106.575,-43.58 -118,-81.551 v 0 C 326.5,110.602 430.202,94.603 480.1,109.602 v 0 c 49.9,15 -7.053,23.212 3.548,45.607 v 0 c 10.602,22.393 45.305,50.962 94.46,29.138 v 0 C 620,165.748 671.655,166.828 638,215.559 v 0 c -33.655,48.73 37.032,22.191 37.032,22.191 v 0 194.71 z"
         id="path1084"
         inkscape:connector-curvature="0" /></clipPath><linearGradient
       x1="0"
       y1="0"
       x2="1"
       y2="0"
       gradientUnits="userSpaceOnUse"
       gradientTransform="matrix(-274.66687,-327.99966,-327.99966,274.66687,613.48218,475.63873)"
       spreadMethod="pad"
       id="linearGradient1096"><stop
         style="stop-opacity:1;stop-color:#3ed6d3"
         offset="0"
         id="stop1092" /><stop
         style="stop-opacity:1;stop-color:#9548d9"
         offset="1"
         id="stop1094" /></linearGradient><clipPath
       clipPathUnits="userSpaceOnUse"
       id="clipPath1106"><path
         d="m 540.805,432.46 c -40.58,-12.445 -81.423,-37.992 -95.149,-77.352 v 0 c -22.323,-64.006 2.737,-108.001 47.04,-108.337 v 0 c 44.304,-0.336 61.982,30.834 44.014,49.648 v 0 c -9.617,10.067 -19.771,3.824 -29.57,-2.42 v 0 c -8.511,-5.422 -16.755,-10.845 -24.147,-5.581 v 0 c -15.904,11.327 0.333,71.773 76.337,65.728 v 0 C 635.333,348.102 635,320.052 621,305.743 v 0 c -14,-14.308 -3.333,-29.651 26.667,-32.313 v 0 c 23.309,-2.067 26.915,-22.456 27.365,-31.45 v 0 190.48 z"
         id="path1104"
         inkscape:connector-curvature="0" /></clipPath><linearGradient
       x1="0"
       y1="0"
       x2="1"
       y2="0"
       gradientUnits="userSpaceOnUse"
       gradientTransform="matrix(-219.00008,-321.99973,-321.99973,219.00008,704.96674,513.88562)"
       spreadMethod="pad"
       id="linearGradient1116"><stop
         style="stop-opacity:1;stop-color:#3ed6d3"
         offset="0"
         id="stop1112" /><stop
         style="stop-opacity:1;stop-color:#9548d9"
         offset="1"
         id="stop1114" /></linearGradient><clipPath
       clipPathUnits="userSpaceOnUse"
       id="clipPath1126"><path
         d="M 0,500 H 750 V 0 H 0 Z"
         id="path1124"
         inkscape:connector-curvature="0" /></clipPath><clipPath
       clipPathUnits="userSpaceOnUse"
       id="clipPath1162"><path
         d="M 0,500 H 750 V 0 H 0 Z"
         id="path1160"
         inkscape:connector-curvature="0" /></clipPath><clipPath
       clipPathUnits="userSpaceOnUse"
       id="clipPath1170"><path
         d="m 449.275,356.564 h 37.006 v -50.233 h -37.006 z"
         id="path1168"
         inkscape:connector-curvature="0" /></clipPath><clipPath
       clipPathUnits="userSpaceOnUse"
       id="clipPath1310"><path
         d="m 449.275,321.849 h 37.006 v -50.233 h -37.006 z"
         id="path1308"
         inkscape:connector-curvature="0" /></clipPath><clipPath
       clipPathUnits="userSpaceOnUse"
       id="clipPath1618"><path
         d="m 487.07,214.137 -0.002,-23.501 30.859,17.862 v 23.552 z"
         id="path1616"
         inkscape:connector-curvature="0" /></clipPath><linearGradient
       x1="0"
       y1="0"
       x2="1"
       y2="0"
       gradientUnits="userSpaceOnUse"
       gradientTransform="matrix(-27.684441,41.675541,41.675541,27.684441,511.99951,197.03893)"
       spreadMethod="pad"
       id="linearGradient1630"><stop
         style="stop-opacity:1;stop-color:#1c75bc"
         offset="0"
         id="stop1624" /><stop
         style="stop-opacity:1;stop-color:#1c75bc"
         offset="0.52466061"
         id="stop1626" /><stop
         style="stop-opacity:1;stop-color:#5394bc"
         offset="1"
         id="stop1628" /></linearGradient><clipPath
       clipPathUnits="userSpaceOnUse"
       id="clipPath1640"><path
         d="M 0,500 H 750 V 0 H 0 Z"
         id="path1638"
         inkscape:connector-curvature="0" /></clipPath><clipPath
       clipPathUnits="userSpaceOnUse"
       id="clipPath2592"><path
         d="m 473.661,375.005 v -81.633 c 0,-1.425 0.761,-2.742 1.995,-3.456 v 0 L 596.69,220.075 c 1.224,-0.707 2.753,0.176 2.753,1.589 v 0 l 10e-4,81.511 c 0,1.471 -0.786,2.831 -2.061,3.567 v 0 l -121.037,69.814 c -0.288,0.166 -0.594,0.242 -0.891,0.242 v 0 c -0.936,0 -1.794,-0.748 -1.794,-1.793"
         id="path2590"
         inkscape:connector-curvature="0" /></clipPath><linearGradient
       x1="0"
       y1="0"
       x2="1"
       y2="0"
       gradientUnits="userSpaceOnUse"
       gradientTransform="matrix(8.4694042,173.34315,-173.34315,8.4694042,533.22949,230.31728)"
       spreadMethod="pad"
       id="linearGradient2604"><stop
         style="stop-opacity:1;stop-color:#1c75bc"
         offset="0"
         id="stop2598" /><stop
         style="stop-opacity:1;stop-color:#1c75bc"
         offset="0.52466061"
         id="stop2600" /><stop
         style="stop-opacity:1;stop-color:#5394bc"
         offset="1"
         id="stop2602" /></linearGradient><clipPath
       clipPathUnits="userSpaceOnUse"
       id="clipPath2614"><path
         d="M 0,500 H 750 V 0 H 0 Z"
         id="path2612"
         inkscape:connector-curvature="0" /></clipPath><clipPath
       clipPathUnits="userSpaceOnUse"
       id="clipPath3526"><path
         d="m 371.648,363.368 h 37.007 v -50.233 h -37.007 z"
         id="path3524"
         inkscape:connector-curvature="0" /></clipPath><clipPath
       clipPathUnits="userSpaceOnUse"
       id="clipPath3762"><path
         d="m 357.368,311.338 1.627,-0.94 0.009,3.133 0.698,-0.403 c 0.951,-0.549 1.686,-0.722 2.206,-0.519 v 0 c 0.516,0.209 0.776,0.781 0.778,1.731 v 0 c 0.002,0.916 -0.237,1.741 -0.72,2.481 v 0 c -0.486,0.739 -1.19,1.379 -2.124,1.918 v 0 l -2.448,1.414 z m 2.175,3.417 -0.535,0.309 0.007,2.617 0.742,-0.427 c 0.445,-0.257 0.768,-0.552 0.977,-0.88 v 0 c 0.206,-0.329 0.311,-0.713 0.31,-1.153 v 0 c -10e-4,-0.434 -0.127,-0.689 -0.377,-0.774 v 0 c -0.056,-0.02 -0.118,-0.03 -0.187,-0.03 v 0 c -0.236,0 -0.548,0.113 -0.937,0.338"
         id="path3760"
         inkscape:connector-curvature="0" /></clipPath><linearGradient
       x1="0"
       y1="0"
       x2="1"
       y2="0"
       gradientUnits="userSpaceOnUse"
       gradientTransform="matrix(14.320749,-68.566299,-68.566299,-14.320749,354.14078,341.28119)"
       spreadMethod="pad"
       id="linearGradient3774"><stop
         style="stop-opacity:1;stop-color:#1c75bc"
         offset="0"
         id="stop3768" /><stop
         style="stop-opacity:1;stop-color:#1c75bc"
         offset="0.52466061"
         id="stop3770" /><stop
         style="stop-opacity:1;stop-color:#5394bc"
         offset="1"
         id="stop3772" /></linearGradient><clipPath
       clipPathUnits="userSpaceOnUse"
       id="clipPath3784"><path
         d="m 363.687,307.689 1.627,-0.938 0.01,3.804 3.04,-1.753 -0.012,-3.806 1.623,-0.936 0.025,8.815 -1.623,0.937 -0.01,-3.456 -3.038,1.754 0.01,3.456 -1.627,0.939 z"
         id="path3782"
         inkscape:connector-curvature="0" /></clipPath><linearGradient
       x1="0"
       y1="0"
       x2="1"
       y2="0"
       gradientUnits="userSpaceOnUse"
       gradientTransform="matrix(14.320757,-68.566338,-68.566338,-14.320757,360.10861,342.52756)"
       spreadMethod="pad"
       id="linearGradient3796"><stop
         style="stop-opacity:1;stop-color:#1c75bc"
         offset="0"
         id="stop3790" /><stop
         style="stop-opacity:1;stop-color:#1c75bc"
         offset="0.52466061"
         id="stop3792" /><stop
         style="stop-opacity:1;stop-color:#5394bc"
         offset="1"
         id="stop3794" /></linearGradient><clipPath
       clipPathUnits="userSpaceOnUse"
       id="clipPath3806"><path
         d="m 371.48,303.19 1.627,-0.939 0.008,3.132 0.698,-0.403 c 0.952,-0.549 1.686,-0.722 2.203,-0.516 v 0 c 0.52,0.207 0.779,0.78 0.782,1.729 v 0 c 0.003,0.915 -0.237,1.74 -0.72,2.482 v 0 c -0.486,0.738 -1.191,1.379 -2.123,1.917 v 0 l -2.45,1.414 z m 2.174,3.418 -0.534,0.308 0.006,2.617 0.742,-0.427 c 0.446,-0.257 0.769,-0.552 0.978,-0.879 v 0 c 0.206,-0.33 0.311,-0.714 0.309,-1.152 v 0 c -10e-4,-0.436 -0.127,-0.691 -0.377,-0.774 v 0 c -0.056,-0.02 -0.119,-0.03 -0.189,-0.03 v 0 c -0.235,0 -0.547,0.113 -0.935,0.337"
         id="path3804"
         inkscape:connector-curvature="0" /></clipPath><linearGradient
       x1="0"
       y1="0"
       x2="1"
       y2="0"
       gradientUnits="userSpaceOnUse"
       gradientTransform="matrix(14.320779,-68.566444,-68.566444,-14.320779,366.03207,343.76468)"
       spreadMethod="pad"
       id="linearGradient3818"><stop
         style="stop-opacity:1;stop-color:#1c75bc"
         offset="0"
         id="stop3812" /><stop
         style="stop-opacity:1;stop-color:#1c75bc"
         offset="0.52466061"
         id="stop3814" /><stop
         style="stop-opacity:1;stop-color:#5394bc"
         offset="1"
         id="stop3816" /></linearGradient><clipPath
       clipPathUnits="userSpaceOnUse"
       id="clipPath3828"><path
         d="M 0,500 H 750 V 0 H 0 Z"
         id="path3826"
         inkscape:connector-curvature="0" /></clipPath><clipPath
       clipPathUnits="userSpaceOnUse"
       id="clipPath3964"><path
         d="M 0,500 H 750 V 0 H 0 Z"
         id="path3962"
         inkscape:connector-curvature="0" /></clipPath></defs><sodipodi:namedview
     pagecolor="#ffffff"
     bordercolor="#666666"
     borderopacity="1"
     objecttolerance="10"
     gridtolerance="10"
     guidetolerance="10"
     inkscape:pageopacity="0"
     inkscape:pageshadow="2"
     inkscape:window-width="1920"
     inkscape:window-height="1020"
     id="namedview4"
     showgrid="false"
     inkscape:zoom="1"
     inkscape:cx="500"
     inkscape:cy="333.33334"
     inkscape:window-x="0"
     inkscape:window-y="31"
     inkscape:window-maximized="1"
     inkscape:current-layer="g10" /><g
     id="g10"
     inkscape:groupmode="layer"
     inkscape:label="2596846"
     transform="matrix(1.3333333,0,0,-1.3333333,0,666.66667)"><path
       d="M 74.968,432.46 H 675.032 V 77.151 H 74.968 Z"
       style="fill:#ffffff;fill-opacity:1;fill-rule:nonzero;stroke:none"
       id="path1078"
       inkscape:connector-curvature="0" /><g
       id="g1080"
       transform="translate(75.000002,67.500002)"><g
         id="g1082"
         clip-path="url(#clipPath1086)"><g
           id="g1088"><g
             id="g1090"><path
               d="m 297.75,432.46 c 0,0 116.75,-8.422 32.25,-48.39 v 0 c -84.5,-39.968 166.075,-46.737 60.787,-101.853 v 0 C 285.5,227.102 414.353,224.142 455.926,230.123 v 0 c 41.574,5.979 -106.575,-43.58 -118,-81.551 v 0 C 326.5,110.602 430.202,94.603 480.1,109.602 v 0 c 49.9,15 -7.053,23.212 3.548,45.607 v 0 c 10.602,22.393 45.305,50.962 94.46,29.138 v 0 C 620,165.748 671.655,166.828 638,215.559 v 0 c -33.655,48.73 37.032,22.191 37.032,22.191 v 0 194.71 z"
               style="fill:url(#linearGradient1096);stroke:none"
               id="path1098"
               inkscape:connector-curvature="0" /></g></g></g></g><g
       id="g1100"
       transform="translate(75.000002,67.500002)"><g
         id="g1102"
         clip-path="url(#clipPath1106)"><g
           id="g1108"><g
             id="g1110"><path
               d="m 540.805,432.46 c -40.58,-12.445 -81.423,-37.992 -95.149,-77.352 v 0 c -22.323,-64.006 2.737,-108.001 47.04,-108.337 v 0 c 44.304,-0.336 61.982,30.834 44.014,49.648 v 0 c -9.617,10.067 -19.771,3.824 -29.57,-2.42 v 0 c -8.511,-5.422 -16.755,-10.845 -24.147,-5.581 v 0 c -15.904,11.327 0.333,71.773 76.337,65.728 v 0 C 635.333,348.102 635,320.052 621,305.743 v 0 c -14,-14.308 -3.333,-29.651 26.667,-32.313 v 0 c 23.309,-2.067 26.915,-22.456 27.365,-31.45 v 0 190.48 z"
               style="fill:url(#linearGradient1116);stroke:none"
               id="path1118"
               inkscape:connector-curvature="0" /></g></g></g></g></g></svg>