<?xml version="1.0" encoding="UTF-8"?>
<svg width="162mm" height="114mm" version="1.1" viewBox="0 0 612.2835 430.86614" xml:space="preserve" xmlns="http://www.w3.org/2000/svg" xmlns:cc="http://creativecommons.org/ns#" xmlns:dc="http://purl.org/dc/elements/1.1/" xmlns:rdf="http://www.w3.org/1999/02/22-rdf-syntax-ns#"><metadata><rdf:RDF><cc:Work rdf:about=""><dc:format>image/svg+xml</dc:format><dc:type rdf:resource="http://purl.org/dc/dcmitype/StillImage"/><dc:title/></cc:Work></rdf:RDF></metadata><defs><clipPath id="n"><path d="m0 500h750v-500h-750z"/></clipPath><clipPath id="m"><path d="m459.24 328.9h33.937v-46.067h-33.937z"/></clipPath><clipPath id="l"><path d="m464.57 357.41h28.607v-42.26h-28.607z"/></clipPath><clipPath id="k"><path d="m417.45 341.2h16.633v-27.859h-16.633z"/></clipPath><clipPath id="j"><path d="m383.6 318.11h33.936v-46.066h-33.936z"/></clipPath><clipPath id="i"><path d="m502.24 312.37h16.63v-27.86h-16.63z"/></clipPath><clipPath id="h"><path d="m521.26 344.6h16.633v-27.859h-16.633z"/></clipPath><clipPath id="g"><path d="m564.27 257.42h16.633v-27.86h-16.63z"/></clipPath><clipPath id="f"><path d="m443.03 298.44h16.633v-27.859h-16.633z"/></clipPath><clipPath id="e"><path d="m413.42 244.28 54.852-31.942 1e-3 40.366-54.853 31.814z"/></clipPath><clipPath id="d"><path d="m0 500h750v-500h-750z"/></clipPath><clipPath id="c"><path d="m486.96 268.39h33.936v-46.067h-33.936z"/></clipPath><clipPath id="b"><path d="m528.29 335.41h33.937v-46.07h-33.937z"/></clipPath><linearGradient id="a" gradientTransform="matrix(17.262 56.799 56.799 -17.262 433.71 224.97)" gradientUnits="userSpaceOnUse"><stop stop-color="#1c75bc" offset="0"/><stop stop-color="#1c75bc" offset=".52466"/><stop stop-color="#5394bc" offset="1"/></linearGradient></defs><g transform="matrix(1.3333 0 0 -1.3333 0 430.87)"><g transform="matrix(1.4992 0 0 1.4046 -485.09 -173.42)"><g clip-path="url(#n)"><g clip-path="url(#m)" opacity=".39999"><g transform="translate(459.24 328.9)"><path d="m0 0v-1.07l4.497-2.594v1.07z" fill="#fff"/></g><g transform="translate(459.24 326.94)"><path d="m0 0v-1.07l4.497-2.594v1.07z" fill="#fff"/></g><g transform="translate(459.24 324.98)"><path d="m0 0v-1.07l4.497-2.594v1.07z" fill="#fff"/></g><g transform="translate(493.18 302.38)"><path d="m0 0v1.07l-27.752 16.008v-1.07z" fill="#fff"/></g><g transform="translate(459.24 323.03)"><path d="m0 0v-1.071l4.497-2.594v1.071z" fill="#fff"/></g><g transform="translate(459.24 321.07)"><path d="m0 0v-1.07l4.497-2.594v1.07z" fill="#fff"/></g><g transform="translate(493.18 300.43)"><path d="m0 0v1.071l-27.752 16.008v-1.071z" fill="#fff"/></g><g transform="translate(459.24 315.21)"><path d="m0 0v-1.07l4.497-2.594v1.07z" fill="#fff"/></g><g transform="translate(459.24 313.25)"><path d="m0 0v-1.07l4.497-2.594v1.071z" fill="#fff"/></g><g transform="translate(459.24 305.43)"><path d="m0 0v-1.07l4.497-2.594v1.07z" fill="#fff"/></g><g transform="translate(459.24 303.47)"><path d="m0 0v-1.07l4.497-2.594v1.07z" fill="#fff"/></g><g transform="translate(482.93 289.81)"><path d="m0 0-17.508 10.099v-1.071l17.508-10.099z" fill="#fff"/></g><g transform="translate(483.86 289.28)"><path d="m0 0v-1.071l9.321-5.376v1.07z" fill="#fff"/></g><g transform="translate(474.22 296.79)"><path d="m0 0-8.796 5.073v-1.07l8.796-5.073z" fill="#fff"/></g><g transform="translate(475.14 296.26)"><path d="m0 0v-1.07l18.033-10.403v1.071z" fill="#fff"/></g><g transform="translate(490.81 293.09)"><path d="m0 0v-1.07l2.372-1.369v1.071z" fill="#fff"/></g><g transform="translate(477.9 302.49)"><path d="m0 0-12.47 7.192v-1.07l12.47-7.193z" fill="#fff"/></g><g transform="translate(472.79 321.08)"><path d="m0 0-7.36 4.245v-1.07l7.36-4.245z" fill="#fff"/></g><g transform="translate(484.85 314.12)"><path d="m0 0-11.142 6.427v-1.071l11.142-6.427z" fill="#fff"/></g><g transform="translate(478.36 315.91)"><path d="m0 0-7.846 4.524v-1.07l7.846-4.524z" fill="#fff"/></g><g transform="translate(486.59 311.17)"><path d="m0 0-7.308 4.216v-1.07l7.308-4.216z" fill="#fff"/></g><g transform="translate(487.51 310.63)"><path d="m0 0v-1.07l5.667-3.269v1.07z" fill="#fff"/></g><g transform="translate(466.88 320.58)"><path d="m0 0v-1.07l5.911-3.409v1.07z" fill="#fff"/></g><g transform="translate(490.87 306.74)"><path d="m0 0-17.157 9.896v-1.07l17.157-9.896z" fill="#fff"/></g><g transform="translate(481.04 306.54)"><path d="m0 0-11.212 6.467v-1.071l11.212-6.466z" fill="#fff"/></g><g transform="translate(490.87 300.88)"><path d="m0 0-8.9 5.134v-1.071l8.9-5.133z" fill="#fff"/></g><g transform="translate(489.88 295.58)"><path d="m0 0-11.064 6.382v-1.07l11.064-6.382z" fill="#fff"/></g><g transform="translate(483.86 297.1)"><path d="m0 0v-1.07l6.026-3.476v1.07z" fill="#fff"/></g><g transform="translate(467.6 306.48)"><path d="m0 0-2.17 1.252v-1.071l2.17-1.251z" fill="#fff"/></g><g transform="translate(471.66 304.13)"><path d="m0 0v-1.07l11.273-6.503v1.07z" fill="#fff"/></g><g transform="translate(470.74 304.67)"><path d="m0 0-2.219 1.28v-1.07l2.219-1.28z" fill="#fff"/></g><g transform="translate(480.85 296.88)"><path d="m0 0-12.33 7.111v-1.07l12.33-7.111z" fill="#fff"/></g></g><g clip-path="url(#l)" opacity=".39999"><g transform="translate(483.22 346.61)"><path d="m0 0-18.647 10.799v-0.948l18.647-10.799z" fill="#fff"/></g><g transform="translate(464.57 354.59)"><path d="m0 0 28.607-16.547v0.948l-28.607 16.547z" fill="#fff"/></g><g transform="translate(484.46 345.9)"><path d="m0 0v-0.948l8.713-5.046v0.948z" fill="#fff"/></g><g transform="translate(483.22 342.97)"><path d="m0 0-18.647 10.8v-0.949l18.647-10.799z" fill="#fff"/></g><g transform="translate(464.57 350.96)"><path d="m0 0 28.607-16.547v0.948l-28.607 16.547z" fill="#fff"/></g><g transform="translate(484.46 341.32)"><path d="m0 0 8.713-5.046v0.948l-8.713 5.046z" fill="#fff"/></g><g transform="translate(483.22 336.97)"><path d="m0 0-18.647 10.799v-0.948l18.647-10.799z" fill="#fff"/></g><g transform="translate(464.57 344.96)"><path d="m0 0 28.607-16.547v0.948l-28.607 16.547z" fill="#fff"/></g><g transform="translate(484.46 335.32)"><path d="m0 0 8.713-5.046v0.948l-8.713 5.046z" fill="#fff"/></g><g transform="translate(483.22 333.34)"><path d="m0 0-18.647 10.8v-0.949l18.647-10.799z" fill="#fff"/></g><g transform="translate(464.57 341.33)"><path d="m0 0 28.607-16.547v0.948l-28.607 16.547z" fill="#fff"/></g><g transform="translate(484.46 331.69)"><path d="m0 0 8.713-5.046v0.948l-8.713 5.046z" fill="#fff"/></g><g transform="translate(483.22 327.34)"><path d="m0 0-18.647 10.799v-0.948l18.647-10.8z" fill="#fff"/></g><g transform="translate(464.57 335.33)"><path d="m0 0 28.607-16.547v0.948l-28.607 16.547z" fill="#fff"/></g><g transform="translate(484.46 325.69)"><path d="m0 0 8.713-5.046v0.948l-8.713 5.046z" fill="#fff"/></g><g transform="translate(483.22 323.7)"><path d="m0 0-18.647 10.8v-0.949l18.647-10.799z" fill="#fff"/></g><g transform="translate(464.57 331.69)"><path d="m0 0 28.607-16.547v0.948l-28.607 16.547z" fill="#fff"/></g><g transform="translate(484.46 322.05)"><path d="m0 0 8.713-5.046v0.948l-8.713 5.046z" fill="#fff"/></g></g><g clip-path="url(#k)" opacity=".2"><g transform="translate(432.91 333.03)"><path d="m0 0-13.93 8.037c-0.679 0.393-1.529-0.099-1.529-0.883v-16.675c0-0.811 0.434-1.562 1.137-1.968l13.927-8.053c0.698-0.403 1.569 0.1 1.569 0.905v16.605c0 0.839-0.447 1.613-1.174 2.032" fill="#fff"/></g></g><g transform="translate(426.73 318.94)"><path d="m0 0-18.264 10.539c-0.558 0.322-1.199 0.309-1.828-0.072l-4.011-2.316 1.865-2.528 0.695-0.796v-18.094c0-1.077 0.574-2.073 1.507-2.612l13.67-7.903 0.139-0.76 2.789-3.908 4.291 2.521c7e-3 5e-3 0.014 9e-3 0.021 0.013l0.029 0.017v3e-3c0.383 0.238 0.655 0.658 0.655 1.174v22.027c0 1.112-0.594 2.14-1.558 2.695" fill="#f4767a"/></g><g transform="translate(422.46 316.43)"><path d="m0 0-18.479 10.662c-0.902 0.521-2.028-0.131-2.028-1.172v-22.119c0-1.077 0.574-2.073 1.507-2.612l18.477-10.682c0.924-0.535 2.081 0.132 2.081 1.2v22.027c0 1.113-0.594 2.14-1.558 2.696" fill="#ed5561"/></g><g transform="translate(423.32 290.5)"><path d="m0 0-0.026-0.016-2e-3 3e-3c8e-3 5e-3 0.019 7e-3 0.028 0.013" fill="#bbcee1"/></g><g transform="translate(424.02 291.7)"><path d="m0 0v22.027c0 0.371-0.087 0.723-0.211 1.061l4.286 2.469c0.114-0.326 0.195-0.664 0.195-1.021v-22.026c0-0.517-0.272-0.937-0.655-1.175v-3e-3l-0.029-0.017c-7e-3 -3e-3 -0.014-7e-3 -0.022-0.012l-4.253-2.5c0.402 0.234 0.689 0.666 0.689 1.197" fill="#d8395a"/></g><g transform="translate(407.1 312.57)"><path d="m0 0c-0.227-0.079-0.57 0.017-1.031 0.283l-0.49 0.282 6e-3 2.401 0.68-0.393c0.408-0.235 0.704-0.505 0.897-0.805 0.189-0.303 0.285-0.655 0.284-1.058-1e-3 -0.398-0.117-0.632-0.346-0.71m-0.756 3.936-2.246 1.296-0.023-8.084 1.492-0.861 8e-3 2.873 0.64-0.37c0.872-0.504 1.546-0.662 2.023-0.476 0.473 0.192 0.712 0.717 0.714 1.588 2e-3 0.839-0.218 1.596-0.661 2.276-0.445 0.676-1.092 1.264-1.947 1.758" fill="#fff"/></g><g transform="translate(414.16 308.81)"><path d="m0 0-2.786 1.609 9e-3 3.169-1.493 0.862-0.022-8.085 1.491-0.862 0.011 3.49 2.786-1.609-0.01-3.489 1.488-0.859 0.023 8.085-1.488 0.858z" fill="#fff"/></g><g transform="translate(420.04 305.09)"><path d="m0 0c-0.227-0.079-0.57 0.017-1.031 0.283l-0.49 0.282 6e-3 2.401 0.68-0.393c0.407-0.234 0.704-0.505 0.897-0.805 0.189-0.303 0.285-0.655 0.284-1.057-1e-3 -0.399-0.117-0.633-0.346-0.711m1.191 2.178c-0.446 0.676-1.092 1.264-1.947 1.759l-2.246 1.295-0.023-8.084 1.492-0.861 8e-3 2.873 0.639-0.37c0.873-0.504 1.546-0.661 2.02-0.474 0.477 0.19 0.715 0.715 0.718 1.586 2e-3 0.839-0.218 1.596-0.661 2.276" fill="#fff"/></g><g clip-path="url(#j)" opacity=".39999"><g transform="translate(383.6 318.11)"><path d="m0 0v-1.07l4.497-2.594v1.07z" fill="#fff"/></g><g transform="translate(383.6 316.16)"><path d="m0 0v-1.07l4.497-2.594v1.07z" fill="#fff"/></g><g transform="translate(383.6 314.2)"><path d="m0 0v-1.071l4.497-2.594v1.071z" fill="#fff"/></g><g transform="translate(417.54 291.6)"><path d="m0 0v1.071l-27.753 16.008v-1.07z" fill="#fff"/></g><g transform="translate(383.6 312.25)"><path d="m0 0v-1.07l4.497-2.594v1.07z" fill="#fff"/></g><g transform="translate(383.6 310.29)"><path d="m0 0v-1.07l4.497-2.594v1.07z" fill="#fff"/></g><g transform="translate(417.54 289.65)"><path d="m0 0v1.07l-27.753 16.008v-1.07z" fill="#fff"/></g><g transform="translate(383.6 304.43)"><path d="m0 0v-1.071l4.497-2.594v1.07z" fill="#fff"/></g><g transform="translate(383.6 302.47)"><path d="m0 0v-1.07l4.497-2.594v1.07z" fill="#fff"/></g><g transform="translate(383.6 294.65)"><path d="m0 0v-1.07l4.497-2.594v1.071z" fill="#fff"/></g><g transform="translate(383.6 292.69)"><path d="m0 0v-1.07l4.497-2.594v1.07z" fill="#fff"/></g><g transform="translate(407.29 279.03)"><path d="m0 0-17.509 10.1v-1.072l17.509-10.098z" fill="#fff"/></g><g transform="translate(408.22 278.49)"><path d="m0 0v-1.07l9.321-5.377v1.071z" fill="#fff"/></g><g transform="translate(398.58 286.01)"><path d="m0 0-8.797 5.074v-1.07l8.797-5.074z" fill="#fff"/></g><g transform="translate(399.5 285.47)"><path d="m0 0v-1.07l18.033-10.402v1.071z" fill="#fff"/></g><g transform="translate(415.16 282.31)"><path d="m0 0v-1.07l2.372-1.368v1.07z" fill="#fff"/></g><g transform="translate(402.25 291.71)"><path d="m0 0-12.471 7.193v-1.07l12.471-7.193z" fill="#fff"/></g><g transform="translate(397.14 310.3)"><path d="m0 0-7.36 4.246v-1.07l7.36-4.246z" fill="#fff"/></g><g transform="translate(409.21 303.34)"><path d="m0 0-11.142 6.427v-1.071l11.142-6.426z" fill="#fff"/></g><g transform="translate(402.72 305.13)"><path d="m0 0-7.845 4.524v-1.07l7.845-4.525z" fill="#fff"/></g><g transform="translate(410.95 300.38)"><path d="m0 0-7.309 4.215v-1.07l7.309-4.215z" fill="#fff"/></g><g transform="translate(411.87 299.85)"><path d="m0 0v-1.07l5.667-3.27v1.071z" fill="#fff"/></g><g transform="translate(391.23 309.8)"><path d="m0 0v-1.07l5.91-3.409v1.07z" fill="#fff"/></g><g transform="translate(415.22 295.96)"><path d="m0 0-17.156 9.896v-1.071l17.156-9.895z" fill="#fff"/></g><g transform="translate(405.4 295.76)"><path d="m0 0-11.213 6.467v-1.071l11.213-6.467z" fill="#fff"/></g><g transform="translate(415.22 290.1)"><path d="m0 0-8.899 5.133v-1.071l8.899-5.133z" fill="#fff"/></g><g transform="translate(414.24 284.8)"><path d="m0 0-11.064 6.382v-1.07l11.064-6.382z" fill="#fff"/></g><g transform="translate(408.22 286.32)"><path d="m0 0v-1.07l6.026-3.477v1.07z" fill="#fff"/></g><g transform="translate(391.96 295.7)"><path d="m0 0-2.171 1.252v-1.07l2.171-1.252z" fill="#fff"/></g><g transform="translate(396.02 293.35)"><path d="m0 0v-1.07l11.273-6.502v1.07z" fill="#fff"/></g><g transform="translate(395.1 293.88)"><path d="m0 0-2.219 1.279v-1.07l2.219-1.28z" fill="#fff"/></g><g transform="translate(405.21 286.1)"><path d="m0 0-12.329 7.112v-1.07l12.329-7.112z" fill="#fff"/></g></g><g clip-path="url(#i)" opacity=".2"><g transform="translate(517.7 304.2)"><path d="m0 0-13.93 8.038c-0.679 0.392-1.529-0.099-1.529-0.884v-16.674c0-0.811 0.434-1.562 1.137-1.968l13.927-8.053c0.698-0.403 1.569 0.1 1.569 0.905v16.605c0 0.838-0.447 1.613-1.174 2.031" fill="#fff"/></g></g><g clip-path="url(#h)" opacity=".2"><g transform="translate(536.72 336.42)"><path d="m0 0-13.93 8.038c-0.679 0.392-1.529-0.1-1.529-0.884v-16.675c0-0.811 0.434-1.562 1.137-1.968l13.927-8.053c0.698-0.402 1.569 0.101 1.569 0.905l1e-3 16.605c0 0.839-0.448 1.613-1.175 2.032" fill="#fff"/></g></g><g clip-path="url(#g)" opacity=".2"><g transform="translate(579.73 249.24)"><path d="m0 0-13.93 8.038c-0.679 0.392-1.528-0.099-1.528-0.884v-16.674c0-0.812 0.433-1.562 1.136-1.969l13.928-8.052c0.697-0.403 1.569 0.1 1.569 0.904v16.605c0 0.839-0.448 1.613-1.175 2.032" fill="#fff"/></g></g><g clip-path="url(#f)" opacity=".2"><g transform="translate(458.48 290.27)"><path d="m0 0-13.93 8.038c-0.679 0.393-1.529-0.099-1.529-0.884v-16.674c0-0.811 0.434-1.562 1.137-1.968l13.927-8.053c0.698-0.402 1.569 0.1 1.569 0.905l1e-3 16.605c0 0.838-0.448 1.613-1.175 2.031" fill="#fff"/></g></g><g transform="translate(406.05 153.24)"><path d="m0 0c-3.698-0.035-2.484 2.776-2.484 2.776-5.488 1.673-8.181 0.743-8.186 0.742-1.373-4.845-0.821-7.771-0.871-8.936-0.025-0.576 0.402-0.93 0.942-1.131 2.952-1.097 5.638-1.828 11.134-1.293 4.046 0.395 8.329 4.141 7.355 7.988-0.606 2.393-4.141-0.11-7.89-0.146" fill="#933e31"/></g><g transform="translate(404.46 188.01)"><path d="m0 0c-1.087 1.408-2.943 2.612-6.022 1.798l-33.066-6.378 1.243-8.492s5.065-6.677 13.929-4.145c8.864 2.533 14.62 6.677 14.62 6.677l-1.115-23.433s5.186-1.607 9.802 1.18c0.774 0.468 1.498 23.061 1.73 28.863 0.065 1.599-0.143 2.663-1.121 3.93" fill="#1c75bc"/></g><g transform="translate(421.92 146.46)"><path d="m0 0c-3.839-0.037-2.579 2.883-2.579 2.883-5.697 1.736-8.494 0.769-8.499 0.768-1.426-5.029-0.853-8.067-0.905-9.277-0.026-0.599 0.419-0.965 0.979-1.174 3.065-1.14 5.854-1.899 11.561-1.343 4.2 0.41 8.647 4.299 7.636 8.294-0.629 2.485-4.299-0.114-8.193-0.151" fill="#9d4d36"/></g><g transform="translate(384.34 155.78)"><path d="m0 0-28.379 16.406v-3.991l28.381-16.366z" fill="#bbcee1"/></g><g transform="translate(381.76 187.01)"><path d="m0 0-25.792-14.822 28.379-16.407 25.828 14.844z" fill="#fff"/></g><g transform="translate(410.17 170.63)"><path d="m0 0-25.829-14.845 2e-3 -3.951l25.827 14.943z" fill="#a7bcce"/></g><g transform="translate(420.27 182.56)"><path d="m0 0c-1.128 1.462-3.056 2.712-6.253 1.866l-34.332-6.622 1.291-8.818s5.259-6.933 14.462-4.303c9.204 2.63 15.181 6.933 15.181 6.933l-1.159-24.331s5.386-1.669 10.178 1.225c0.804 0.486 1.556 23.945 1.797 29.969 0.066 1.66-0.15 2.765-1.165 4.081" fill="#2a87c6"/></g><g transform="translate(358.93 232.22)"><path d="m0 0 58.618 34.027c2.483 1.442 5.547 1.445 8.033 0.01l92.344-53.421c2.354-1.358 2.358-4.754 8e-3 -6.117l-57.315-33.271c-2.953-1.714-6.594-1.718-9.55-0.012l-92.144 53.298c-2.11 1.218-2.113 4.262-6e-3 5.486" fill="#e8ebf5"/></g><g transform="translate(358.94 226.74)"><path d="m0 0 92.131-53.298c2.956-1.706 6.598-1.702 9.55 0.012l57.316 33.271c1.169 0.679 1.753 1.861 1.757 3.043v-4.468l-6e-3 -1e-3c-0.024-1.164-0.602-2.319-1.751-2.987l-57.316-33.271c-2.952-1.713-6.594-1.718-9.55-0.012l-92.13 53.299c-1.062 0.613-1.588 1.689-1.582 2.764h-1e-3v4.379c4e-3 -1.062 0.531-2.124 1.583-2.731" fill="#a7bcce"/></g><g transform="translate(358.94 226.74)"><path d="m0 0 92.131-53.298c1.354-0.781 2.853-1.186 4.363-1.25v-4.413c-1.51 0.065-3.009 0.469-4.363 1.25l-92.131 53.299c-1.062 0.613-1.588 1.689-1.582 2.764h-1e-3v4.379c4e-3 -1.062 0.531-2.124 1.583-2.731" fill="#bbcee1"/></g><g transform="translate(402.24 219.92)"><path d="m0 0 9.948 5.756c0.468 0.27 1.044 0.271 1.513 1e-3l30.723-17.768c0.442-0.256 0.443-0.894 1e-3 -1.151l-9.704-5.613c-0.555-0.324-1.241-0.324-1.797-3e-3l-30.683 17.745c-0.397 0.229-0.397 0.803-1e-3 1.033" fill="#0f4463"/></g><g transform="translate(402.24 218.88)"><path d="m0 0 30.683-17.745c0.556-0.32 1.242-0.32 1.797 3e-3l9.704 5.613c0.22 0.127 0.33 0.35 0.331 0.572v-1.19h-1e-3c-5e-3 -0.22-0.114-0.437-0.33-0.563l-9.704-5.613c-0.555-0.322-1.241-0.323-1.797-2e-3l-30.683 17.745c-0.2 0.116-0.299 0.318-0.298 0.52v1.175c1e-3 -0.201 0.1-0.401 0.298-0.515" fill="#0b3b56"/></g><g transform="translate(412.08 224.06)"><path d="m0 0 1.246 0.723 1.415-0.817-1.241-0.719z" fill="#1f5e77"/></g><g transform="translate(413.84 223.04)"><path d="m0 0 1.246 0.724 1.415-0.817-1.241-0.72z" fill="#1f5e77"/></g><g transform="translate(415.61 222.02)"><path d="m0 0 1.246 0.723 1.415-0.817-1.241-0.72z" fill="#1f5e77"/></g><g transform="translate(417.37 221.01)"><path d="m0 0 1.245 0.723 1.416-0.817-1.242-0.72z" fill="#1f5e77"/></g><g transform="translate(419.14 219.99)"><path d="m0 0 1.246 0.723 1.415-0.817-1.241-0.72z" fill="#1f5e77"/></g><g transform="translate(420.91 218.97)"><path d="m0 0 1.246 0.723 1.415-0.817-1.241-0.72z" fill="#1f5e77"/></g><g transform="translate(422.67 217.96)"><path d="m0 0 1.246 0.723 1.416-0.817-1.242-0.72z" fill="#1f5e77"/></g><g transform="translate(424.44 216.94)"><path d="m0 0 1.245 0.723 1.416-0.817-1.242-0.72z" fill="#1f5e77"/></g><g transform="translate(426.2 215.92)"><path d="m0 0 1.246 0.723 1.415-0.817-1.241-0.719z" fill="#1f5e77"/></g><g transform="translate(427.97 214.91)"><path d="m0 0 1.246 0.722 1.415-0.817-1.241-0.719z" fill="#1f5e77"/></g><g transform="translate(429.73 213.89)"><path d="m0 0 1.246 0.723 1.416-0.818-1.242-0.719z" fill="#1f5e77"/></g><g transform="translate(431.5 212.87)"><path d="m0 0 1.245 0.723 1.416-0.817-1.242-0.72z" fill="#1f5e77"/></g><g transform="translate(434.51 212.58)"><path d="m0 0 1.415-0.816-1.241-0.721-1.42 0.814z" fill="#1f5e77"/></g><g transform="translate(411.88 222.31)"><path d="m0 0-1.42 0.813 1.246 0.723 1.416-0.816z" fill="#1f5e77"/></g><g transform="translate(414.89 222.01)"><path d="m0 0-1.242-0.72-1.419 0.814 1.245 0.722z" fill="#1f5e77"/></g><g transform="translate(416.66 221)"><path d="m0 0-1.241-0.721-1.42 0.814 1.245 0.723z" fill="#1f5e77"/></g><g transform="translate(418.42 219.98)"><path d="m0 0-1.241-0.721-1.42 0.815 1.246 0.722z" fill="#1f5e77"/></g><g transform="translate(420.19 218.96)"><path d="m0 0-1.242-0.721-1.419 0.815 1.245 0.722z" fill="#1f5e77"/></g><g transform="translate(421.96 217.95)"><path d="m0 0-1.242-0.721-1.419 0.815 1.245 0.722z" fill="#1f5e77"/></g><g transform="translate(423.72 216.93)"><path d="m0 0-1.241-0.721-1.42 0.815 1.246 0.722z" fill="#1f5e77"/></g><g transform="translate(425.49 215.91)"><path d="m0 0-1.241-0.721-1.42 0.815 1.246 0.722z" fill="#1f5e77"/></g><g transform="translate(427.25 214.9)"><path d="m0 0-1.242-0.72-1.42 0.814 1.246 0.722z" fill="#1f5e77"/></g><g transform="translate(429.02 213.88)"><path d="m0 0-1.241-0.72-1.42 0.815 1.245 0.722z" fill="#1f5e77"/></g><g transform="translate(430.78 212.86)"><path d="m0 0-1.241-0.721-1.42 0.815 1.246 0.722z" fill="#1f5e77"/></g><g transform="translate(432.55 211.85)"><path d="m0 0-1.241-0.721-1.42 0.815 1.246 0.722z" fill="#1f5e77"/></g><g transform="translate(432.9 211.65)"><path d="m0 0 1.416-0.816-1.242-0.721-1.419 0.814z" fill="#1f5e77"/></g><g transform="translate(410.27 221.37)"><path d="m0 0-1.42 0.814 1.246 0.723 1.415-0.816z" fill="#1f5e77"/></g><g transform="translate(413.28 221.08)"><path d="m0 0-1.241-0.72-1.42 0.814 1.246 0.722z" fill="#1f5e77"/></g><g transform="translate(412.38 220.15)"><path d="m0 0 1.245 0.724 1.416-0.818-1.242-0.719z" fill="#1f5e77"/></g><g transform="translate(416.81 219.05)"><path d="m0 0-1.242-0.721-1.419 0.815 1.245 0.722z" fill="#1f5e77"/></g><g transform="translate(418.58 218.03)"><path d="m0 0-1.241-0.721-1.42 0.815 1.246 0.722z" fill="#1f5e77"/></g><g transform="translate(420.34 217.01)"><path d="m0 0-1.241-0.721-1.42 0.815 1.246 0.722z" fill="#1f5e77"/></g><g transform="translate(422.11 216)"><path d="m0 0-1.242-0.721-1.419 0.815 1.245 0.722z" fill="#1f5e77"/></g><g transform="translate(423.88 214.98)"><path d="m0 0-1.242-0.721-1.419 0.815 1.245 0.722z" fill="#1f5e77"/></g><g transform="translate(425.64 213.96)"><path d="m0 0-1.241-0.72-1.42 0.814 1.246 0.722z" fill="#1f5e77"/></g><g transform="translate(427.41 212.95)"><path d="m0 0-1.241-0.72-1.42 0.815 1.246 0.721z" fill="#1f5e77"/></g><g transform="translate(429.17 211.93)"><path d="m0 0-1.242-0.72-1.419 0.815 1.245 0.722z" fill="#1f5e77"/></g><g transform="translate(428.28 211.01)"><path d="m0 0 1.246 0.723 1.415-0.817-1.242-0.72z" fill="#1f5e77"/></g><g transform="translate(431.29 210.71)"><path d="m0 0 1.415-0.816-1.241-0.721-1.42 0.814z" fill="#1f5e77"/></g><g transform="translate(408.66 220.44)"><path d="m0 0-1.419 0.814 1.245 0.723 1.416-0.816z" fill="#1f5e77"/></g><g transform="translate(409.01 220.24)"><path d="m0 0 1.245 0.723 1.416-0.817-1.242-0.719z" fill="#1f5e77"/></g><g transform="translate(410.77 219.22)"><path d="m0 0 1.246 0.723 1.415-0.817-1.241-0.719z" fill="#1f5e77"/></g><g transform="translate(412.54 218.21)"><path d="m0 0 1.246 0.723 1.415-0.817-1.241-0.72z" fill="#1f5e77"/></g><g transform="translate(414.3 217.19)"><path d="m0 0 1.246 0.723 1.416-0.817-1.242-0.72z" fill="#1f5e77"/></g><g transform="translate(416.07 216.17)"><path d="m0 0 1.245 0.723 1.416-0.817-1.242-0.72z" fill="#1f5e77"/></g><g transform="translate(417.84 215.16)"><path d="m0 0 1.246 0.723 1.415-0.817-1.241-0.72z" fill="#1f5e77"/></g><g transform="translate(419.6 214.14)"><path d="m0 0 1.246 0.723 1.415-0.817-1.241-0.72z" fill="#1f5e77"/></g><g transform="translate(421.37 213.12)"><path d="m0 0 1.245 0.723 1.416-0.817-1.242-0.72z" fill="#1f5e77"/></g><g transform="translate(423.13 212.11)"><path d="m0 0 1.245 0.723 1.416-0.817-1.242-0.719z" fill="#1f5e77"/></g><g transform="translate(424.9 211.09)"><path d="m0 0 1.246 0.723 1.415-0.818-1.241-0.719z" fill="#1f5e77"/></g><g transform="translate(426.66 210.07)"><path d="m0 0 1.246 0.723 1.415-0.818-1.241-0.719z" fill="#1f5e77"/></g><g transform="translate(429.68 209.78)"><path d="m0 0 1.416-0.816-1.242-0.721-1.419 0.814z" fill="#1f5e77"/></g><g transform="translate(407.05 219.51)"><path d="m0 0-1.42 0.814 1.246 0.723 1.415-0.816z" fill="#1f5e77"/></g><g transform="translate(407.39 219.3)"><path d="m0 0 1.246 0.723 1.415-0.817-1.241-0.719z" fill="#1f5e77"/></g><g transform="translate(409.16 218.29)"><path d="m0 0 1.245 0.723 1.416-0.817-1.242-0.719z" fill="#1f5e77"/></g><g transform="translate(410.93 217.27)"><path d="m0 0 1.245 0.723 1.416-0.818-1.242-0.719z" fill="#1f5e77"/></g><g transform="translate(412.69 216.26)"><path d="m0 0 1.246 0.723 1.415-0.818-1.241-0.719z" fill="#1f5e77"/></g><g transform="translate(414.46 215.24)"><path d="m0 0 1.246 0.723 1.415-0.817-1.241-0.72z" fill="#1f5e77"/></g><g transform="translate(416.22 214.22)"><path d="m0 0 1.245 0.723 1.416-0.817-1.242-0.72z" fill="#1f5e77"/></g><g transform="translate(417.99 213.21)"><path d="m0 0 1.245 0.723 1.416-0.817-1.242-0.72z" fill="#1f5e77"/></g><g transform="translate(419.76 212.19)"><path d="m0 0 1.246 0.723 1.415-0.817-1.241-0.72z" fill="#1f5e77"/></g><g transform="translate(421.52 211.17)"><path d="m0 0 1.246 0.723 1.416-0.817-1.242-0.72z" fill="#1f5e77"/></g><g transform="translate(423.29 210.16)"><path d="m0 0 1.246 0.723 1.416-0.817-1.242-0.719z" fill="#1f5e77"/></g><g transform="translate(425.05 209.14)"><path d="m0 0 1.245 0.723 1.416-0.818-1.242-0.719z" fill="#1f5e77"/></g><g transform="translate(428.07 208.85)"><path d="m0 0 1.415-0.817-1.241-0.72-1.42 0.814z" fill="#1f5e77"/></g><g transform="translate(405.26 220.11)"><path d="m0 0 1.416-0.816-1.242-0.721-1.42 0.814z" fill="#1f5e77"/></g><g transform="translate(408.44 218.28)"><path d="m0 0-1.242-0.72-1.419 0.814 1.245 0.722z" fill="#1f5e77"/></g><g transform="translate(410.21 217.26)"><path d="m0 0-1.241-0.72-1.42 0.814 1.246 0.722z" fill="#1f5e77"/></g><g transform="translate(411.98 216.24)"><path d="m0 0-1.241-0.72-1.42 0.814 1.246 0.722z" fill="#1f5e77"/></g><g transform="translate(413.74 215.23)"><path d="m0 0-1.242-0.721-1.419 0.814 1.245 0.723z" fill="#1f5e77"/></g><g transform="translate(415.51 214.21)"><path d="m0 0-1.242-0.721-1.419 0.815 1.245 0.722z" fill="#1f5e77"/></g><g transform="translate(415.86 214.01)"><path d="m0 0 1.766-1.017 0.347-0.2 1.418-0.816 0.72-0.415 1.045-0.602h2e-3l1.114-0.642 2.067-1.191-1.242-0.72-2.161 1.243-1.024 0.588 1e-3 1e-3 -1.074 0.618-0.693 0.397 1e-3 1e-3 -1.396 0.803-0.371 0.213h1e-3l-1.767 1.016z" fill="#1f5e77"/></g><g transform="translate(426.1 208.11)"><path d="m0 0-1.242-0.72-1.42 0.814 1.246 0.722z" fill="#1f5e77"/></g><g transform="translate(427.87 207.1)"><path d="m0 0-1.242-0.72-1.419 0.814 1.245 0.723z" fill="#1f5e77"/></g><g transform="translate(436.8 209.83)"><path d="m0 0 1.246 0.723 1.415-0.817-1.241-0.72z" fill="#1f5e77"/></g><g transform="translate(438.56 208.81)"><path d="m0 0 1.245 0.723 1.416-0.817-1.242-0.72z" fill="#1f5e77"/></g><g transform="translate(440.33 207.79)"><path d="m0 0 1.246 0.723 1.415-0.817-1.242-0.72z" fill="#1f5e77"/></g><g transform="translate(437.85 208.8)"><path d="m0 0-1.242-0.721-1.419 0.815 1.246 0.722z" fill="#1f5e77"/></g><g transform="translate(439.61 207.78)"><path d="m0 0-1.241-0.721-1.42 0.815 1.246 0.722z" fill="#1f5e77"/></g><g transform="translate(441.38 206.77)"><path d="m0 0-1.241-0.721-1.42 0.815 1.246 0.722z" fill="#1f5e77"/></g><g transform="translate(436.24 207.87)"><path d="m0 0-1.242-0.721-1.42 0.815 1.246 0.722z" fill="#1f5e77"/></g><g transform="translate(438 206.85)"><path d="m0 0-1.242-0.721-1.419 0.815 1.245 0.722z" fill="#1f5e77"/></g><g transform="translate(439.77 205.83)"><path d="m0 0-1.241-0.721-1.42 0.815 1.246 0.722z" fill="#1f5e77"/></g><g transform="translate(431.96 207.03)"><path d="m0 0 1.245 0.723 1.416-0.817-1.242-0.72z" fill="#1f5e77"/></g><g transform="translate(433.73 206.01)"><path d="m0 0 1.246 0.723 1.415-0.817-1.241-0.72z" fill="#1f5e77"/></g><g transform="translate(435.49 204.99)"><path d="m0 0 1.246 0.723 1.416-0.817-1.242-0.72z" fill="#1f5e77"/></g><g transform="translate(430.35 206.09)"><path d="m0 0 1.246 0.722 1.415-0.817-1.241-0.719z" fill="#1f5e77"/></g><g transform="translate(432.12 205.08)"><path d="m0 0 1.245 0.723 1.416-0.817-1.242-0.72z" fill="#1f5e77"/></g><g transform="translate(433.88 204.06)"><path d="m0 0 1.246 0.723 1.415-0.817-1.242-0.72z" fill="#1f5e77"/></g><g transform="translate(431.4 205.06)"><path d="m0 0-1.242-0.72-1.419 0.814 1.245 0.722z" fill="#1f5e77"/></g><g transform="translate(433.17 204.05)"><path d="m0 0-1.241-0.72-1.42 0.815 1.246 0.722z" fill="#1f5e77"/></g><g transform="translate(424.31 229.46)"><path d="m0 0 9.786 5.681c0.414 0.241 0.926 0.241 1.341 2e-3l23.219-13.402c0.392-0.226 0.393-0.794 1e-3 -1.021l-9.569-5.555c-0.493-0.286-1.101-0.286-1.594-2e-3l-23.183 13.381c-0.353 0.204-0.354 0.712-1e-3 0.916" fill="#1f5e77"/></g><g transform="translate(424.31 228.55)"><path d="m0 0 23.183-13.381c0.493-0.284 1.101-0.284 1.594 2e-3l9.569 5.555c0.195 0.113 0.293 0.31 0.293 0.508v-1.202l-1e-3 -1e-3c-4e-3 -0.194-0.1-0.386-0.292-0.498l-9.569-5.554c-0.493-0.286-1.101-0.287-1.594-2e-3l-23.183 13.381c-0.178 0.102-0.266 0.282-0.265 0.462v1.186c1e-3 -0.177 0.089-0.354 0.265-0.456" fill="#07304b"/></g><g transform="translate(424.31 228.55)"><path d="m0 0 23.183-13.382c0.226-0.13 0.476-0.198 0.728-0.208v-1.193c-0.252 0.011-0.502 0.078-0.728 0.209l-23.183 13.381c-0.178 0.102-0.266 0.282-0.265 0.462v1.186c1e-3 -0.177 0.089-0.354 0.265-0.455" fill="#0b3b56"/></g><g transform="translate(449.7 228.57)"><path d="m0 0-18.046 10.443v-8.94l18.047-10.436z" fill="#0f4463"/></g><g transform="translate(434.17 240.45)"><path d="m0 0-2.512-1.441 18.046-10.444 2.519 1.447z" fill="#07304b"/></g><g transform="translate(452.22 230.01)"><path d="m0 0-2.519-1.446 1e-3 -8.933 2.518 1.463z" fill="#07304b"/></g></g></g><g transform="matrix(1.4992 0 0 1.4046 -485.09 -173.42)"><g clip-path="url(#e)"><path d="m413.42 244.28 54.852-31.942 1e-3 40.366-54.853 31.814z" fill="url(#a)"/></g></g><g transform="matrix(1.4992 0 0 1.4046 -485.09 -173.42)"><g clip-path="url(#d)"><g transform="translate(468.27 252.7)"><path d="m0 0 1.824 1.107v-40.365l-1.825-1.108z" fill="#07304b"/></g><g transform="translate(413.42 284.51)"><path d="m0 0 1.867 1.083 54.811-31.79-1.824-1.107z" fill="#1f5e77"/></g><g transform="translate(466.97 214.59)"><path d="m0 0-52.255 30.429v37.237l52.256-30.308zm-53.554 69.921v-40.238l54.853-31.943 1e-3 40.366z" fill="#0b3b56"/></g><g transform="translate(393.1 234.68)"><path d="m0 0c-0.569-5.766-4.822-10.065-9.499-9.604-4.678 0.46-8.008 5.509-7.439 11.275 0.569 5.765 4.821 10.065 9.499 9.603 4.676-0.461 8.007-5.508 7.439-11.274" fill="#fed4bd"/></g><g transform="translate(400.09 221.24)"><path d="m0 0s2.033-0.489 2.738-0.561c0.705-0.071 3.376-0.626 4.468-0.293 1.093 0.332-0.959 1.056-1.465 1.431-0.505 0.375-0.481 1.319 0.62 1.651 1.103 0.333 3.595 0.175 4.913 0.363 1.319 0.188-1.31 4.18-3.458 4.551-2.147 0.37-3.987 0.143-5.885-0.794-1.832-0.905-2.833-2.429-3.686-2.725z" fill="#f4c5a2"/></g><g transform="translate(400.33 226.68)"><path d="m0 0-13.905-3.486-0.699-8.834 16.415 5.625c0.341 3.128-1.811 6.695-1.811 6.695" fill="#ed5561"/></g><g transform="translate(366.03 222.94)"><path d="m0 0s-3.845-4.846 0-11.519c0 0 2.69-3.719 10.072-0.078z" fill="#ed5561"/></g><g transform="translate(377.43 228.61)"><path d="m0 0s5.992 0.409 10.696-2.879c0 0 0.349-0.989 1.289-1.616 0.941-0.627 5.605-2.497 5.605-2.497s-2.057-27.372 0.304-40.699c0 0-10.134-7.913-25.96 0 0 0-2.314 33.607-3.332 42.029 0 0 2.637 3.262 11.398 5.662" fill="#de495a"/></g><g transform="translate(374.79 183.42)"><path d="m0 0-28.379 16.406 9.554-27.675 28.381-16.365z" fill="#bbcee1"/></g><g transform="translate(349.54 201.64)"><path d="m0 0-3.133-1.819 28.379-16.407 3.169 1.841z" fill="#fff"/></g><g transform="translate(377.96 185.26)"><path d="m0 0-3.17-1.841 9.556-27.634 3.204 1.846z" fill="#a7bcce"/></g><g transform="translate(418.79 209.11)"><path d="m0 0s1.55 1.561 2.142 2.006c0.592 0.446 2.677 2.409 3.845 2.67 1.17 0.26-0.827-1.766-1.068-2.399s1.194 0.506 2.289 0.915c1.131 0.424 2.381 0.349 3.72-0.128 2.686-0.955 2.554-6.328 0.359-5.693-3.611 1.045-5.237-1.822-7.392-2.426-1.494-0.418-2.123-0.391-3.056-0.559z" fill="#f4c5a2"/></g><g transform="translate(395.02 221.61)"><path d="m0 0 11.736-15.551 12.198 3.601s2.617-3.3 1.767-6.796l-16.278-6.337-13.23 14.555s-4.43 9.232 3.807 10.528" fill="#ed5561"/></g><g transform="translate(388.48 250.88)"><path d="m0 0s0.904-2.166-3.416-2.753c-4.309-0.586-9.657-2.736-11.06-7.291-0.898-2.915 0.143-6.041 1.605-8.584 0.501-0.87 1.059-1.735 1.716-2.499 0 0 2.886-0.779 6.367 1.095 0 0 2.142 1.428 3.427 4.178 0 0 2.57-1.072 3.374 1.07 0.59 1.574 2.448 1.966 3.459 2.825 0 0 5.833 9.53-5.472 11.959" fill="#9d4d36"/></g><g transform="translate(549.56 168.06)"><path d="m0 0-18.804 10.915v-7.035l18.806-10.885z" fill="#bbcee1"/></g><g transform="translate(550.19 190.15)"><path d="m0 0-19.436-11.169 18.804-10.915 19.463 11.186z" fill="#fff"/></g><g transform="translate(569.02 179.25)"><path d="m0 0-19.463-11.186 2e-3 -7.004 19.461 11.259z" fill="#a7bcce"/></g><g transform="translate(549.56 179.57)"><path d="m0 0-18.804 10.916v-7.036l18.806-10.885z" fill="#bbcee1"/></g><g transform="translate(550.19 201.65)"><path d="m0 0-19.436-11.169 18.804-10.916 19.463 11.186z" fill="#fff"/></g><g transform="translate(569.02 190.75)"><path d="m0 0-19.463-11.187 2e-3 -7.004l19.461 11.259z" fill="#a7bcce"/></g><g transform="translate(517.75 149.65)"><path d="m0 0-18.804 10.915v-7.035l18.805-10.885z" fill="#bbcee1"/></g><g transform="translate(518.39 171.73)"><path d="m0 0-19.436-11.169 18.804-10.915 19.462 11.186z" fill="#fff"/></g><g transform="translate(537.22 160.83)"><path d="m0 0-19.463-11.186 1e-3 -7.004 19.462 11.259z" fill="#a7bcce"/></g><g transform="translate(517.75 161.15)"><path d="m0 0-18.804 10.916v-7.036l18.805-10.885z" fill="#bbcee1"/></g><g transform="translate(518.39 183.24)"><path d="m0 0-19.436-11.169 18.804-10.916 19.462 11.187z" fill="#fff"/></g><g transform="translate(537.22 172.34)"><path d="m0 0-19.463-11.187 1e-3 -7.004l19.462 11.259z" fill="#a7bcce"/></g><g transform="translate(485.95 131.23)"><path d="m0 0-18.804 10.915v-7.036l18.805-10.884z" fill="#bbcee1"/></g><g transform="translate(486.58 153.32)"><path d="m0 0-19.435-11.169 18.804-10.915 19.462 11.186z" fill="#fff"/></g><g transform="translate(505.42 142.42)"><path d="m0 0-19.463-11.186 1e-3 -7.004 19.462 11.259z" fill="#a7bcce"/></g><g transform="translate(485.95 142.74)"><path d="m0 0-18.804 10.916v-7.036l18.805-10.885z" fill="#bbcee1"/></g><g transform="translate(486.58 164.82)"><path d="m0 0-19.435-11.169 18.804-10.916 19.462 11.186z" fill="#fff"/></g><g transform="translate(505.42 153.93)"><path d="m0 0-19.463-11.187 1e-3 -7.004l19.462 11.259z" fill="#a7bcce"/></g><g transform="translate(483.76 152.38)"><path d="m0 0c1.475-0.852 3.857-0.852 5.323 0 1.465 0.852 1.457 2.231-0.017 3.083-1.475 0.852-3.858 0.852-5.323 0-1.464-0.852-1.458-2.231 0.017-3.083m8.057-2.75-1.181 0.683c-0.851-0.335-1.792-0.556-2.766-0.665l5e-3 -0.963-2.868-1e-3 -7e-3 0.964c-0.972 0.11-1.917 0.331-2.769 0.665l-1.174-0.683-2.036 1.177 1.174 0.681c-0.58 0.493-0.965 1.039-1.158 1.602h-1.663l-9e-3 1.663h1.664c0.185 0.563 0.565 1.109 1.138 1.604l-1.179 0.681 2.021 1.175 1.18-0.682c0.85 0.333 1.794 0.556 2.763 0.664l-4e-3 0.964h2.871l3e-3 -0.964c0.975-0.108 1.918-0.33 2.771-0.664l1.174 0.683 2.037-1.176-1.174-0.682c0.578-0.493 0.964-1.039 1.155-1.603h1.666l8e-3 -1.662-1.665-1e-3c-0.182-0.563-0.564-1.11-1.137-1.603l1.182-0.681z" fill="#1c75bc"/></g><g transform="translate(519.82 177.17)"><path d="m0 0 1.829-3.905 1.828-3.907-6.749 1.047-6.747 1.046 4.919 2.86z" fill="#ef4136"/></g><g transform="translate(542.83 191.59)"><path d="m0 0c-1.018 0.587-0.558 1.443 1.374 2.566 0.93 0.54 1.788 0.886 2.567 1.041 0.783 0.153 1.397 0.099 1.845-0.16 0.227-0.131 0.394-0.281 0.492-0.452 0.1-0.17 0.177-0.338 0.23-0.506l1.777 0.435c-0.108 0.308-0.266 0.567-0.464 0.779-0.197 0.213-0.45 0.402-0.758 0.58-0.931 0.538-2.036 0.738-3.317 0.602-1.281-0.14-2.599-0.604-3.953-1.391-1.355-0.788-2.155-1.545-2.395-2.272-0.242-0.731 0.111-1.368 1.055-1.913 0.641-0.371 1.303-0.595 1.984-0.673l1.38 0.802c-0.767 0.118-1.373 0.305-1.817 0.562" fill="#91a6b7"/></g><g transform="translate(551.28 189.44)"><path d="m0 0c0.164 0.348 0.153 0.787-0.029 1.314-0.138 0.391-0.187 0.694-0.141 0.909 0.045 0.215 0.21 0.405 0.495 0.57 0.284 0.165 0.577 0.257 0.88 0.273 0.303 0.018 0.579-0.044 0.832-0.189 0.231-0.134 0.406-0.284 0.522-0.449s0.214-0.331 0.293-0.498l1.76 0.424c-0.237 0.55-0.678 1.011-1.319 1.381-0.676 0.39-1.422 0.58-2.244 0.568-0.818-0.01-1.583-0.227-2.297-0.642-0.373-0.217-0.657-0.436-0.835-0.658-0.178-0.223-0.287-0.454-0.333-0.693-0.037-0.24-5e-3 -0.534 0.112-0.886 0.134-0.403 0.17-0.724 0.12-0.96-0.045-0.239-0.211-0.44-0.491-0.603s-0.578-0.246-0.897-0.254c-0.315-9e-3 -0.622 0.075-0.921 0.247-0.526 0.303-0.895 0.752-1.119 1.355l-1.537-0.894c0.232-0.463 0.708-0.905 1.442-1.33 0.748-0.431 1.524-0.638 2.338-0.626 0.813 0.012 1.609 0.246 2.386 0.699 0.488 0.283 0.814 0.596 0.983 0.942" fill="#91a6b7"/></g><g transform="translate(559.43 190.37)"><path d="m0 0c-0.676 0.39-1.422 0.58-2.244 0.567-0.814-0.012-1.583-0.227-2.297-0.641-0.373-0.217-0.653-0.44-0.835-0.659-0.178-0.222-0.287-0.454-0.333-0.694-0.036-0.239-1e-3 -0.535 0.112-0.886 0.134-0.401 0.17-0.722 0.124-0.961-0.049-0.237-0.214-0.437-0.495-0.6-0.28-0.163-0.577-0.247-0.892-0.257-0.32-7e-3 -0.622 0.074-0.922 0.247-0.526 0.304-0.899 0.755-1.119 1.355l-1.537-0.894c0.228-0.461 0.708-0.905 1.438-1.327 0.748-0.432 1.529-0.642 2.338-0.627 0.813 0.013 1.613 0.244 2.391 0.696 0.488 0.284 0.809 0.6 0.978 0.946 0.164 0.347 0.157 0.784-0.029 1.314-0.138 0.39-0.183 0.692-0.137 0.906 0.041 0.217 0.206 0.407 0.491 0.573 0.284 0.165 0.577 0.255 0.88 0.273s0.579-0.044 0.836-0.192c0.231-0.133 0.402-0.282 0.518-0.447 0.116-0.166 0.214-0.331 0.293-0.499l1.76 0.425c-0.237 0.55-0.678 1.012-1.319 1.382" fill="#91a6b7"/></g><g transform="translate(549.14 253.18)"><path d="m0 0-18.264 10.539c-0.558 0.321-1.2 0.308-1.828-0.073l-1e-3 1e-3 -4.01-2.316 1.865-2.528 0.695-0.797v-18.094c0-1.077 0.574-2.072 1.507-2.612l13.669-7.902 0.14-0.76 2.789-3.909 4.291 2.522c6e-3 4e-3 0.014 8e-3 0.021 0.013l0.029 0.016v3e-3c0.383 0.238 0.654 0.659 0.654 1.174l1e-3 22.028c0 1.112-0.594 2.139-1.558 2.695" fill="#79ff68"/></g><g transform="translate(544.87 250.67)"><path d="m0 0-18.479 10.663c-0.902 0.52-2.028-0.132-2.028-1.172v-22.12c0-1.077 0.574-2.072 1.507-2.611l18.477-10.683c0.924-0.534 2.081 0.133 2.081 1.2v22.028c0 1.112-0.594 2.139-1.558 2.695" fill="#50e85e"/></g><g transform="translate(545.73 224.74)"><path d="m0 0-0.026-0.016-3e-3 4e-3c9e-3 5e-3 0.02 7e-3 0.029 0.012" fill="#bbcee1"/></g><g transform="translate(546.43 225.94)"><path d="m0 0v22.027c0 0.371-0.087 0.724-0.211 1.062l4.286 2.469c0.114-0.327 0.195-0.665 0.195-1.021l-1e-3 -22.027c0-0.516-0.271-0.937-0.655-1.175v-2e-3l-0.028-0.017c-7e-3 -4e-3 -0.015-8e-3 -0.022-0.012l-4.253-2.501c0.402 0.234 0.689 0.666 0.689 1.197" fill="#3cc743"/></g><g transform="translate(570.04 297.17)"><path d="m0 0-18.264 10.539c-0.558 0.322-1.199 0.309-1.828-0.072h-1e-3l-4.01-2.316 1.865-2.528 0.695-0.796v-18.094c0-1.077 0.574-2.073 1.507-2.612l13.669-7.903 0.14-0.76 2.789-3.908 4.291 2.521c6e-3 5e-3 0.014 9e-3 0.021 0.013l0.029 0.017v2e-3c0.383 0.239 0.654 0.659 0.654 1.175l1e-3 22.027c0 1.112-0.594 2.14-1.558 2.695" fill="#9263c1"/></g><g transform="translate(565.77 294.66)"><path d="m0 0-18.479 10.662c-0.902 0.521-2.028-0.131-2.028-1.172v-22.119c0-1.077 0.574-2.073 1.507-2.612l18.477-10.682c0.924-0.535 2.081 0.132 2.081 1.2v22.027c0 1.112-0.594 2.14-1.558 2.696" fill="#8444b2"/></g><g transform="translate(566.62 268.74)"><path d="m0 0-0.026-0.016-3e-3 3e-3c9e-3 5e-3 0.02 7e-3 0.029 0.013" fill="#bbcee1"/></g><g transform="translate(567.32 269.94)"><path d="m0 0v22.027c0 0.371-0.087 0.723-0.211 1.061l4.286 2.469c0.114-0.326 0.195-0.664 0.195-1.021l-1e-3 -22.026c0-0.517-0.271-0.937-0.654-1.175v-3e-3l-0.029-0.017c-7e-3 -3e-3 -0.015-7e-3 -0.022-0.012l-4.253-2.5c0.402 0.234 0.689 0.666 0.689 1.197" fill="#7231a3"/></g><g transform="translate(508.96 296.85)"><path d="m0 0-18.264 10.539c-0.558 0.321-1.199 0.308-1.828-0.073v1e-3l-4.011-2.316 1.865-2.528 0.695-0.797v-18.094c0-1.077 0.574-2.073 1.507-2.612l13.67-7.902 0.139-0.761 2.789-3.908 4.291 2.522 0.021 0.012 0.029 0.017v3e-3c0.383 0.238 0.655 0.659 0.655 1.174v22.027c0 1.112-0.594 2.14-1.558 2.696" fill="#ffa8e1"/></g><g transform="translate(504.7 294.34)"><path d="m0 0-18.479 10.663c-0.902 0.52-2.028-0.132-2.028-1.173v-22.119c0-1.077 0.574-2.072 1.508-2.612l18.476-10.682c0.924-0.534 2.081 0.133 2.081 1.2v22.028c0 1.112-0.594 2.139-1.558 2.695" fill="#ff7ad2"/></g><g transform="translate(505.55 268.42)"><path d="m0 0-0.026-0.016-2e-3 4e-3c8e-3 5e-3 0.019 7e-3 0.028 0.012" fill="#bbcee1"/></g><g transform="translate(506.25 269.62)"><path d="m0 0v22.027c0 0.371-0.087 0.724-0.211 1.062l4.286 2.469c0.114-0.327 0.195-0.665 0.195-1.022v-22.026c0-0.516-0.272-0.937-0.655-1.175v-3e-3l-0.029-0.017c-7e-3 -3e-3 -0.014-7e-3 -0.022-0.011l-4.252-2.501c0.401 0.234 0.688 0.666 0.688 1.197" fill="#de64c6"/></g><g transform="translate(468.97 339.51)"><path d="m0 0-18.264 10.539c-0.558 0.322-1.199 0.308-1.828-0.073l-1e-3 1e-3 -4.01-2.316 1.865-2.528 0.695-0.796v-18.095c0-1.077 0.574-2.072 1.507-2.612l13.669-7.902 0.14-0.76 2.789-3.909 4.291 2.522c6e-3 4e-3 0.014 8e-3 0.021 0.013l0.029 0.017v2e-3c0.383 0.239 0.654 0.659 0.654 1.175l1e-3 22.027c0 1.112-0.594 2.14-1.558 2.695" fill="#fcec32"/></g><g transform="translate(464.7 337)"><path d="m0 0-18.479 10.663c-0.902 0.521-2.028-0.131-2.028-1.172v-22.12c0-1.076 0.574-2.072 1.507-2.611l18.477-10.683c0.924-0.534 2.081 0.133 2.081 1.2v22.028c0 1.112-0.594 2.14-1.558 2.695" fill="#f5d012"/></g><g transform="translate(465.56 311.08)"><path d="m0 0-0.026-0.017-3e-3 4e-3c9e-3 5e-3 0.02 7e-3 0.029 0.013" fill="#bbcee1"/></g><g transform="translate(466.26 312.28)"><path d="m0 0v22.027c0 0.371-0.087 0.724-0.211 1.062l4.286 2.469c0.114-0.327 0.195-0.665 0.195-1.021l-1e-3 -22.026c0-0.517-0.271-0.937-0.654-1.176v-2e-3l-0.029-0.017c-7e-3 -4e-3 -0.015-8e-3 -0.022-0.012l-4.253-2.501c0.402 0.234 0.689 0.666 0.689 1.197" fill="#eaa10c"/></g><g transform="translate(499.56 283.19)"><path d="m0 0c-0.722-0.41-1.664-0.279-2.605 0.265-0.943 0.543-1.883 1.5-2.599 2.74-1.433 2.48-1.425 5.158 0.017 5.976 0.72 0.411 1.664 0.28 2.605-0.264 0.942-0.543 1.883-1.5 2.599-2.74 1.432-2.478 1.424-5.155-0.017-5.977m1.488 6.815c-1.121 1.942-2.592 3.439-4.064 4.289-1.473 0.849-2.946 1.053-4.073 0.41-2.002-1.142-2.231-4.572-0.687-8.041l-5.02-2.862 1.461-2.532 5.021 2.861c0.978-1.346 2.122-2.398 3.267-3.058 1.47-0.85 2.941-1.054 4.069-0.414 2.254 1.284 2.266 5.469 0.026 9.347" fill="#fff"/></g><g transform="translate(450.01 335.1)"><path d="m0 0c0.271-0.156 0.552-0.376 0.833-0.651 0.282-0.278 0.563-0.572 0.845-0.887l0.518 1.186c-0.734 0.828-1.465 1.451-2.192 1.871-0.716 0.413-1.337 0.592-1.871 0.541-0.53-0.053-0.94-0.334-1.223-0.845-0.288-0.509-0.431-1.211-0.433-2.104-4e-3 -1.423 0.282-2.678 0.855-3.772 0.577-1.091 1.409-1.953 2.499-2.582 0.758-0.438 1.443-0.685 2.061-0.748l4e-3 1.532c-0.75 0.131-1.387 0.345-1.913 0.648-1.253 0.724-1.878 2.044-1.873 3.965 3e-3 0.924 0.169 1.547 0.498 1.874s0.794 0.318 1.392-0.028" fill="#8444b2"/></g><g transform="translate(456.13 331.55)"><path d="m0 0-1.119 0.646-7e-3 -2.296-1.983 1.145-4e-3 -1.291 1.984-1.145-7e-3 -2.267 1.119-0.646 7e-3 2.266 1.984-1.145 4e-3 1.291-1.984 1.145z" fill="#8444b2"/></g><g transform="translate(462.11 325.79)"><path d="m0 0 7e-3 2.298-1.123 0.648-7e-3 -2.297-1.981 1.143-2e-3 -1.29 1.979-1.144-6e-3 -2.266 1.123-0.649 7e-3 2.267 1.98-1.144 3e-3 1.291z" fill="#8444b2"/></g><g transform="translate(551.31 296.06)"><path d="m0 0c-0.204-0.208-0.302-0.612-0.303-1.207l-8e-3 -2.644v-0.067c-1e-3 -0.503-0.163-0.772-0.483-0.809-0.321-0.036-0.78 0.12-1.373 0.461l-5e-3 -1.839c0.593-0.342 1.051-0.718 1.371-1.13 0.32-0.411 0.479-0.891 0.477-1.437l-7e-3 -2.612c-2e-3 -0.595 0.093-1.111 0.294-1.559 0.197-0.445 0.512-0.866 0.943-1.269 0.432-0.403 1.03-0.822 1.787-1.259l5e-3 1.741c-0.491 0.302-0.821 0.598-0.997 0.89-0.176 0.298-0.26 0.641-0.259 1.04l7e-3 2.502v0.098c3e-3 1-0.545 1.907-1.654 2.738v0.097c1.095-0.447 1.646-0.139 1.665 0.918l7e-3 2.503c2e-3 0.405 0.094 0.647 0.269 0.736 0.177 0.087 0.509-5e-3 0.994-0.267l5e-3 1.742c-0.747 0.431-1.339 0.699-1.778 0.799-0.443 0.103-0.759 0.045-0.957-0.166" fill="#fff"/></g><g transform="translate(561.64 284.91)"><path d="m0 0c-0.309 0.399-0.468 0.854-0.467 1.356v0.068l8e-3 2.643c3e-3 0.853-0.22 1.583-0.678 2.198-0.453 0.612-1.237 1.236-2.357 1.883l-6e-3 -1.742c0.486-0.299 0.822-0.591 0.998-0.883 0.176-0.285 0.26-0.634 0.259-1.04l-7e-3 -2.502c0.018-1.08 0.577-2.029 1.67-2.844v-0.099c-0.545 0.217-0.962 0.261-1.245 0.123-0.289-0.14-0.435-0.455-0.436-0.958l-1e-3 -0.073-7e-3 -2.503c-1e-3 -0.404-0.086-0.656-0.263-0.744-0.177-0.082-0.514 8e-3 -0.999 0.269l-5e-3 -1.742c1.115-0.643 1.9-0.919 2.36-0.834 0.455 0.087 0.686 0.556 0.689 1.414l7e-3 2.614c1e-3 0.545 0.163 0.839 0.473 0.887 0.316 0.045 0.77-0.106 1.373-0.454l5e-3 1.84c-0.603 0.348-1.057 0.72-1.371 1.123" fill="#fff"/></g><g transform="translate(526.71 247.07)"><path d="m0 0 5.725-6.216 4e-3 1.584-3.945 4.151 3.956-0.179 5e-3 1.594-5.742 0.018z" fill="#1f5e77"/></g><g transform="translate(533.02 239.17)"><path d="m0 0 1.597-0.922 3.179 7.886-1.601 0.924z" fill="#1f5e77"/></g><g transform="translate(538.35 244.6)"><path d="m0 0-4e-3 -1.594 3.948-4.385-3.96 0.414-4e-3 -1.584 5.746-0.406 2e-3 0.952z" fill="#1f5e77"/></g><g transform="translate(420.24 276.13)"><path d="m0 0v-1.07l4.497-2.594v1.07z" fill="#f5d012"/></g><g transform="translate(420.24 274.17)"><path d="m0 0v-1.07l4.497-2.594v1.07z" fill="#edf0f8"/></g><g transform="translate(420.24 272.22)"><path d="m0 0v-1.071l4.497-2.594v1.071z" fill="#edf0f8"/></g><g transform="translate(454.18 249.62)"><path d="m0 0v1.071l-27.753 16.008v-1.071z" fill="#edf0f8"/></g><g transform="translate(420.24 270.26)"><path d="m0 0v-1.07l4.497-2.594v1.07z" fill="#edf0f8"/></g><g transform="translate(420.24 268.31)"><path d="m0 0v-1.071l4.497-2.594v1.071z" fill="#edf0f8"/></g><g transform="translate(454.18 247.66)"><path d="m0 0v1.07l-27.753 16.008v-1.07z" fill="#50e85e"/></g><g transform="translate(420.24 262.44)"><path d="m0 0v-1.07l4.497-2.594v1.07z" fill="#edf0f8"/></g><g transform="translate(420.24 260.49)"><path d="m0 0v-1.07l4.497-2.594v1.07z" fill="#f5d012"/></g><g transform="translate(420.24 252.66)"><path d="m0 0v-1.07l4.497-2.594v1.07z" fill="#edf0f8"/></g><g transform="translate(420.24 250.71)"><path d="m0 0v-1.07l4.497-2.594v1.07z" fill="#edf0f8"/></g><g transform="translate(443.93 237.04)"><path d="m0 0-17.509 10.099v-1.071l17.509-10.098z" fill="#50e85e"/></g><g transform="translate(444.85 236.51)"><path d="m0 0v-1.07l9.321-5.377v1.07z" fill="#edf0f8"/></g><g transform="translate(435.22 244.02)"><path d="m0 0-8.797 5.074v-1.07l8.797-5.074z" fill="#edf0f8"/></g><g transform="translate(436.14 243.49)"><path d="m0 0v-1.07l18.033-10.402v1.071z" fill="#edf0f8"/></g><g transform="translate(451.8 240.32)"><path d="m0 0v-1.07l2.372-1.368v1.07z" fill="#edf0f8"/></g><g transform="translate(438.89 249.73)"><path d="m0 0-12.471 7.193v-1.071l12.471-7.192z" fill="#ed5561"/></g><g transform="translate(433.78 268.32)"><path d="m0 0-7.36 4.246v-1.07l7.36-4.246z" fill="#edf0f8"/></g><g transform="translate(445.85 261.36)"><path d="m0 0-11.143 6.427v-1.071l11.143-6.426z" fill="#edf0f8"/></g><g transform="translate(439.35 263.15)"><path d="m0 0-7.845 4.525v-1.07l7.845-4.525z" fill="#edf0f8"/></g><g transform="translate(447.59 258.4)"><path d="m0 0-7.309 4.215v-1.07l7.309-4.215z" fill="#ed5561"/></g><g transform="translate(448.51 257.87)"><path d="m0 0v-1.07l5.667-3.27v1.07z" fill="#edf0f8"/></g><g transform="translate(427.87 267.82)"><path d="m0 0v-1.07l5.91-3.41v1.071z" fill="#ed5561"/></g><g transform="translate(451.86 253.98)"><path d="m0 0-17.157 9.896v-1.071l17.157-9.895z" fill="#edf0f8"/></g><g transform="translate(442.04 253.78)"><path d="m0 0-11.213 6.468v-1.071l11.213-6.467z" fill="#edf0f8"/></g><g transform="translate(451.86 248.11)"><path d="m0 0-8.899 5.133v-1.071l8.899-5.133z" fill="#edf0f8"/></g><g transform="translate(450.88 242.81)"><path d="m0 0-11.064 6.382v-1.07l11.064-6.382z" fill="#edf0f8"/></g><g transform="translate(444.85 244.33)"><path d="m0 0v-1.07l6.026-3.477v1.07z" fill="#50e85e"/></g><g transform="translate(428.59 253.71)"><path d="m0 0-2.17 1.252v-1.07l2.17-1.252z" fill="#edf0f8"/></g><g transform="translate(432.66 251.37)"><path d="m0 0v-1.07l11.273-6.502v1.07z" fill="#edf0f8"/></g><g transform="translate(431.74 251.9)"><path d="m0 0-2.22 1.28v-1.07l2.22-1.28z" fill="#edf0f8"/></g><g transform="translate(441.85 244.11)"><path d="m0 0-12.33 7.112v-1.07l12.33-7.112z" fill="#edf0f8"/></g><g transform="translate(456.13 255.42)"><path d="m0 0v-0.295l1.239-0.715v0.295z" fill="#edf0f8"/></g><g transform="translate(456.13 254.88)"><path d="m0 0v-0.295l1.239-0.715v0.295z" fill="#edf0f8"/></g><g transform="translate(456.13 254.34)"><path d="m0 0v-0.295l1.239-0.715v0.296z" fill="#edf0f8"/></g><g transform="translate(465.48 248.11)"><path d="m0 0v0.296l-7.646 4.41v-0.295z" fill="#edf0f8"/></g><g transform="translate(456.13 253.8)"><path d="m0 0v-0.296l1.239-0.714v0.295z" fill="#edf0f8"/></g><g transform="translate(456.13 253.26)"><path d="m0 0v-0.295l1.239-0.715v0.295z" fill="#edf0f8"/></g><g transform="translate(465.48 247.57)"><path d="m0 0v0.295l-7.646 4.41v-0.295z" fill="#edf0f8"/></g><g transform="translate(456.13 251.65)"><path d="m0 0v-0.296l1.239-0.714v0.295z" fill="#edf0f8"/></g><g transform="translate(456.13 251.11)"><path d="m0 0v-0.295l1.239-0.715v0.295z" fill="#edf0f8"/></g><g transform="translate(456.13 248.95)"><path d="m0 0v-0.295l1.239-0.715v0.295z" fill="#edf0f8"/></g><g transform="translate(456.13 248.41)"><path d="m0 0v-0.295l1.239-0.715v0.295z" fill="#edf0f8"/></g><g transform="translate(462.66 244.65)"><path d="m0 0-4.824 2.783v-0.295l4.824-2.783z" fill="#edf0f8"/></g><g transform="translate(462.91 244.5)"><path d="m0 0v-0.295l2.568-1.481v0.295z" fill="#edf0f8"/></g><g transform="translate(460.25 246.57)"><path d="m0 0-2.423 1.397v-0.294l2.423-1.398z" fill="#edf0f8"/></g><g transform="translate(460.51 246.42)"><path d="m0 0v-0.295l4.969-2.866v0.295z" fill="#edf0f8"/></g><g transform="translate(464.83 245.55)"><path d="m0 0v-0.295l0.653-0.377v0.295z" fill="#edf0f8"/></g><g transform="translate(461.27 248.14)"><path d="m0 0-3.436 1.981v-0.294l3.436-1.982z" fill="#edf0f8"/></g><g transform="translate(459.86 253.26)"><path d="m0 0-2.027 1.17v-0.295l2.027-1.17z" fill="#edf0f8"/></g><g transform="translate(463.18 251.35)"><path d="m0 0-3.07 1.771v-0.295l3.07-1.771z" fill="#edf0f8"/></g><g transform="translate(461.39 251.84)"><path d="m0 0-2.161 1.247v-0.295l2.161-1.247z" fill="#edf0f8"/></g><g transform="translate(463.66 250.53)"><path d="m0 0-2.014 1.161v-0.295l2.014-1.162z" fill="#edf0f8"/></g><g transform="translate(463.92 250.38)"><path d="m0 0v-0.295l1.562-0.9v0.295z" fill="#edf0f8"/></g><g transform="translate(458.23 253.13)"><path d="m0 0v-0.295l1.628-0.939v0.295z" fill="#edf0f8"/></g><g transform="translate(464.84 249.31)"><path d="m0 0-4.728 2.727v-0.295l4.728-2.728z" fill="#edf0f8"/></g><g transform="translate(462.13 249.26)"><path d="m0 0-3.09 1.782v-0.295l3.09-1.782z" fill="#edf0f8"/></g><g transform="translate(464.84 247.7)"><path d="m0 0-2.453 1.415v-0.295l2.453-1.415z" fill="#edf0f8"/></g><g transform="translate(464.57 246.24)"><path d="m0 0-3.049 1.759v-0.295l3.049-1.759z" fill="#edf0f8"/></g><g transform="translate(462.91 246.65)"><path d="m0 0v-0.295l1.66-0.958v0.295z" fill="#edf0f8"/></g><g transform="translate(458.43 249.24)"><path d="m0 0-0.598 0.346v-0.295l0.598-0.345z" fill="#edf0f8"/></g><g transform="translate(459.55 248.59)"><path d="m0 0v-0.295l3.106-1.792v0.295z" fill="#edf0f8"/></g><g transform="translate(459.29 248.74)"><path d="m0 0-0.611 0.353v-0.295l0.611-0.353z" fill="#edf0f8"/></g><g transform="translate(462.08 246.59)"><path d="m0 0-3.397 1.96v-0.296l3.397-1.959z" fill="#edf0f8"/></g><g transform="translate(456.13 246.3)"><path d="m0 0v-0.295l1.239-0.715v0.295z" fill="#edf0f8"/></g><g transform="translate(456.13 245.76)"><path d="m0 0v-0.295l1.239-0.715v0.295z" fill="#edf0f8"/></g><g transform="translate(456.13 245.22)"><path d="m0 0v-0.295l1.239-0.714v0.295z" fill="#edf0f8"/></g><g transform="translate(465.48 238.99)"><path d="m0 0v0.295l-7.646 4.41v-0.295z" fill="#edf0f8"/></g><g transform="translate(456.13 244.68)"><path d="m0 0v-0.295l1.239-0.715v0.295z" fill="#edf0f8"/></g><g transform="translate(456.13 244.14)"><path d="m0 0v-0.295l1.239-0.715v0.295z" fill="#edf0f8"/></g><g transform="translate(465.48 238.46)"><path d="m0 0v0.295l-7.646 4.411v-0.296z" fill="#edf0f8"/></g><g transform="translate(456.13 242.53)"><path d="m0 0v-0.295l1.239-0.715v0.295z" fill="#edf0f8"/></g><g transform="translate(456.13 241.99)"><path d="m0 0v-0.295l1.239-0.715v0.295z" fill="#edf0f8"/></g><g transform="translate(456.13 239.83)"><path d="m0 0v-0.295l1.239-0.715v0.295z" fill="#edf0f8"/></g><g transform="translate(456.13 239.29)"><path d="m0 0v-0.295l1.239-0.715v0.295z" fill="#edf0f8"/></g><g transform="translate(462.66 235.53)"><path d="m0 0-4.824 2.783v-0.295l4.824-2.783z" fill="#edf0f8"/></g><g transform="translate(462.91 235.38)"><path d="m0 0v-0.295l2.568-1.481v0.295z" fill="#edf0f8"/></g><g transform="translate(460.25 237.45)"><path d="m0 0-2.423 1.398v-0.295l2.423-1.398z" fill="#edf0f8"/></g><g transform="translate(460.51 237.31)"><path d="m0 0v-0.295l4.969-2.866v0.295z" fill="#edf0f8"/></g><g transform="translate(464.83 236.43)"><path d="m0 0v-0.295l0.653-0.377v0.295z" fill="#edf0f8"/></g><g transform="translate(461.27 239.02)"><path d="m0 0-3.436 1.981v-0.294l3.436-1.982z" fill="#edf0f8"/></g><g transform="translate(459.86 244.15)"><path d="m0 0-2.027 1.169v-0.295l2.027-1.169z" fill="#edf0f8"/></g><g transform="translate(463.18 242.23)"><path d="m0 0-3.07 1.771v-0.295l3.07-1.771z" fill="#edf0f8"/></g><g transform="translate(461.39 242.72)"><path d="m0 0-2.161 1.247v-0.295l2.161-1.247z" fill="#edf0f8"/></g><g transform="translate(463.66 241.41)"><path d="m0 0-2.014 1.161v-0.295l2.014-1.161z" fill="#edf0f8"/></g><g transform="translate(463.92 241.27)"><path d="m0 0v-0.295l1.562-0.9v0.295z" fill="#edf0f8"/></g><g transform="translate(458.23 244.01)"><path d="m0 0v-0.295l1.628-0.939v0.295z" fill="#edf0f8"/></g><g transform="translate(464.84 240.2)"><path d="m0 0-4.728 2.727v-0.295l4.728-2.727z" fill="#edf0f8"/></g><g transform="translate(462.13 240.14)"><path d="m0 0-3.09 1.782v-0.295l3.09-1.782z" fill="#edf0f8"/></g><g transform="translate(464.84 238.58)"><path d="m0 0-2.453 1.415v-0.295l2.453-1.415z" fill="#edf0f8"/></g><g transform="translate(464.57 237.12)"><path d="m0 0-3.049 1.759v-0.295l3.049-1.759z" fill="#edf0f8"/></g><g transform="translate(462.91 237.54)"><path d="m0 0v-0.295l1.66-0.958v0.295z" fill="#edf0f8"/></g><g transform="translate(458.43 240.12)"><path d="m0 0-0.598 0.345v-0.295l0.598-0.345z" fill="#edf0f8"/></g><g transform="translate(459.55 239.48)"><path d="m0 0v-0.295l3.106-1.792v0.295z" fill="#edf0f8"/></g><g transform="translate(459.29 239.62)"><path d="m0 0-0.611 0.353v-0.295l0.611-0.353z" fill="#edf0f8"/></g><g transform="translate(462.08 237.48)"><path d="m0 0-3.397 1.96v-0.295l3.397-1.96z" fill="#edf0f8"/></g><g transform="translate(456.13 237.18)"><path d="m0 0v-0.295l1.239-0.715v0.295z" fill="#edf0f8"/></g><g transform="translate(456.13 236.64)"><path d="m0 0v-0.295l1.239-0.715v0.295z" fill="#edf0f8"/></g><g transform="translate(456.13 236.1)"><path d="m0 0v-0.295l1.239-0.714v0.295z" fill="#edf0f8"/></g><g transform="translate(465.48 229.88)"><path d="m0 0v0.295l-7.646 4.41v-0.295z" fill="#edf0f8"/></g><g transform="translate(456.13 235.57)"><path d="m0 0v-0.295l1.239-0.715v0.295z" fill="#edf0f8"/></g><g transform="translate(456.13 235.03)"><path d="m0 0v-0.295l1.239-0.715v0.295z" fill="#edf0f8"/></g><g transform="translate(465.48 229.34)"><path d="m0 0v0.295l-7.646 4.411v-0.295z" fill="#edf0f8"/></g><g transform="translate(456.13 233.41)"><path d="m0 0v-0.295l1.239-0.715v0.295z" fill="#edf0f8"/></g><g transform="translate(456.13 232.87)"><path d="m0 0v-0.295l1.239-0.715v0.295z" fill="#edf0f8"/></g><g transform="translate(456.13 230.72)"><path d="m0 0v-0.295l1.239-0.715v0.295z" fill="#edf0f8"/></g><g transform="translate(456.13 230.18)"><path d="m0 0v-0.295l1.239-0.715v0.295z" fill="#edf0f8"/></g><g transform="translate(462.66 226.41)"><path d="m0 0-4.824 2.783v-0.295l4.824-2.783z" fill="#edf0f8"/></g><g transform="translate(462.91 226.27)"><path d="m0 0v-0.295l2.568-1.481v0.295z" fill="#edf0f8"/></g><g transform="translate(460.25 228.34)"><path d="m0 0-2.423 1.398v-0.294l2.423-1.399z" fill="#edf0f8"/></g><g transform="translate(460.51 228.19)"><path d="m0 0v-0.295l4.969-2.866v0.295z" fill="#edf0f8"/></g><g transform="translate(464.83 227.32)"><path d="m0 0v-0.295l0.653-0.377v0.295z" fill="#edf0f8"/></g><g transform="translate(461.27 229.91)"><path d="m0 0-3.436 1.982v-0.295l3.436-1.982z" fill="#edf0f8"/></g><g transform="translate(459.86 235.03)"><path d="m0 0-2.027 1.17v-0.295l2.027-1.17z" fill="#edf0f8"/></g><g transform="translate(463.18 233.11)"><path d="m0 0-3.07 1.771v-0.295l3.07-1.771z" fill="#edf0f8"/></g><g transform="translate(461.39 233.61)"><path d="m0 0-2.161 1.247v-0.295l2.161-1.247z" fill="#edf0f8"/></g><g transform="translate(463.66 232.3)"><path d="m0 0-2.014 1.161v-0.295l2.014-1.161z" fill="#edf0f8"/></g><g transform="translate(463.92 232.15)"><path d="m0 0v-0.296l1.562-0.9v0.295z" fill="#edf0f8"/></g><g transform="translate(458.23 234.89)"><path d="m0 0v-0.295l1.628-0.939v0.295z" fill="#edf0f8"/></g><g transform="translate(464.84 231.08)"><path d="m0 0-4.728 2.727v-0.295l4.728-2.727z" fill="#edf0f8"/></g><g transform="translate(462.13 231.02)"><path d="m0 0-3.09 1.782v-0.295l3.09-1.782z" fill="#edf0f8"/></g><g transform="translate(464.84 229.46)"><path d="m0 0-2.453 1.414v-0.295l2.453-1.414z" fill="#edf0f8"/></g><g transform="translate(464.57 228)"><path d="m0 0-3.049 1.759v-0.295l3.049-1.759z" fill="#edf0f8"/></g><g transform="translate(462.91 228.42)"><path d="m0 0v-0.295l1.66-0.958v0.295z" fill="#edf0f8"/></g><g transform="translate(458.43 231.01)"><path d="m0 0-0.598 0.345v-0.295l0.598-0.345z" fill="#edf0f8"/></g><g transform="translate(459.55 230.36)"><path d="m0 0v-0.295l3.106-1.792v0.295z" fill="#edf0f8"/></g><g transform="translate(459.29 230.51)"><path d="m0 0-0.611 0.354v-0.296l0.611-0.353z" fill="#edf0f8"/></g><g transform="translate(462.08 228.36)"><path d="m0 0-3.397 1.96v-0.295l3.397-1.96z" fill="#edf0f8"/></g><g transform="translate(456.13 228.07)"><path d="m0 0v-0.295l1.239-0.715v0.295z" fill="#edf0f8"/></g><g transform="translate(456.13 227.53)"><path d="m0 0v-0.295l1.239-0.715v0.296z" fill="#edf0f8"/></g><g transform="translate(456.13 226.99)"><path d="m0 0v-0.295l1.239-0.715v0.295z" fill="#edf0f8"/></g><g transform="translate(465.48 220.76)"><path d="m0 0v0.295l-7.646 4.41v-0.295z" fill="#edf0f8"/></g><g transform="translate(456.13 226.45)"><path d="m0 0v-0.295l1.239-0.715v0.295z" fill="#edf0f8"/></g><g transform="translate(456.13 225.91)"><path d="m0 0v-0.295l1.239-0.715v0.295z" fill="#edf0f8"/></g><g transform="translate(465.48 220.22)"><path d="m0 0v0.295l-7.646 4.411v-0.295z" fill="#edf0f8"/></g><g transform="translate(456.13 224.29)"><path d="m0 0v-0.295l1.239-0.715v0.295z" fill="#edf0f8"/></g><g transform="translate(456.13 223.75)"><path d="m0 0v-0.295l1.239-0.715v0.295z" fill="#edf0f8"/></g><g transform="translate(464.83 218.2)"><path d="m0 0v-0.295l0.653-0.377v0.295z" fill="#edf0f8"/></g><g transform="translate(461.27 220.79)"><path d="m0 0-3.436 1.982v-0.295l3.436-1.982z" fill="#edf0f8"/></g><g transform="translate(459.86 225.91)"><path d="m0 0-2.027 1.17v-0.295l2.027-1.17z" fill="#edf0f8"/></g><g transform="translate(463.18 223.99)"><path d="m0 0-3.07 1.771v-0.294l3.07-1.772z" fill="#edf0f8"/></g><g transform="translate(461.39 224.49)"><path d="m0 0-2.161 1.247v-0.295l2.161-1.247z" fill="#edf0f8"/></g><g transform="translate(463.66 223.18)"><path d="m0 0-2.014 1.161v-0.295l2.014-1.161z" fill="#edf0f8"/></g><g transform="translate(463.92 223.03)"><path d="m0 0v-0.295l1.562-0.901v0.295z" fill="#edf0f8"/></g><g transform="translate(458.23 225.77)"><path d="m0 0v-0.295l1.628-0.939v0.295z" fill="#edf0f8"/></g><g transform="translate(464.84 221.96)"><path d="m0 0-4.728 2.727v-0.295l4.728-2.727z" fill="#edf0f8"/></g><g transform="translate(462.13 221.91)"><path d="m0 0-3.09 1.782v-0.295l3.09-1.782z" fill="#edf0f8"/></g><g transform="translate(464.84 220.35)"><path d="m0 0-2.453 1.414v-0.295l2.453-1.414z" fill="#edf0f8"/></g><g transform="translate(464.57 218.88)"><path d="m0 0-3.049 1.759v-0.295l3.049-1.759z" fill="#edf0f8"/></g><g transform="translate(462.91 219.3)"><path d="m0 0v-0.295l1.66-0.957v0.295z" fill="#edf0f8"/></g><g transform="translate(458.43 221.89)"><path d="m0 0-0.598 0.345v-0.295l0.598-0.345z" fill="#edf0f8"/></g><g transform="translate(459.55 221.24)"><path d="m0 0v-0.295l3.106-1.792v0.296z" fill="#edf0f8"/></g><g transform="translate(459.29 221.39)"><path d="m0 0-0.611 0.354v-0.295l0.611-0.354z" fill="#edf0f8"/></g><g transform="translate(462.08 219.24)"><path d="m0 0-3.397 1.96v-0.295l3.397-1.96z" fill="#edf0f8"/></g><g transform="translate(417.36 277.79)"><path d="m0 0-1.482 0.854c-0.073 0.042-0.163-0.01-0.163-0.093v-1.774c0-0.087 0.046-0.166 0.121-0.21l1.481-0.856c0.074-0.043 0.167 0.011 0.167 0.097v1.765c0 0.09-0.047 0.172-0.124 0.217" fill="#50e85e"/></g><g transform="translate(417.36 275.14)"><path d="m0 0-1.482 0.854c-0.073 0.042-0.163-9e-3 -0.163-0.093v-1.774c0-0.086 0.046-0.166 0.121-0.21l1.481-0.856c0.074-0.042 0.167 0.011 0.167 0.097v1.766c0 0.089-0.047 0.171-0.124 0.216" fill="#50e85e"/></g><g transform="translate(417.36 272.49)"><path d="m0 0-1.482 0.855c-0.073 0.041-0.163-0.01-0.163-0.094v-1.774c0-0.086 0.046-0.166 0.121-0.209l1.481-0.856c0.074-0.043 0.167 0.011 0.167 0.096v1.766c0 0.089-0.047 0.171-0.124 0.216" fill="#50e85e"/></g><g transform="translate(417.36 269.83)"><path d="m0 0-1.482 0.855c-0.073 0.041-0.163-0.01-0.163-0.093v-1.775c0-0.086 0.046-0.166 0.121-0.209l1.481-0.856c0.074-0.043 0.167 0.011 0.167 0.096v1.766c0 0.089-0.047 0.172-0.124 0.216" fill="#50e85e"/></g><g transform="translate(417.36 267.18)"><path d="m0 0-1.482 0.855c-0.073 0.042-0.163-0.01-0.163-0.093v-1.774c0-0.087 0.046-0.167 0.121-0.21l1.481-0.856c0.074-0.043 0.167 0.011 0.167 0.097v1.765c0 0.089-0.047 0.172-0.124 0.216" fill="#50e85e"/></g><g transform="translate(417.36 264.53)"><path d="m0 0-1.482 0.854c-0.073 0.042-0.163-0.01-0.163-0.093v-1.774c0-0.087 0.046-0.167 0.121-0.21l1.481-0.856c0.074-0.043 0.167 0.011 0.167 0.097v1.765c0 0.09-0.047 0.172-0.124 0.217" fill="#50e85e"/></g><g transform="translate(417.36 261.87)"><path d="m0 0-1.482 0.854c-0.073 0.042-0.163-0.01-0.163-0.093v-1.774c0-0.087 0.046-0.166 0.121-0.21l1.481-0.856c0.074-0.043 0.167 0.011 0.167 0.097v1.765c0 0.09-0.047 0.172-0.124 0.217" fill="#50e85e"/></g><g transform="translate(417.36 259.22)"><path d="m0 0-1.482 0.854c-0.073 0.042-0.163-9e-3 -0.163-0.093v-1.774c0-0.086 0.046-0.166 0.121-0.209l1.481-0.857c0.074-0.042 0.167 0.011 0.167 0.097v1.766c0 0.089-0.047 0.171-0.124 0.216" fill="#50e85e"/></g><g transform="translate(417.36 256.57)"><path d="m0 0-1.482 0.855c-0.073 0.041-0.163-0.01-0.163-0.094v-1.774c0-0.086 0.046-0.166 0.121-0.209l1.481-0.856c0.074-0.043 0.167 0.011 0.167 0.096v1.766c0 0.089-0.047 0.171-0.124 0.216" fill="#50e85e"/></g><g transform="translate(417.36 253.91)"><path d="m0 0-1.482 0.855c-0.073 0.041-0.163-0.01-0.163-0.093v-1.775c0-0.086 0.046-0.166 0.121-0.209l1.481-0.856c0.074-0.043 0.167 0.011 0.167 0.096v1.766c0 0.089-0.047 0.172-0.124 0.216" fill="#50e85e"/></g><g transform="translate(417.36 251.26)"><path d="m0 0-1.482 0.855c-0.073 0.042-0.163-0.01-0.163-0.093v-1.774c0-0.087 0.046-0.167 0.121-0.21l1.481-0.856c0.074-0.043 0.167 0.011 0.167 0.097v1.765c0 0.089-0.047 0.172-0.124 0.216" fill="#50e85e"/></g><g transform="translate(417.36 248.61)"><path d="m0 0-1.482 0.854c-0.073 0.042-0.163-0.01-0.163-0.093v-1.774c0-0.087 0.046-0.167 0.121-0.21l1.481-0.856c0.074-0.043 0.167 0.011 0.167 0.097v1.765c0 0.09-0.047 0.172-0.124 0.217" fill="#50e85e"/></g><g clip-path="url(#c)" opacity=".39999"><g transform="translate(486.96 268.39)"><path d="m0 0v-1.071l4.496-2.594v1.071z" fill="#fff"/></g><g transform="translate(486.96 266.43)"><path d="m0 0v-1.07l4.496-2.594v1.07z" fill="#fff"/></g><g transform="translate(486.96 264.48)"><path d="m0 0v-1.07l4.496-2.594v1.07z" fill="#fff"/></g><g transform="translate(520.89 241.88)"><path d="m0 0v1.07l-27.753 16.008v-1.07z" fill="#fff"/></g><g transform="translate(486.96 262.52)"><path d="m0 0v-1.07l4.496-2.594v1.07z" fill="#fff"/></g><g transform="translate(486.96 260.57)"><path d="m0 0v-1.07l4.496-2.594v1.07z" fill="#fff"/></g><g transform="translate(520.89 239.92)"><path d="m0 0v1.07l-27.753 16.008v-1.07z" fill="#fff"/></g><g transform="translate(486.96 254.7)"><path d="m0 0v-1.071l4.496-2.594v1.071z" fill="#fff"/></g><g transform="translate(486.96 252.75)"><path d="m0 0v-1.07l4.496-2.594v1.07z" fill="#fff"/></g><g transform="translate(486.96 244.92)"><path d="m0 0v-1.071l4.496-2.594v1.071z" fill="#fff"/></g><g transform="translate(486.96 242.97)"><path d="m0 0v-1.07l4.496-2.594v1.07z" fill="#fff"/></g><g transform="translate(510.65 229.3)"><path d="m0 0-17.509 10.1v-1.072l17.509-10.098z" fill="#fff"/></g><g transform="translate(511.57 228.77)"><path d="m0 0v-1.07l9.321-5.376v1.07z" fill="#fff"/></g><g transform="translate(501.94 236.28)"><path d="m0 0-8.797 5.073v-1.07l8.797-5.074z" fill="#fff"/></g><g transform="translate(502.86 235.75)"><path d="m0 0v-1.07l18.033-10.402v1.071z" fill="#fff"/></g><g transform="translate(518.52 232.58)"><path d="m0 0v-1.071l2.372-1.368v1.07z" fill="#fff"/></g><g transform="translate(505.61 241.99)"><path d="m0 0-12.471 7.193v-1.07l12.471-7.193z" fill="#fff"/></g><g transform="translate(500.5 260.58)"><path d="m0 0-7.36 4.245v-1.07l7.36-4.246z" fill="#fff"/></g><g transform="translate(512.56 253.62)"><path d="m0 0-11.143 6.428v-1.072l11.143-6.426z" fill="#fff"/></g><g transform="translate(506.07 255.41)"><path d="m0 0-7.845 4.524v-1.07l7.845-4.525z" fill="#fff"/></g><g transform="translate(514.3 250.66)"><path d="m0 0-7.308 4.216v-1.071l7.308-4.215z" fill="#fff"/></g><g transform="translate(515.22 250.13)"><path d="m0 0v-1.07l5.668-3.27v1.071z" fill="#fff"/></g><g transform="translate(494.59 260.08)"><path d="m0 0v-1.07l5.91-3.409v1.07z" fill="#fff"/></g><g transform="translate(518.58 246.24)"><path d="m0 0-17.157 9.896v-1.07l17.157-9.896z" fill="#fff"/></g><g transform="translate(508.76 246.04)"><path d="m0 0-11.212 6.467v-1.071l11.212-6.467z" fill="#fff"/></g><g transform="translate(518.58 240.37)"><path d="m0 0-8.9 5.134v-1.072l8.9-5.132z" fill="#fff"/></g><g transform="translate(517.6 235.07)"><path d="m0 0-11.064 6.382v-1.07l11.064-6.382z" fill="#fff"/></g><g transform="translate(511.57 236.59)"><path d="m0 0v-1.07l6.026-3.477v1.071z" fill="#fff"/></g><g transform="translate(495.31 245.97)"><path d="m0 0-2.17 1.251v-1.07l2.17-1.252z" fill="#fff"/></g><g transform="translate(499.37 243.63)"><path d="m0 0v-1.071l11.273-6.502v1.07z" fill="#fff"/></g><g transform="translate(498.45 244.16)"><path d="m0 0-2.22 1.28v-1.071l2.22-1.279z" fill="#fff"/></g><g transform="translate(508.56 236.37)"><path d="m0 0-12.33 7.112v-1.07l12.33-7.112z" fill="#fff"/></g></g><g clip-path="url(#b)" opacity=".39999"><g transform="translate(528.29 335.41)"><path d="m0 0v-1.07l4.497-2.594v1.07z" fill="#fff"/></g><g transform="translate(528.29 333.45)"><path d="m0 0v-1.07l4.497-2.594v1.07z" fill="#fff"/></g><g transform="translate(528.29 331.5)"><path d="m0 0v-1.071l4.497-2.594v1.071z" fill="#fff"/></g><g transform="translate(562.23 308.89)"><path d="m0 0v1.071l-27.753 16.008v-1.071z" fill="#fff"/></g><g transform="translate(528.29 329.54)"><path d="m0 0v-1.07l4.497-2.594v1.07z" fill="#fff"/></g><g transform="translate(528.29 327.58)"><path d="m0 0v-1.071l4.497-2.594v1.071z" fill="#fff"/></g><g transform="translate(562.23 306.94)"><path d="m0 0v1.07l-27.753 16.008v-1.07z" fill="#fff"/></g><g transform="translate(528.29 321.72)"><path d="m0 0v-1.07l4.497-2.594v1.07z" fill="#fff"/></g><g transform="translate(528.29 319.76)"><path d="m0 0v-1.07l4.497-2.594v1.07z" fill="#fff"/></g><g transform="translate(528.29 311.94)"><path d="m0 0v-1.07l4.497-2.594v1.07z" fill="#fff"/></g><g transform="translate(528.29 309.98)"><path d="m0 0v-1.07l4.497-2.594v1.07z" fill="#fff"/></g><g transform="translate(551.98 296.32)"><path d="m0 0-17.509 10.099v-1.071l17.509-10.098z" fill="#fff"/></g><g transform="translate(552.91 295.79)"><path d="m0 0v-1.07l9.321-5.377v1.07z" fill="#fff"/></g><g transform="translate(543.27 303.3)"><path d="m0 0-8.797 5.074v-1.07l8.797-5.074z" fill="#fff"/></g><g transform="translate(544.19 302.77)"><path d="m0 0v-1.07l18.033-10.402v1.071z" fill="#fff"/></g><g transform="translate(559.86 299.6)"><path d="m0 0v-1.07l2.372-1.368v1.07z" fill="#fff"/></g><g transform="translate(546.95 309)"><path d="m0 0-12.471 7.193v-1.071l12.471-7.192z" fill="#fff"/></g><g transform="translate(541.84 327.59)"><path d="m0 0-7.36 4.246v-1.07l7.36-4.246z" fill="#fff"/></g><g transform="translate(553.9 320.63)"><path d="m0 0-11.143 6.427v-1.071l11.143-6.426z" fill="#fff"/></g><g transform="translate(547.41 322.42)"><path d="m0 0-7.845 4.525v-1.07l7.845-4.525z" fill="#fff"/></g><g transform="translate(555.64 317.68)"><path d="m0 0-7.309 4.215v-1.07l7.309-4.215z" fill="#fff"/></g><g transform="translate(556.56 317.15)"><path d="m0 0v-1.07l5.667-3.27v1.07z" fill="#fff"/></g><g transform="translate(535.92 327.09)"><path d="m0 0v-1.07l5.91-3.41v1.071z" fill="#fff"/></g><g transform="translate(559.92 313.25)"><path d="m0 0-17.157 9.896v-1.071l17.157-9.895z" fill="#fff"/></g><g transform="translate(550.09 313.05)"><path d="m0 0-11.213 6.468v-1.071l11.213-6.467z" fill="#fff"/></g><g transform="translate(559.92 307.39)"><path d="m0 0-8.899 5.133v-1.071l8.899-5.133z" fill="#fff"/></g><g transform="translate(558.93 302.09)"><path d="m0 0-11.064 6.382v-1.07l11.064-6.382z" fill="#fff"/></g><g transform="translate(552.91 303.61)"><path d="m0 0v-1.07l6.026-3.477v1.07z" fill="#fff"/></g><g transform="translate(536.65 312.99)"><path d="m0 0-2.171 1.252v-1.07l2.171-1.252z" fill="#fff"/></g><g transform="translate(540.71 310.64)"><path d="m0 0v-1.07l11.273-6.502v1.07z" fill="#fff"/></g><g transform="translate(539.79 311.18)"><path d="m0 0-2.219 1.279v-1.07l2.219-1.28z" fill="#fff"/></g><g transform="translate(549.9 303.39)"><path d="m0 0-12.329 7.112v-1.07l12.329-7.112z" fill="#fff"/></g></g><g transform="translate(447 197.99)"><path d="m0 0s-2.535 1.133-5.516-0.842c-2.981-1.974-4.989-4.736-3.777-5.753 1.212-1.016 3.568-2.106 5.097-1.558s9.089 4.995 4.196 8.153" fill="#0f4463"/></g><g transform="translate(509.91 209.67)"><path d="m0 0-23.56-13.347-15.014 8.686 23.556 13.344z" fill="#ed5561"/></g><g transform="translate(490.96 196.64)"><path d="m0 0v-0.525l23.56 13.487v0.385z" fill="#f0cec9"/></g><g transform="translate(514.52 209.99)"><path d="m0 0-23.56-13.347-15.014 8.686 23.557 13.343z" fill="#fffbf0"/></g><g transform="translate(490.96 196.64)"><path d="m0 0v-0.525l-15.015 8.686v0.525z" fill="#f5ddd8"/></g><g transform="translate(499.34 217.24)"><path d="m0 0 9.071-5.231-0.397-0.225-9.071 5.231z" fill="#dfbab8"/></g><g transform="translate(498.4 216.71)"><path d="m0 0 9.071-5.231-0.397-0.225-9.071 5.231z" fill="#dfbab8"/></g><g transform="translate(496.21 215.47)"><path d="m0 0 12.491-7.21-0.397-0.225-12.491 7.209z" fill="#dfbab8"/></g><g transform="translate(495.34 214.98)"><path d="m0 0 12.491-7.21-0.397-0.226-12.491 7.21z" fill="#dfbab8"/></g><g transform="translate(494.48 214.49)"><path d="m0 0 12.491-7.21-0.397-0.225-12.491 7.21z" fill="#dfbab8"/></g><g transform="translate(493.61 214)"><path d="m0 0 12.491-7.21-0.397-0.226-12.491 7.21z" fill="#dfbab8"/></g><g transform="translate(492.75 213.51)"><path d="m0 0 12.491-7.21-0.398-0.225-12.491 7.209z" fill="#dfbab8"/></g><g transform="translate(491.88 213.02)"><path d="m0 0 12.491-7.211-0.397-0.225-12.491 7.21z" fill="#dfbab8"/></g><g transform="translate(491.02 212.52)"><path d="m0 0 12.491-7.21-0.397-0.225-12.491 7.209z" fill="#dfbab8"/></g><g transform="translate(490.15 212.03)"><path d="m0 0 12.491-7.209-0.397-0.226-12.491 7.21z" fill="#dfbab8"/></g><g transform="translate(489.29 211.54)"><path d="m0 0 12.491-7.21-0.397-0.225-12.491 7.209z" fill="#dfbab8"/></g><g transform="translate(488.42 211.05)"><path d="m0 0 12.491-7.209-0.397-0.226-12.491 7.21z" fill="#dfbab8"/></g><g transform="translate(487.56 210.56)"><path d="m0 0 12.491-7.21-0.397-0.225-12.491 7.209z" fill="#dfbab8"/></g><g transform="translate(486.7 210.07)"><path d="m0 0 12.491-7.21-0.397-0.225-12.491 7.21z" fill="#dfbab8"/></g><g transform="translate(485.83 209.58)"><path d="m0 0 12.491-7.21-0.397-0.225-12.491 7.209z" fill="#dfbab8"/></g><g transform="translate(484.97 209.09)"><path d="m0 0 12.491-7.21-0.397-0.225-12.491 7.21z" fill="#dfbab8"/></g><g transform="translate(484.1 208.6)"><path d="m0 0 12.491-7.21-0.397-0.226-12.491 7.21z" fill="#dfbab8"/></g><g transform="translate(473.92 201.9)"><path d="m0 0h-2.203v-2.376h2.203c0.819 0 1.486-0.667 1.486-1.485v-3.863c0-0.819-0.667-1.486-1.486-1.486h-3.23v-2.376h3.23c2.13 0 3.862 1.732 3.862 3.862v3.863c0 2.129-1.732 3.861-3.862 3.861" fill="#a7bcce"/></g><g transform="translate(473.09 203.21)"><path d="m0 0v-13.383c0-2.074-3.092-3.756-6.907-3.756s-6.907 1.682-6.907 3.756v13.383z" fill="#bbcee1"/></g><g transform="translate(459.28 203.21)"><path d="m0 0c0-2.074 3.093-3.756 6.907-3.756 3.816 0 6.907 1.682 6.907 3.756 0 2.073-3.091 3.755-6.907 3.755-3.814 0-6.907-1.682-6.907-3.755" fill="#fff"/></g><g transform="translate(460.66 203.26)"><path d="m0 0c0-1.622 2.477-2.938 5.531-2.938 3.056 0 5.532 1.316 5.532 2.938s-2.476 2.937-5.532 2.937c-3.054 0-5.531-1.315-5.531-2.937" fill="#a7bcce"/></g><g transform="translate(466.19 204.27)"><path d="m0 0c-2.42 0-4.472-0.826-5.223-1.976 0.751-1.15 2.803-1.976 5.223-1.976 2.421 0 4.473 0.826 5.224 1.976-0.751 1.15-2.803 1.976-5.224 1.976" fill="#9d4d36"/></g><g transform="translate(468.8 199.73)"><path d="m0 0v-13.383c1.355 0.302 2.491 0.831 3.255 1.501v13.383c-0.764-0.67-1.9-1.199-3.255-1.501" fill="#a7bcce"/></g></g></g></g></svg>
