<?xml version="1.0" encoding="UTF-8" standalone="no"?><svg id="svg2" xmlns:rdf="http://www.w3.org/1999/02/22-rdf-syntax-ns#" xmlns="http://www.w3.org/2000/svg" xmlns:osb="http://www.openswatchbook.org/uri/2009/osb" xml:space="preserve" height="114mm" viewBox="0 0 612.2835 430.86614" width="162mm" version="1.1" xmlns:cc="http://creativecommons.org/ns#" xmlns:xlink="http://www.w3.org/1999/xlink" xmlns:dc="http://purl.org/dc/elements/1.1/"><metadata id="metadata8"><rdf:RDF><cc:Work rdf:about=""><dc:format>image/svg+xml</dc:format><dc:type rdf:resource="http://purl.org/dc/dcmitype/StillImage"/><dc:title/></cc:Work></rdf:RDF></metadata><defs id="defs6"><clipPath id="clipPath1178" clipPathUnits="userSpaceOnUse"><path id="path1176" d="m0 500h750v-500h-750z"/></clipPath><clipPath id="clipPath1186" clipPathUnits="userSpaceOnUse"><path id="path1184" d="m459.24 328.9h33.937v-46.067h-33.937z"/></clipPath><clipPath id="clipPath1326" clipPathUnits="userSpaceOnUse"><path id="path1324" d="m464.57 357.41h28.607v-42.26h-28.607z"/></clipPath><clipPath id="clipPath1410" clipPathUnits="userSpaceOnUse"><path id="path1408" d="m417.45 341.2h16.633v-27.859h-16.633z"/></clipPath><clipPath id="clipPath1454" clipPathUnits="userSpaceOnUse"><path id="path1452" d="m383.6 318.11h33.936v-46.066h-33.936z"/></clipPath><clipPath id="clipPath1594" clipPathUnits="userSpaceOnUse"><path id="path1592" d="m502.24 312.37h16.63v-27.86h-16.63z"/></clipPath><clipPath id="clipPath1610" clipPathUnits="userSpaceOnUse"><path id="path1608" d="m521.26 344.6h16.633v-27.859h-16.633z"/></clipPath><clipPath id="clipPath1626" clipPathUnits="userSpaceOnUse"><path id="path1624" d="m564.27 257.42h16.633v-27.86h-16.63z"/></clipPath><clipPath id="clipPath1642" clipPathUnits="userSpaceOnUse"><path id="path1640" d="m443.03 298.44h16.633v-27.859h-16.633z"/></clipPath><clipPath id="clipPath2094" clipPathUnits="userSpaceOnUse"><path id="path2092" d="m413.42 244.28 54.852-31.942 0.001 40.366-54.853 31.814z"/></clipPath><clipPath id="clipPath2116" clipPathUnits="userSpaceOnUse"><path id="path2114" d="m0 500h750v-500h-750z"/></clipPath><clipPath id="clipPath3036" clipPathUnits="userSpaceOnUse"><path id="path3034" d="m486.96 268.39h33.936v-46.067h-33.936z"/></clipPath><clipPath id="clipPath3176" clipPathUnits="userSpaceOnUse"><path id="path3174" d="m528.29 335.41h33.937v-46.07h-33.937z"/></clipPath><linearGradient id="linearGradient2097" gradientUnits="userSpaceOnUse" gradientTransform="matrix(17.262 56.799 56.799 -17.262 433.71 224.97)"><stop id="stop2100" stop-color="#1c75bc" offset="0"/><stop id="stop2102" stop-color="#1c75bc" offset=".52466"/><stop id="stop2104" stop-color="#5394bc" offset="1"/></linearGradient></defs><g id="g10" transform="matrix(1.3333 0 0 -1.3333 0 430.87)"><g id="g1172" transform="matrix(1.4992 0 0 1.4046 -485.09 -173.42)"><g id="g1174" clip-path="url(#clipPath1178)"><g id="g1180"><g id="g1318"><g id="g1316" opacity=".39999" clip-path="url(#clipPath1186)"><g id="g1190" transform="translate(459.24 328.9)"><path id="path1188" d="m0 0v-1.07l4.497-2.594v1.07z" fill="#fff"/></g><g id="g1194" transform="translate(459.24 326.94)"><path id="path1192" d="m0 0v-1.07l4.497-2.594v1.07z" fill="#fff"/></g><g id="g1198" transform="translate(459.24 324.98)"><path id="path1196" d="m0 0v-1.07l4.497-2.594v1.07z" fill="#fff"/></g><g id="g1202" transform="translate(493.18 302.38)"><path id="path1200" d="m0 0v1.07l-27.752 16.008v-1.07z" fill="#fff"/></g><g id="g1206" transform="translate(459.24 323.03)"><path id="path1204" d="m0 0v-1.071l4.497-2.594v1.071z" fill="#fff"/></g><g id="g1210" transform="translate(459.24 321.07)"><path id="path1208" d="m0 0v-1.07l4.497-2.594v1.07z" fill="#fff"/></g><g id="g1214" transform="translate(493.18 300.43)"><path id="path1212" d="m0 0v1.071l-27.752 16.008v-1.071z" fill="#fff"/></g><g id="g1218" transform="translate(459.24 315.21)"><path id="path1216" d="m0 0v-1.07l4.497-2.594v1.07z" fill="#fff"/></g><g id="g1222" transform="translate(459.24 313.25)"><path id="path1220" d="m0 0v-1.07l4.497-2.594v1.071z" fill="#fff"/></g><g id="g1226" transform="translate(459.24 305.43)"><path id="path1224" d="m0 0v-1.07l4.497-2.594v1.07z" fill="#fff"/></g><g id="g1230" transform="translate(459.24 303.47)"><path id="path1228" d="m0 0v-1.07l4.497-2.594v1.07z" fill="#fff"/></g><g id="g1234" transform="translate(482.93 289.81)"><path id="path1232" d="m0 0-17.508 10.099v-1.071l17.508-10.099z" fill="#fff"/></g><g id="g1238" transform="translate(483.86 289.28)"><path id="path1236" d="m0 0v-1.071l9.321-5.376v1.07z" fill="#fff"/></g><g id="g1242" transform="translate(474.22 296.79)"><path id="path1240" d="m0 0-8.796 5.073v-1.07l8.796-5.073z" fill="#fff"/></g><g id="g1246" transform="translate(475.14 296.26)"><path id="path1244" d="m0 0v-1.07l18.033-10.403v1.071z" fill="#fff"/></g><g id="g1250" transform="translate(490.81 293.09)"><path id="path1248" d="m0 0v-1.07l2.372-1.369v1.071z" fill="#fff"/></g><g id="g1254" transform="translate(477.9 302.49)"><path id="path1252" d="m0 0-12.47 7.192v-1.07l12.47-7.193z" fill="#fff"/></g><g id="g1258" transform="translate(472.79 321.08)"><path id="path1256" d="m0 0-7.36 4.245v-1.07l7.36-4.245z" fill="#fff"/></g><g id="g1262" transform="translate(484.85 314.12)"><path id="path1260" d="m0 0-11.142 6.427v-1.071l11.142-6.427z" fill="#fff"/></g><g id="g1266" transform="translate(478.36 315.91)"><path id="path1264" d="m0 0-7.846 4.524v-1.07l7.846-4.524z" fill="#fff"/></g><g id="g1270" transform="translate(486.59 311.17)"><path id="path1268" d="m0 0-7.308 4.216v-1.07l7.308-4.216z" fill="#fff"/></g><g id="g1274" transform="translate(487.51 310.63)"><path id="path1272" d="m0 0v-1.07l5.667-3.269v1.07z" fill="#fff"/></g><g id="g1278" transform="translate(466.88 320.58)"><path id="path1276" d="m0 0v-1.07l5.911-3.409v1.07z" fill="#fff"/></g><g id="g1282" transform="translate(490.87 306.74)"><path id="path1280" d="m0 0-17.157 9.896v-1.07l17.157-9.896z" fill="#fff"/></g><g id="g1286" transform="translate(481.04 306.54)"><path id="path1284" d="m0 0-11.212 6.467v-1.071l11.212-6.466z" fill="#fff"/></g><g id="g1290" transform="translate(490.87 300.88)"><path id="path1288" d="m0 0-8.9 5.134v-1.071l8.9-5.133z" fill="#fff"/></g><g id="g1294" transform="translate(489.88 295.58)"><path id="path1292" d="m0 0-11.064 6.382v-1.07l11.064-6.382z" fill="#fff"/></g><g id="g1298" transform="translate(483.86 297.1)"><path id="path1296" d="m0 0v-1.07l6.026-3.476v1.07z" fill="#fff"/></g><g id="g1302" transform="translate(467.6 306.48)"><path id="path1300" d="m0 0-2.17 1.252v-1.071l2.17-1.251z" fill="#fff"/></g><g id="g1306" transform="translate(471.66 304.13)"><path id="path1304" d="m0 0v-1.07l11.273-6.503v1.07z" fill="#fff"/></g><g id="g1310" transform="translate(470.74 304.67)"><path id="path1308" d="m0 0-2.219 1.28v-1.07l2.219-1.28z" fill="#fff"/></g><g id="g1314" transform="translate(480.85 296.88)"><path id="path1312" d="m0 0-12.33 7.111v-1.07l12.33-7.111z" fill="#fff"/></g></g></g></g><g id="g1320"><g id="g1402"><g id="g1400" opacity=".39999" clip-path="url(#clipPath1326)"><g id="g1330" transform="translate(483.22 346.61)"><path id="path1328" d="m0 0-18.647 10.799v-0.948l18.647-10.799z" fill="#fff"/></g><g id="g1334" transform="translate(464.57 354.59)"><path id="path1332" d="m0 0 28.607-16.547v0.948l-28.607 16.547z" fill="#fff"/></g><g id="g1338" transform="translate(484.46 345.9)"><path id="path1336" d="m0 0v-0.948l8.713-5.046v0.948z" fill="#fff"/></g><g id="g1342" transform="translate(483.22 342.97)"><path id="path1340" d="m0 0-18.647 10.8v-0.949l18.647-10.799z" fill="#fff"/></g><g id="g1346" transform="translate(464.57 350.96)"><path id="path1344" d="m0 0 28.607-16.547v0.948l-28.607 16.547z" fill="#fff"/></g><g id="g1350" transform="translate(484.46 341.32)"><path id="path1348" d="m0 0 8.713-5.046v0.948l-8.713 5.046z" fill="#fff"/></g><g id="g1354" transform="translate(483.22 336.97)"><path id="path1352" d="m0 0-18.647 10.799v-0.948l18.647-10.799z" fill="#fff"/></g><g id="g1358" transform="translate(464.57 344.96)"><path id="path1356" d="m0 0 28.607-16.547v0.948l-28.607 16.547z" fill="#fff"/></g><g id="g1362" transform="translate(484.46 335.32)"><path id="path1360" d="m0 0 8.713-5.046v0.948l-8.713 5.046z" fill="#fff"/></g><g id="g1366" transform="translate(483.22 333.34)"><path id="path1364" d="m0 0-18.647 10.8v-0.949l18.647-10.799z" fill="#fff"/></g><g id="g1370" transform="translate(464.57 341.33)"><path id="path1368" d="m0 0 28.607-16.547v0.948l-28.607 16.547z" fill="#fff"/></g><g id="g1374" transform="translate(484.46 331.69)"><path id="path1372" d="m0 0 8.713-5.046v0.948l-8.713 5.046z" fill="#fff"/></g><g id="g1378" transform="translate(483.22 327.34)"><path id="path1376" d="m0 0-18.647 10.799v-0.948l18.647-10.8z" fill="#fff"/></g><g id="g1382" transform="translate(464.57 335.33)"><path id="path1380" d="m0 0 28.607-16.547v0.948l-28.607 16.547z" fill="#fff"/></g><g id="g1386" transform="translate(484.46 325.69)"><path id="path1384" d="m0 0 8.713-5.046v0.948l-8.713 5.046z" fill="#fff"/></g><g id="g1390" transform="translate(483.22 323.7)"><path id="path1388" d="m0 0-18.647 10.8v-0.949l18.647-10.799z" fill="#fff"/></g><g id="g1394" transform="translate(464.57 331.69)"><path id="path1392" d="m0 0 28.607-16.547v0.948l-28.607 16.547z" fill="#fff"/></g><g id="g1398" transform="translate(484.46 322.05)"><path id="path1396" d="m0 0 8.713-5.046v0.948l-8.713 5.046z" fill="#fff"/></g></g></g></g><g id="g1404"><g id="g1418"><g id="g1416" opacity="0.2" clip-path="url(#clipPath1410)"><g id="g1414" transform="translate(432.91 333.03)"><path id="path1412" d="m0 0-13.93 8.037c-0.679 0.393-1.529-0.099-1.529-0.883v-16.675c0-0.811 0.434-1.562 1.137-1.968l13.927-8.053c0.698-0.403 1.569 0.1 1.569 0.905v16.605c0 0.839-0.447 1.613-1.174 2.032" fill="#fff"/></g></g></g></g><g id="g1420" transform="translate(426.73 318.94)"><path id="path1422" d="m0 0-18.264 10.539c-0.558 0.322-1.199 0.309-1.828-0.072l-4.011-2.316 1.865-2.528 0.695-0.796v-18.094c0-1.077 0.574-2.073 1.507-2.612l13.67-7.903 0.139-0.76 2.789-3.908 4.291 2.521c0.007 0.005 0.014 0.009 0.021 0.013l0.029 0.017v0.003c0.383 0.238 0.655 0.658 0.655 1.174v22.027c0 1.112-0.594 2.14-1.558 2.695" fill="#f4767a"/></g><g id="g1424" transform="translate(422.46 316.43)"><path id="path1426" d="m0 0-18.479 10.662c-0.902 0.521-2.028-0.131-2.028-1.172v-22.119c0-1.077 0.574-2.073 1.507-2.612l18.477-10.682c0.924-0.535 2.081 0.132 2.081 1.2v22.027c0 1.113-0.594 2.14-1.558 2.696" fill="#ed5561"/></g><g id="g1428" transform="translate(423.32 290.5)"><path id="path1430" d="m0 0-0.026-0.016-0.002 0.003c0.008 0.005 0.019 0.007 0.028 0.013" fill="#bbcee1"/></g><g id="g1432" transform="translate(424.02 291.7)"><path id="path1434" d="m0 0v22.027c0 0.371-0.087 0.723-0.211 1.061l4.286 2.469c0.114-0.326 0.195-0.664 0.195-1.021v-22.026c0-0.517-0.272-0.937-0.655-1.175v-0.003l-0.029-0.017c-0.007-0.003-0.014-0.007-0.022-0.012l-4.253-2.5c0.402 0.234 0.689 0.666 0.689 1.197" fill="#d8395a"/></g><g id="g1436" transform="translate(407.1 312.57)"><path id="path1438" d="m0 0c-0.227-0.079-0.57 0.017-1.031 0.283l-0.49 0.282 0.006 2.401 0.68-0.393c0.408-0.235 0.704-0.505 0.897-0.805 0.189-0.303 0.285-0.655 0.284-1.058-0.001-0.398-0.117-0.632-0.346-0.71m-0.756 3.936-2.246 1.296-0.023-8.084 1.492-0.861 0.008 2.873 0.64-0.37c0.872-0.504 1.546-0.662 2.023-0.476 0.473 0.192 0.712 0.717 0.714 1.588 0.002 0.839-0.218 1.596-0.661 2.276-0.445 0.676-1.092 1.264-1.947 1.758" fill="#fff"/></g><g id="g1440" transform="translate(414.16 308.81)"><path id="path1442" d="m0 0-2.786 1.609 0.009 3.169-1.493 0.862-0.022-8.085 1.491-0.862 0.011 3.49 2.786-1.609-0.01-3.489 1.488-0.859 0.023 8.085-1.488 0.858z" fill="#fff"/></g><g id="g1444" transform="translate(420.04 305.09)"><path id="path1446" d="m0 0c-0.227-0.079-0.57 0.017-1.031 0.283l-0.49 0.282 0.006 2.401 0.68-0.393c0.407-0.234 0.704-0.505 0.897-0.805 0.189-0.303 0.285-0.655 0.284-1.057-0.001-0.399-0.117-0.633-0.346-0.711m1.191 2.178c-0.446 0.676-1.092 1.264-1.947 1.759l-2.246 1.295-0.023-8.084 1.492-0.861 0.008 2.873 0.639-0.37c0.873-0.504 1.546-0.661 2.02-0.474 0.477 0.19 0.715 0.715 0.718 1.586 0.002 0.839-0.218 1.596-0.661 2.276" fill="#fff"/></g><g id="g1448"><g id="g1586"><g id="g1584" opacity=".39999" clip-path="url(#clipPath1454)"><g id="g1458" transform="translate(383.6 318.11)"><path id="path1456" d="m0 0v-1.07l4.497-2.594v1.07z" fill="#fff"/></g><g id="g1462" transform="translate(383.6 316.16)"><path id="path1460" d="m0 0v-1.07l4.497-2.594v1.07z" fill="#fff"/></g><g id="g1466" transform="translate(383.6 314.2)"><path id="path1464" d="m0 0v-1.071l4.497-2.594v1.071z" fill="#fff"/></g><g id="g1470" transform="translate(417.54 291.6)"><path id="path1468" d="m0 0v1.071l-27.753 16.008v-1.07z" fill="#fff"/></g><g id="g1474" transform="translate(383.6 312.25)"><path id="path1472" d="m0 0v-1.07l4.497-2.594v1.07z" fill="#fff"/></g><g id="g1478" transform="translate(383.6 310.29)"><path id="path1476" d="m0 0v-1.07l4.497-2.594v1.07z" fill="#fff"/></g><g id="g1482" transform="translate(417.54 289.65)"><path id="path1480" d="m0 0v1.07l-27.753 16.008v-1.07z" fill="#fff"/></g><g id="g1486" transform="translate(383.6 304.43)"><path id="path1484" d="m0 0v-1.071l4.497-2.594v1.07z" fill="#fff"/></g><g id="g1490" transform="translate(383.6 302.47)"><path id="path1488" d="m0 0v-1.07l4.497-2.594v1.07z" fill="#fff"/></g><g id="g1494" transform="translate(383.6 294.65)"><path id="path1492" d="m0 0v-1.07l4.497-2.594v1.071z" fill="#fff"/></g><g id="g1498" transform="translate(383.6 292.69)"><path id="path1496" d="m0 0v-1.07l4.497-2.594v1.07z" fill="#fff"/></g><g id="g1502" transform="translate(407.29 279.03)"><path id="path1500" d="m0 0-17.509 10.1v-1.072l17.509-10.098z" fill="#fff"/></g><g id="g1506" transform="translate(408.22 278.49)"><path id="path1504" d="m0 0v-1.07l9.321-5.377v1.071z" fill="#fff"/></g><g id="g1510" transform="translate(398.58 286.01)"><path id="path1508" d="m0 0-8.797 5.074v-1.07l8.797-5.074z" fill="#fff"/></g><g id="g1514" transform="translate(399.5 285.47)"><path id="path1512" d="m0 0v-1.07l18.033-10.402v1.071z" fill="#fff"/></g><g id="g1518" transform="translate(415.16 282.31)"><path id="path1516" d="m0 0v-1.07l2.372-1.368v1.07z" fill="#fff"/></g><g id="g1522" transform="translate(402.25 291.71)"><path id="path1520" d="m0 0-12.471 7.193v-1.07l12.471-7.193z" fill="#fff"/></g><g id="g1526" transform="translate(397.14 310.3)"><path id="path1524" d="m0 0-7.36 4.246v-1.07l7.36-4.246z" fill="#fff"/></g><g id="g1530" transform="translate(409.21 303.34)"><path id="path1528" d="m0 0-11.142 6.427v-1.071l11.142-6.426z" fill="#fff"/></g><g id="g1534" transform="translate(402.72 305.13)"><path id="path1532" d="m0 0-7.845 4.524v-1.07l7.845-4.525z" fill="#fff"/></g><g id="g1538" transform="translate(410.95 300.38)"><path id="path1536" d="m0 0-7.309 4.215v-1.07l7.309-4.215z" fill="#fff"/></g><g id="g1542" transform="translate(411.87 299.85)"><path id="path1540" d="m0 0v-1.07l5.667-3.27v1.071z" fill="#fff"/></g><g id="g1546" transform="translate(391.23 309.8)"><path id="path1544" d="m0 0v-1.07l5.91-3.409v1.07z" fill="#fff"/></g><g id="g1550" transform="translate(415.22 295.96)"><path id="path1548" d="m0 0-17.156 9.896v-1.071l17.156-9.895z" fill="#fff"/></g><g id="g1554" transform="translate(405.4 295.76)"><path id="path1552" d="m0 0-11.213 6.467v-1.071l11.213-6.467z" fill="#fff"/></g><g id="g1558" transform="translate(415.22 290.1)"><path id="path1556" d="m0 0-8.899 5.133v-1.071l8.899-5.133z" fill="#fff"/></g><g id="g1562" transform="translate(414.24 284.8)"><path id="path1560" d="m0 0-11.064 6.382v-1.07l11.064-6.382z" fill="#fff"/></g><g id="g1566" transform="translate(408.22 286.32)"><path id="path1564" d="m0 0v-1.07l6.026-3.477v1.07z" fill="#fff"/></g><g id="g1570" transform="translate(391.96 295.7)"><path id="path1568" d="m0 0-2.171 1.252v-1.07l2.171-1.252z" fill="#fff"/></g><g id="g1574" transform="translate(396.02 293.35)"><path id="path1572" d="m0 0v-1.07l11.273-6.502v1.07z" fill="#fff"/></g><g id="g1578" transform="translate(395.1 293.88)"><path id="path1576" d="m0 0-2.219 1.279v-1.07l2.219-1.28z" fill="#fff"/></g><g id="g1582" transform="translate(405.21 286.1)"><path id="path1580" d="m0 0-12.329 7.112v-1.07l12.329-7.112z" fill="#fff"/></g></g></g></g><g id="g1588"><g id="g1602"><g id="g1600" opacity="0.2" clip-path="url(#clipPath1594)"><g id="g1598" transform="translate(517.7 304.2)"><path id="path1596" d="m0 0-13.93 8.038c-0.679 0.392-1.529-0.099-1.529-0.884v-16.674c0-0.811 0.434-1.562 1.137-1.968l13.927-8.053c0.698-0.403 1.569 0.1 1.569 0.905v16.605c0 0.838-0.447 1.613-1.174 2.031" fill="#fff"/></g></g></g></g><g id="g1604"><g id="g1618"><g id="g1616" opacity="0.2" clip-path="url(#clipPath1610)"><g id="g1614" transform="translate(536.72 336.42)"><path id="path1612" d="m0 0-13.93 8.038c-0.679 0.392-1.529-0.1-1.529-0.884v-16.675c0-0.811 0.434-1.562 1.137-1.968l13.927-8.053c0.698-0.402 1.569 0.101 1.569 0.905l0.001 16.605c0 0.839-0.448 1.613-1.175 2.032" fill="#fff"/></g></g></g></g><g id="g1620"><g id="g1634"><g id="g1632" opacity="0.2" clip-path="url(#clipPath1626)"><g id="g1630" transform="translate(579.73 249.24)"><path id="path1628" d="m0 0-13.93 8.038c-0.679 0.392-1.528-0.099-1.528-0.884v-16.674c0-0.812 0.433-1.562 1.136-1.969l13.928-8.052c0.697-0.403 1.569 0.1 1.569 0.904v16.605c0 0.839-0.448 1.613-1.175 2.032" fill="#fff"/></g></g></g></g><g id="g1636"><g id="g1650"><g id="g1648" opacity="0.2" clip-path="url(#clipPath1642)"><g id="g1646" transform="translate(458.48 290.27)"><path id="path1644" d="m0 0-13.93 8.038c-0.679 0.393-1.529-0.099-1.529-0.884v-16.674c0-0.811 0.434-1.562 1.137-1.968l13.927-8.053c0.698-0.402 1.569 0.1 1.569 0.905l0.001 16.605c0 0.838-0.448 1.613-1.175 2.031" fill="#fff"/></g></g></g></g><g id="g1652" transform="translate(406.05 153.24)"><path id="path1654" d="m0 0c-3.698-0.035-2.484 2.776-2.484 2.776-5.488 1.673-8.181 0.743-8.186 0.742-1.373-4.845-0.821-7.771-0.871-8.936-0.025-0.576 0.402-0.93 0.942-1.131 2.952-1.097 5.638-1.828 11.134-1.293 4.046 0.395 8.329 4.141 7.355 7.988-0.606 2.393-4.141-0.11-7.89-0.146" fill="#933e31"/></g><g id="g1656" transform="translate(404.46 188.01)"><path id="path1658" d="m0 0c-1.087 1.408-2.943 2.612-6.022 1.798l-33.066-6.378 1.243-8.492s5.065-6.677 13.929-4.145c8.864 2.533 14.62 6.677 14.62 6.677l-1.115-23.433s5.186-1.607 9.802 1.18c0.774 0.468 1.498 23.061 1.73 28.863 0.065 1.599-0.143 2.663-1.121 3.93" fill="#1c75bc"/></g><g id="g1660" transform="translate(421.92 146.46)"><path id="path1662" d="m0 0c-3.839-0.037-2.579 2.883-2.579 2.883-5.697 1.736-8.494 0.769-8.499 0.768-1.426-5.029-0.853-8.067-0.905-9.277-0.026-0.599 0.419-0.965 0.979-1.174 3.065-1.14 5.854-1.899 11.561-1.343 4.2 0.41 8.647 4.299 7.636 8.294-0.629 2.485-4.299-0.114-8.193-0.151" fill="#9d4d36"/></g><g id="g1664" transform="translate(384.34 155.78)"><path id="path1666" d="m0 0-28.379 16.406v-3.991l28.381-16.366z" fill="#bbcee1"/></g><g id="g1668" transform="translate(381.76 187.01)"><path id="path1670" d="m0 0-25.792-14.822 28.379-16.407 25.828 14.844z" fill="#fff"/></g><g id="g1672" transform="translate(410.17 170.63)"><path id="path1674" d="m0 0-25.829-14.845 0.002-3.951l25.827 14.943z" fill="#a7bcce"/></g><g id="g1676" transform="translate(420.27 182.56)"><path id="path1678" d="m0 0c-1.128 1.462-3.056 2.712-6.253 1.866l-34.332-6.622 1.291-8.818s5.259-6.933 14.462-4.303c9.204 2.63 15.181 6.933 15.181 6.933l-1.159-24.331s5.386-1.669 10.178 1.225c0.804 0.486 1.556 23.945 1.797 29.969 0.066 1.66-0.15 2.765-1.165 4.081" fill="#2a87c6"/></g><g id="g1680" transform="translate(358.93 232.22)"><path id="path1682" d="m0 0 58.618 34.027c2.483 1.442 5.547 1.445 8.033 0.01l92.344-53.421c2.354-1.358 2.358-4.754 0.008-6.117l-57.315-33.271c-2.953-1.714-6.594-1.718-9.55-0.012l-92.144 53.298c-2.11 1.218-2.113 4.262-0.006 5.486" fill="#e8ebf5"/></g><g id="g1684" transform="translate(358.94 226.74)"><path id="path1686" d="m0 0 92.131-53.298c2.956-1.706 6.598-1.702 9.55 0.012l57.316 33.271c1.169 0.679 1.753 1.861 1.757 3.043v-4.468l-0.006-0.001c-0.024-1.164-0.602-2.319-1.751-2.987l-57.316-33.271c-2.952-1.713-6.594-1.718-9.55-0.012l-92.13 53.299c-1.062 0.613-1.588 1.689-1.582 2.764h-0.001v4.379c0.004-1.062 0.531-2.124 1.583-2.731" fill="#a7bcce"/></g><g id="g1688" transform="translate(358.94 226.74)"><path id="path1690" d="m0 0 92.131-53.298c1.354-0.781 2.853-1.186 4.363-1.25v-4.413c-1.51 0.065-3.009 0.469-4.363 1.25l-92.131 53.299c-1.062 0.613-1.588 1.689-1.582 2.764h-0.001v4.379c0.004-1.062 0.531-2.124 1.583-2.731" fill="#bbcee1"/></g><g id="g1692" transform="translate(402.24 219.92)"><path id="path1694" d="m0 0 9.948 5.756c0.468 0.27 1.044 0.271 1.513 0.001l30.723-17.768c0.442-0.256 0.443-0.894 0.001-1.151l-9.704-5.613c-0.555-0.324-1.241-0.324-1.797-0.003l-30.683 17.745c-0.397 0.229-0.397 0.803-0.001 1.033" fill="#0f4463"/></g><g id="g1696" transform="translate(402.24 218.88)"><path id="path1698" d="m0 0 30.683-17.745c0.556-0.32 1.242-0.32 1.797 0.003l9.704 5.613c0.22 0.127 0.33 0.35 0.331 0.572v-1.19h-0.001c-0.005-0.22-0.114-0.437-0.33-0.563l-9.704-5.613c-0.555-0.322-1.241-0.323-1.797-0.002l-30.683 17.745c-0.2 0.116-0.299 0.318-0.298 0.52v1.175c0.001-0.201 0.1-0.401 0.298-0.515" fill="#0b3b56"/></g><g id="g1700" transform="translate(412.08 224.06)"><path id="path1702" d="m0 0 1.246 0.723 1.415-0.817-1.241-0.719z" fill="#1f5e77"/></g><g id="g1704" transform="translate(413.84 223.04)"><path id="path1706" d="m0 0 1.246 0.724 1.415-0.817-1.241-0.72z" fill="#1f5e77"/></g><g id="g1708" transform="translate(415.61 222.02)"><path id="path1710" d="m0 0 1.246 0.723 1.415-0.817-1.241-0.72z" fill="#1f5e77"/></g><g id="g1712" transform="translate(417.37 221.01)"><path id="path1714" d="m0 0 1.245 0.723 1.416-0.817-1.242-0.72z" fill="#1f5e77"/></g><g id="g1716" transform="translate(419.14 219.99)"><path id="path1718" d="m0 0 1.246 0.723 1.415-0.817-1.241-0.72z" fill="#1f5e77"/></g><g id="g1720" transform="translate(420.91 218.97)"><path id="path1722" d="m0 0 1.246 0.723 1.415-0.817-1.241-0.72z" fill="#1f5e77"/></g><g id="g1724" transform="translate(422.67 217.96)"><path id="path1726" d="m0 0 1.246 0.723 1.416-0.817-1.242-0.72z" fill="#1f5e77"/></g><g id="g1728" transform="translate(424.44 216.94)"><path id="path1730" d="m0 0 1.245 0.723 1.416-0.817-1.242-0.72z" fill="#1f5e77"/></g><g id="g1732" transform="translate(426.2 215.92)"><path id="path1734" d="m0 0 1.246 0.723 1.415-0.817-1.241-0.719z" fill="#1f5e77"/></g><g id="g1736" transform="translate(427.97 214.91)"><path id="path1738" d="m0 0 1.246 0.722 1.415-0.817-1.241-0.719z" fill="#1f5e77"/></g><g id="g1740" transform="translate(429.73 213.89)"><path id="path1742" d="m0 0 1.246 0.723 1.416-0.818-1.242-0.719z" fill="#1f5e77"/></g><g id="g1744" transform="translate(431.5 212.87)"><path id="path1746" d="m0 0 1.245 0.723 1.416-0.817-1.242-0.72z" fill="#1f5e77"/></g><g id="g1748" transform="translate(434.51 212.58)"><path id="path1750" d="m0 0 1.415-0.816-1.241-0.721-1.42 0.814z" fill="#1f5e77"/></g><g id="g1752" transform="translate(411.88 222.31)"><path id="path1754" d="m0 0-1.42 0.813 1.246 0.723 1.416-0.816z" fill="#1f5e77"/></g><g id="g1756" transform="translate(414.89 222.01)"><path id="path1758" d="m0 0-1.242-0.72-1.419 0.814 1.245 0.722z" fill="#1f5e77"/></g><g id="g1760" transform="translate(416.66 221)"><path id="path1762" d="m0 0-1.241-0.721-1.42 0.814 1.245 0.723z" fill="#1f5e77"/></g><g id="g1764" transform="translate(418.42 219.98)"><path id="path1766" d="m0 0-1.241-0.721-1.42 0.815 1.246 0.722z" fill="#1f5e77"/></g><g id="g1768" transform="translate(420.19 218.96)"><path id="path1770" d="m0 0-1.242-0.721-1.419 0.815 1.245 0.722z" fill="#1f5e77"/></g><g id="g1772" transform="translate(421.96 217.95)"><path id="path1774" d="m0 0-1.242-0.721-1.419 0.815 1.245 0.722z" fill="#1f5e77"/></g><g id="g1776" transform="translate(423.72 216.93)"><path id="path1778" d="m0 0-1.241-0.721-1.42 0.815 1.246 0.722z" fill="#1f5e77"/></g><g id="g1780" transform="translate(425.49 215.91)"><path id="path1782" d="m0 0-1.241-0.721-1.42 0.815 1.246 0.722z" fill="#1f5e77"/></g><g id="g1784" transform="translate(427.25 214.9)"><path id="path1786" d="m0 0-1.242-0.72-1.42 0.814 1.246 0.722z" fill="#1f5e77"/></g><g id="g1788" transform="translate(429.02 213.88)"><path id="path1790" d="m0 0-1.241-0.72-1.42 0.815 1.245 0.722z" fill="#1f5e77"/></g><g id="g1792" transform="translate(430.78 212.86)"><path id="path1794" d="m0 0-1.241-0.721-1.42 0.815 1.246 0.722z" fill="#1f5e77"/></g><g id="g1796" transform="translate(432.55 211.85)"><path id="path1798" d="m0 0-1.241-0.721-1.42 0.815 1.246 0.722z" fill="#1f5e77"/></g><g id="g1800" transform="translate(432.9 211.65)"><path id="path1802" d="m0 0 1.416-0.816-1.242-0.721-1.419 0.814z" fill="#1f5e77"/></g><g id="g1804" transform="translate(410.27 221.37)"><path id="path1806" d="m0 0-1.42 0.814 1.246 0.723 1.415-0.816z" fill="#1f5e77"/></g><g id="g1808" transform="translate(413.28 221.08)"><path id="path1810" d="m0 0-1.241-0.72-1.42 0.814 1.246 0.722z" fill="#1f5e77"/></g><g id="g1812" transform="translate(412.38 220.15)"><path id="path1814" d="m0 0 1.245 0.724 1.416-0.818-1.242-0.719z" fill="#1f5e77"/></g><g id="g1816" transform="translate(416.81 219.05)"><path id="path1818" d="m0 0-1.242-0.721-1.419 0.815 1.245 0.722z" fill="#1f5e77"/></g><g id="g1820" transform="translate(418.58 218.03)"><path id="path1822" d="m0 0-1.241-0.721-1.42 0.815 1.246 0.722z" fill="#1f5e77"/></g><g id="g1824" transform="translate(420.34 217.01)"><path id="path1826" d="m0 0-1.241-0.721-1.42 0.815 1.246 0.722z" fill="#1f5e77"/></g><g id="g1828" transform="translate(422.11 216)"><path id="path1830" d="m0 0-1.242-0.721-1.419 0.815 1.245 0.722z" fill="#1f5e77"/></g><g id="g1832" transform="translate(423.88 214.98)"><path id="path1834" d="m0 0-1.242-0.721-1.419 0.815 1.245 0.722z" fill="#1f5e77"/></g><g id="g1836" transform="translate(425.64 213.96)"><path id="path1838" d="m0 0-1.241-0.72-1.42 0.814 1.246 0.722z" fill="#1f5e77"/></g><g id="g1840" transform="translate(427.41 212.95)"><path id="path1842" d="m0 0-1.241-0.72-1.42 0.815 1.246 0.721z" fill="#1f5e77"/></g><g id="g1844" transform="translate(429.17 211.93)"><path id="path1846" d="m0 0-1.242-0.72-1.419 0.815 1.245 0.722z" fill="#1f5e77"/></g><g id="g1848" transform="translate(428.28 211.01)"><path id="path1850" d="m0 0 1.246 0.723 1.415-0.817-1.242-0.72z" fill="#1f5e77"/></g><g id="g1852" transform="translate(431.29 210.71)"><path id="path1854" d="m0 0 1.415-0.816-1.241-0.721-1.42 0.814z" fill="#1f5e77"/></g><g id="g1856" transform="translate(408.66 220.44)"><path id="path1858" d="m0 0-1.419 0.814 1.245 0.723 1.416-0.816z" fill="#1f5e77"/></g><g id="g1860" transform="translate(409.01 220.24)"><path id="path1862" d="m0 0 1.245 0.723 1.416-0.817-1.242-0.719z" fill="#1f5e77"/></g><g id="g1864" transform="translate(410.77 219.22)"><path id="path1866" d="m0 0 1.246 0.723 1.415-0.817-1.241-0.719z" fill="#1f5e77"/></g><g id="g1868" transform="translate(412.54 218.21)"><path id="path1870" d="m0 0 1.246 0.723 1.415-0.817-1.241-0.72z" fill="#1f5e77"/></g><g id="g1872" transform="translate(414.3 217.19)"><path id="path1874" d="m0 0 1.246 0.723 1.416-0.817-1.242-0.72z" fill="#1f5e77"/></g><g id="g1876" transform="translate(416.07 216.17)"><path id="path1878" d="m0 0 1.245 0.723 1.416-0.817-1.242-0.72z" fill="#1f5e77"/></g><g id="g1880" transform="translate(417.84 215.16)"><path id="path1882" d="m0 0 1.246 0.723 1.415-0.817-1.241-0.72z" fill="#1f5e77"/></g><g id="g1884" transform="translate(419.6 214.14)"><path id="path1886" d="m0 0 1.246 0.723 1.415-0.817-1.241-0.72z" fill="#1f5e77"/></g><g id="g1888" transform="translate(421.37 213.12)"><path id="path1890" d="m0 0 1.245 0.723 1.416-0.817-1.242-0.72z" fill="#1f5e77"/></g><g id="g1892" transform="translate(423.13 212.11)"><path id="path1894" d="m0 0 1.245 0.723 1.416-0.817-1.242-0.719z" fill="#1f5e77"/></g><g id="g1896" transform="translate(424.9 211.09)"><path id="path1898" d="m0 0 1.246 0.723 1.415-0.818-1.241-0.719z" fill="#1f5e77"/></g><g id="g1900" transform="translate(426.66 210.07)"><path id="path1902" d="m0 0 1.246 0.723 1.415-0.818-1.241-0.719z" fill="#1f5e77"/></g><g id="g1904" transform="translate(429.68 209.78)"><path id="path1906" d="m0 0 1.416-0.816-1.242-0.721-1.419 0.814z" fill="#1f5e77"/></g><g id="g1908" transform="translate(407.05 219.51)"><path id="path1910" d="m0 0-1.42 0.814 1.246 0.723 1.415-0.816z" fill="#1f5e77"/></g><g id="g1912" transform="translate(407.39 219.3)"><path id="path1914" d="m0 0 1.246 0.723 1.415-0.817-1.241-0.719z" fill="#1f5e77"/></g><g id="g1916" transform="translate(409.16 218.29)"><path id="path1918" d="m0 0 1.245 0.723 1.416-0.817-1.242-0.719z" fill="#1f5e77"/></g><g id="g1920" transform="translate(410.93 217.27)"><path id="path1922" d="m0 0 1.245 0.723 1.416-0.818-1.242-0.719z" fill="#1f5e77"/></g><g id="g1924" transform="translate(412.69 216.26)"><path id="path1926" d="m0 0 1.246 0.723 1.415-0.818-1.241-0.719z" fill="#1f5e77"/></g><g id="g1928" transform="translate(414.46 215.24)"><path id="path1930" d="m0 0 1.246 0.723 1.415-0.817-1.241-0.72z" fill="#1f5e77"/></g><g id="g1932" transform="translate(416.22 214.22)"><path id="path1934" d="m0 0 1.245 0.723 1.416-0.817-1.242-0.72z" fill="#1f5e77"/></g><g id="g1936" transform="translate(417.99 213.21)"><path id="path1938" d="m0 0 1.245 0.723 1.416-0.817-1.242-0.72z" fill="#1f5e77"/></g><g id="g1940" transform="translate(419.76 212.19)"><path id="path1942" d="m0 0 1.246 0.723 1.415-0.817-1.241-0.72z" fill="#1f5e77"/></g><g id="g1944" transform="translate(421.52 211.17)"><path id="path1946" d="m0 0 1.246 0.723 1.416-0.817-1.242-0.72z" fill="#1f5e77"/></g><g id="g1948" transform="translate(423.29 210.16)"><path id="path1950" d="m0 0 1.246 0.723 1.416-0.817-1.242-0.719z" fill="#1f5e77"/></g><g id="g1952" transform="translate(425.05 209.14)"><path id="path1954" d="m0 0 1.245 0.723 1.416-0.818-1.242-0.719z" fill="#1f5e77"/></g><g id="g1956" transform="translate(428.07 208.85)"><path id="path1958" d="m0 0 1.415-0.817-1.241-0.72-1.42 0.814z" fill="#1f5e77"/></g><g id="g1960" transform="translate(405.26 220.11)"><path id="path1962" d="m0 0 1.416-0.816-1.242-0.721-1.42 0.814z" fill="#1f5e77"/></g><g id="g1964" transform="translate(408.44 218.28)"><path id="path1966" d="m0 0-1.242-0.72-1.419 0.814 1.245 0.722z" fill="#1f5e77"/></g><g id="g1968" transform="translate(410.21 217.26)"><path id="path1970" d="m0 0-1.241-0.72-1.42 0.814 1.246 0.722z" fill="#1f5e77"/></g><g id="g1972" transform="translate(411.98 216.24)"><path id="path1974" d="m0 0-1.241-0.72-1.42 0.814 1.246 0.722z" fill="#1f5e77"/></g><g id="g1976" transform="translate(413.74 215.23)"><path id="path1978" d="m0 0-1.242-0.721-1.419 0.814 1.245 0.723z" fill="#1f5e77"/></g><g id="g1980" transform="translate(415.51 214.21)"><path id="path1982" d="m0 0-1.242-0.721-1.419 0.815 1.245 0.722z" fill="#1f5e77"/></g><g id="g1984" transform="translate(415.86 214.01)"><path id="path1986" d="m0 0 1.766-1.017 0.347-0.2 1.418-0.816 0.72-0.415 1.045-0.602h0.002l1.114-0.642 2.067-1.191-1.242-0.72-2.161 1.243-1.024 0.588 0.001 0.001-1.074 0.618-0.693 0.397 0.001 0.001-1.396 0.803-0.371 0.213h0.001l-1.767 1.016z" fill="#1f5e77"/></g><g id="g1988" transform="translate(426.1 208.11)"><path id="path1990" d="m0 0-1.242-0.72-1.42 0.814 1.246 0.722z" fill="#1f5e77"/></g><g id="g1992" transform="translate(427.87 207.1)"><path id="path1994" d="m0 0-1.242-0.72-1.419 0.814 1.245 0.723z" fill="#1f5e77"/></g><g id="g1996" transform="translate(436.8 209.83)"><path id="path1998" d="m0 0 1.246 0.723 1.415-0.817-1.241-0.72z" fill="#1f5e77"/></g><g id="g2000" transform="translate(438.56 208.81)"><path id="path2002" d="m0 0 1.245 0.723 1.416-0.817-1.242-0.72z" fill="#1f5e77"/></g><g id="g2004" transform="translate(440.33 207.79)"><path id="path2006" d="m0 0 1.246 0.723 1.415-0.817-1.242-0.72z" fill="#1f5e77"/></g><g id="g2008" transform="translate(437.85 208.8)"><path id="path2010" d="m0 0-1.242-0.721-1.419 0.815 1.246 0.722z" fill="#1f5e77"/></g><g id="g2012" transform="translate(439.61 207.78)"><path id="path2014" d="m0 0-1.241-0.721-1.42 0.815 1.246 0.722z" fill="#1f5e77"/></g><g id="g2016" transform="translate(441.38 206.77)"><path id="path2018" d="m0 0-1.241-0.721-1.42 0.815 1.246 0.722z" fill="#1f5e77"/></g><g id="g2020" transform="translate(436.24 207.87)"><path id="path2022" d="m0 0-1.242-0.721-1.42 0.815 1.246 0.722z" fill="#1f5e77"/></g><g id="g2024" transform="translate(438 206.85)"><path id="path2026" d="m0 0-1.242-0.721-1.419 0.815 1.245 0.722z" fill="#1f5e77"/></g><g id="g2028" transform="translate(439.77 205.83)"><path id="path2030" d="m0 0-1.241-0.721-1.42 0.815 1.246 0.722z" fill="#1f5e77"/></g><g id="g2032" transform="translate(431.96 207.03)"><path id="path2034" d="m0 0 1.245 0.723 1.416-0.817-1.242-0.72z" fill="#1f5e77"/></g><g id="g2036" transform="translate(433.73 206.01)"><path id="path2038" d="m0 0 1.246 0.723 1.415-0.817-1.241-0.72z" fill="#1f5e77"/></g><g id="g2040" transform="translate(435.49 204.99)"><path id="path2042" d="m0 0 1.246 0.723 1.416-0.817-1.242-0.72z" fill="#1f5e77"/></g><g id="g2044" transform="translate(430.35 206.09)"><path id="path2046" d="m0 0 1.246 0.722 1.415-0.817-1.241-0.719z" fill="#1f5e77"/></g><g id="g2048" transform="translate(432.12 205.08)"><path id="path2050" d="m0 0 1.245 0.723 1.416-0.817-1.242-0.72z" fill="#1f5e77"/></g><g id="g2052" transform="translate(433.88 204.06)"><path id="path2054" d="m0 0 1.246 0.723 1.415-0.817-1.242-0.72z" fill="#1f5e77"/></g><g id="g2056" transform="translate(431.4 205.06)"><path id="path2058" d="m0 0-1.242-0.72-1.419 0.814 1.245 0.722z" fill="#1f5e77"/></g><g id="g2060" transform="translate(433.17 204.05)"><path id="path2062" d="m0 0-1.241-0.72-1.42 0.815 1.246 0.722z" fill="#1f5e77"/></g><g id="g2064" transform="translate(424.31 229.46)"><path id="path2066" d="m0 0 9.786 5.681c0.414 0.241 0.926 0.241 1.341 0.002l23.219-13.402c0.392-0.226 0.393-0.794 0.001-1.021l-9.569-5.555c-0.493-0.286-1.101-0.286-1.594-0.002l-23.183 13.381c-0.353 0.204-0.354 0.712-0.001 0.916" fill="#1f5e77"/></g><g id="g2068" transform="translate(424.31 228.55)"><path id="path2070" d="m0 0 23.183-13.381c0.493-0.284 1.101-0.284 1.594 0.002l9.569 5.555c0.195 0.113 0.293 0.31 0.293 0.508v-1.202l-0.001-0.001c-0.004-0.194-0.1-0.386-0.292-0.498l-9.569-5.554c-0.493-0.286-1.101-0.287-1.594-0.002l-23.183 13.381c-0.178 0.102-0.266 0.282-0.265 0.462v1.186c0.001-0.177 0.089-0.354 0.265-0.456" fill="#07304b"/></g><g id="g2072" transform="translate(424.31 228.55)"><path id="path2074" d="m0 0 23.183-13.382c0.226-0.13 0.476-0.198 0.728-0.208v-1.193c-0.252 0.011-0.502 0.078-0.728 0.209l-23.183 13.381c-0.178 0.102-0.266 0.282-0.265 0.462v1.186c0.001-0.177 0.089-0.354 0.265-0.455" fill="#0b3b56"/></g><g id="g2076" transform="translate(449.7 228.57)"><path id="path2078" d="m0 0-18.046 10.443v-8.94l18.047-10.436z" fill="#0f4463"/></g><g id="g2080" transform="translate(434.17 240.45)"><path id="path2082" d="m0 0-2.512-1.441 18.046-10.444 2.519 1.447z" fill="#07304b"/></g><g id="g2084" transform="translate(452.22 230.01)"><path id="path2086" d="m0 0-2.519-1.446 0.001-8.933 2.518 1.463z" fill="#07304b"/></g></g></g><g id="g2088" transform="matrix(1.4992 0 0 1.4046 -485.09 -173.42)"><g id="g2090" clip-path="url(#clipPath2094)"><g id="g2096"><g id="g2098"><path id="path2108" fill="url(#linearGradient2097)" d="m413.42 244.28 54.852-31.942 0.001 40.366-54.853 31.814z"/></g></g></g></g><g id="g2110" transform="matrix(1.4992 0 0 1.4046 -485.09 -173.42)"><g id="g2112" clip-path="url(#clipPath2116)"><g id="g2118" transform="translate(468.27 252.7)"><path id="path2120" d="m0 0 1.824 1.107v-40.365l-1.825-1.108z" fill="#07304b"/></g><g id="g2122" transform="translate(413.42 284.51)"><path id="path2124" d="m0 0 1.867 1.083 54.811-31.79-1.824-1.107z" fill="#1f5e77"/></g><g id="g2126" transform="translate(466.97 214.59)"><path id="path2128" d="m0 0-52.255 30.429v37.237l52.256-30.308zm-53.554 69.921v-40.238l54.853-31.943 0.001 40.366z" fill="#0b3b56"/></g><g id="g2130" transform="translate(393.1 234.68)"><path id="path2132" d="m0 0c-0.569-5.766-4.822-10.065-9.499-9.604-4.678 0.46-8.008 5.509-7.439 11.275 0.569 5.765 4.821 10.065 9.499 9.603 4.676-0.461 8.007-5.508 7.439-11.274" fill="#fed4bd"/></g><g id="g2134" transform="translate(400.09 221.24)"><path id="path2136" d="m0 0s2.033-0.489 2.738-0.561c0.705-0.071 3.376-0.626 4.468-0.293 1.093 0.332-0.959 1.056-1.465 1.431-0.505 0.375-0.481 1.319 0.62 1.651 1.103 0.333 3.595 0.175 4.913 0.363 1.319 0.188-1.31 4.18-3.458 4.551-2.147 0.37-3.987 0.143-5.885-0.794-1.832-0.905-2.833-2.429-3.686-2.725z" fill="#f4c5a2"/></g><g id="g2138" transform="translate(400.33 226.68)"><path id="path2140" d="m0 0-13.905-3.486-0.699-8.834 16.415 5.625c0.341 3.128-1.811 6.695-1.811 6.695" fill="#ed5561"/></g><g id="g2142" transform="translate(366.03 222.94)"><path id="path2144" d="m0 0s-3.845-4.846 0-11.519c0 0 2.69-3.719 10.072-0.078z" fill="#ed5561"/></g><g id="g2146" transform="translate(377.43 228.61)"><path id="path2148" d="m0 0s5.992 0.409 10.696-2.879c0 0 0.349-0.989 1.289-1.616 0.941-0.627 5.605-2.497 5.605-2.497s-2.057-27.372 0.304-40.699c0 0-10.134-7.913-25.96 0 0 0-2.314 33.607-3.332 42.029 0 0 2.637 3.262 11.398 5.662" fill="#de495a"/></g><g id="g2150" transform="translate(374.79 183.42)"><path id="path2152" d="m0 0-28.379 16.406 9.554-27.675 28.381-16.365z" fill="#bbcee1"/></g><g id="g2154" transform="translate(349.54 201.64)"><path id="path2156" d="m0 0-3.133-1.819 28.379-16.407 3.169 1.841z" fill="#fff"/></g><g id="g2158" transform="translate(377.96 185.26)"><path id="path2160" d="m0 0-3.17-1.841 9.556-27.634 3.204 1.846z" fill="#a7bcce"/></g><g id="g2162" transform="translate(418.79 209.11)"><path id="path2164" d="m0 0s1.55 1.561 2.142 2.006c0.592 0.446 2.677 2.409 3.845 2.67 1.17 0.26-0.827-1.766-1.068-2.399s1.194 0.506 2.289 0.915c1.131 0.424 2.381 0.349 3.72-0.128 2.686-0.955 2.554-6.328 0.359-5.693-3.611 1.045-5.237-1.822-7.392-2.426-1.494-0.418-2.123-0.391-3.056-0.559z" fill="#f4c5a2"/></g><g id="g2166" transform="translate(395.02 221.61)"><path id="path2168" d="m0 0 11.736-15.551 12.198 3.601s2.617-3.3 1.767-6.796l-16.278-6.337-13.23 14.555s-4.43 9.232 3.807 10.528" fill="#ed5561"/></g><g id="g2170" transform="translate(388.48 250.88)"><path id="path2172" d="m0 0s0.904-2.166-3.416-2.753c-4.309-0.586-9.657-2.736-11.06-7.291-0.898-2.915 0.143-6.041 1.605-8.584 0.501-0.87 1.059-1.735 1.716-2.499 0 0 2.886-0.779 6.367 1.095 0 0 2.142 1.428 3.427 4.178 0 0 2.57-1.072 3.374 1.07 0.59 1.574 2.448 1.966 3.459 2.825 0 0 5.833 9.53-5.472 11.959" fill="#9d4d36"/></g><g id="g2174" transform="translate(549.56 168.06)"><path id="path2176" d="m0 0-18.804 10.915v-7.035l18.806-10.885z" fill="#bbcee1"/></g><g id="g2178" transform="translate(550.19 190.15)"><path id="path2180" d="m0 0-19.436-11.169 18.804-10.915 19.463 11.186z" fill="#fff"/></g><g id="g2182" transform="translate(569.02 179.25)"><path id="path2184" d="m0 0-19.463-11.186 0.002-7.004 19.461 11.259z" fill="#a7bcce"/></g><g id="g2186" transform="translate(549.56 179.57)"><path id="path2188" d="m0 0-18.804 10.916v-7.036l18.806-10.885z" fill="#bbcee1"/></g><g id="g2190" transform="translate(550.19 201.65)"><path id="path2192" d="m0 0-19.436-11.169 18.804-10.916 19.463 11.186z" fill="#fff"/></g><g id="g2194" transform="translate(569.02 190.75)"><path id="path2196" d="m0 0-19.463-11.187 0.002-7.004l19.461 11.259z" fill="#a7bcce"/></g><g id="g2198" transform="translate(517.75 149.65)"><path id="path2200" d="m0 0-18.804 10.915v-7.035l18.805-10.885z" fill="#bbcee1"/></g><g id="g2202" transform="translate(518.39 171.73)"><path id="path2204" d="m0 0-19.436-11.169 18.804-10.915 19.462 11.186z" fill="#fff"/></g><g id="g2206" transform="translate(537.22 160.83)"><path id="path2208" d="m0 0-19.463-11.186 0.001-7.004 19.462 11.259z" fill="#a7bcce"/></g><g id="g2210" transform="translate(517.75 161.15)"><path id="path2212" d="m0 0-18.804 10.916v-7.036l18.805-10.885z" fill="#bbcee1"/></g><g id="g2214" transform="translate(518.39 183.24)"><path id="path2216" d="m0 0-19.436-11.169 18.804-10.916 19.462 11.187z" fill="#fff"/></g><g id="g2218" transform="translate(537.22 172.34)"><path id="path2220" d="m0 0-19.463-11.187 0.001-7.004l19.462 11.259z" fill="#a7bcce"/></g><g id="g2222" transform="translate(485.95 131.23)"><path id="path2224" d="m0 0-18.804 10.915v-7.036l18.805-10.884z" fill="#bbcee1"/></g><g id="g2226" transform="translate(486.58 153.32)"><path id="path2228" d="m0 0-19.435-11.169 18.804-10.915 19.462 11.186z" fill="#fff"/></g><g id="g2230" transform="translate(505.42 142.42)"><path id="path2232" d="m0 0-19.463-11.186 0.001-7.004 19.462 11.259z" fill="#a7bcce"/></g><g id="g2234" transform="translate(485.95 142.74)"><path id="path2236" d="m0 0-18.804 10.916v-7.036l18.805-10.885z" fill="#bbcee1"/></g><g id="g2238" transform="translate(486.58 164.82)"><path id="path2240" d="m0 0-19.435-11.169 18.804-10.916 19.462 11.186z" fill="#fff"/></g><g id="g2242" transform="translate(505.42 153.93)"><path id="path2244" d="m0 0-19.463-11.187 0.001-7.004l19.462 11.259z" fill="#a7bcce"/></g><g id="g2246" transform="translate(483.76 152.38)"><path id="path2248" d="m0 0c1.475-0.852 3.857-0.852 5.323 0 1.465 0.852 1.457 2.231-0.017 3.083-1.475 0.852-3.858 0.852-5.323 0-1.464-0.852-1.458-2.231 0.017-3.083m8.057-2.75-1.181 0.683c-0.851-0.335-1.792-0.556-2.766-0.665l0.005-0.963-2.868-0.001-0.007 0.964c-0.972 0.11-1.917 0.331-2.769 0.665l-1.174-0.683-2.036 1.177 1.174 0.681c-0.58 0.493-0.965 1.039-1.158 1.602h-1.663l-0.009 1.663h1.664c0.185 0.563 0.565 1.109 1.138 1.604l-1.179 0.681 2.021 1.175 1.18-0.682c0.85 0.333 1.794 0.556 2.763 0.664l-0.004 0.964h2.871l0.003-0.964c0.975-0.108 1.918-0.33 2.771-0.664l1.174 0.683 2.037-1.176-1.174-0.682c0.578-0.493 0.964-1.039 1.155-1.603h1.666l0.008-1.662-1.665-0.001c-0.182-0.563-0.564-1.11-1.137-1.603l1.182-0.681z" fill="#1c75bc"/></g><g id="g2250" transform="translate(519.82 177.17)"><path id="path2252" d="m0 0 1.829-3.905 1.828-3.907-6.749 1.047-6.747 1.046 4.919 2.86z" fill="#ef4136"/></g><g id="g2254" transform="translate(542.83 191.59)"><path id="path2256" d="m0 0c-1.018 0.587-0.558 1.443 1.374 2.566 0.93 0.54 1.788 0.886 2.567 1.041 0.783 0.153 1.397 0.099 1.845-0.16 0.227-0.131 0.394-0.281 0.492-0.452 0.1-0.17 0.177-0.338 0.23-0.506l1.777 0.435c-0.108 0.308-0.266 0.567-0.464 0.779-0.197 0.213-0.45 0.402-0.758 0.58-0.931 0.538-2.036 0.738-3.317 0.602-1.281-0.14-2.599-0.604-3.953-1.391-1.355-0.788-2.155-1.545-2.395-2.272-0.242-0.731 0.111-1.368 1.055-1.913 0.641-0.371 1.303-0.595 1.984-0.673l1.38 0.802c-0.767 0.118-1.373 0.305-1.817 0.562" fill="#91a6b7"/></g><g id="g2258" transform="translate(551.28 189.44)"><path id="path2260" d="m0 0c0.164 0.348 0.153 0.787-0.029 1.314-0.138 0.391-0.187 0.694-0.141 0.909 0.045 0.215 0.21 0.405 0.495 0.57 0.284 0.165 0.577 0.257 0.88 0.273 0.303 0.018 0.579-0.044 0.832-0.189 0.231-0.134 0.406-0.284 0.522-0.449s0.214-0.331 0.293-0.498l1.76 0.424c-0.237 0.55-0.678 1.011-1.319 1.381-0.676 0.39-1.422 0.58-2.244 0.568-0.818-0.01-1.583-0.227-2.297-0.642-0.373-0.217-0.657-0.436-0.835-0.658-0.178-0.223-0.287-0.454-0.333-0.693-0.037-0.24-0.005-0.534 0.112-0.886 0.134-0.403 0.17-0.724 0.12-0.96-0.045-0.239-0.211-0.44-0.491-0.603s-0.578-0.246-0.897-0.254c-0.315-0.009-0.622 0.075-0.921 0.247-0.526 0.303-0.895 0.752-1.119 1.355l-1.537-0.894c0.232-0.463 0.708-0.905 1.442-1.33 0.748-0.431 1.524-0.638 2.338-0.626 0.813 0.012 1.609 0.246 2.386 0.699 0.488 0.283 0.814 0.596 0.983 0.942" fill="#91a6b7"/></g><g id="g2262" transform="translate(559.43 190.37)"><path id="path2264" d="m0 0c-0.676 0.39-1.422 0.58-2.244 0.567-0.814-0.012-1.583-0.227-2.297-0.641-0.373-0.217-0.653-0.44-0.835-0.659-0.178-0.222-0.287-0.454-0.333-0.694-0.036-0.239-0.001-0.535 0.112-0.886 0.134-0.401 0.17-0.722 0.124-0.961-0.049-0.237-0.214-0.437-0.495-0.6-0.28-0.163-0.577-0.247-0.892-0.257-0.32-0.007-0.622 0.074-0.922 0.247-0.526 0.304-0.899 0.755-1.119 1.355l-1.537-0.894c0.228-0.461 0.708-0.905 1.438-1.327 0.748-0.432 1.529-0.642 2.338-0.627 0.813 0.013 1.613 0.244 2.391 0.696 0.488 0.284 0.809 0.6 0.978 0.946 0.164 0.347 0.157 0.784-0.029 1.314-0.138 0.39-0.183 0.692-0.137 0.906 0.041 0.217 0.206 0.407 0.491 0.573 0.284 0.165 0.577 0.255 0.88 0.273s0.579-0.044 0.836-0.192c0.231-0.133 0.402-0.282 0.518-0.447 0.116-0.166 0.214-0.331 0.293-0.499l1.76 0.425c-0.237 0.55-0.678 1.012-1.319 1.382" fill="#91a6b7"/></g><g id="g2266" transform="translate(549.14 253.18)"><path id="path2268" d="m0 0-18.264 10.539c-0.558 0.321-1.2 0.308-1.828-0.073l-0.001 0.001-4.01-2.316 1.865-2.528 0.695-0.797v-18.094c0-1.077 0.574-2.072 1.507-2.612l13.669-7.902 0.14-0.76 2.789-3.909 4.291 2.522c0.006 0.004 0.014 0.008 0.021 0.013l0.029 0.016v0.003c0.383 0.238 0.654 0.659 0.654 1.174l0.001 22.028c0 1.112-0.594 2.139-1.558 2.695" fill="#79ff68"/></g><g id="g2270" transform="translate(544.87 250.67)"><path id="path2272" d="m0 0-18.479 10.663c-0.902 0.52-2.028-0.132-2.028-1.172v-22.12c0-1.077 0.574-2.072 1.507-2.611l18.477-10.683c0.924-0.534 2.081 0.133 2.081 1.2v22.028c0 1.112-0.594 2.139-1.558 2.695" fill="#50e85e"/></g><g id="g2274" transform="translate(545.73 224.74)"><path id="path2276" d="m0 0-0.026-0.016-0.003 0.004c0.009 0.005 0.02 0.007 0.029 0.012" fill="#bbcee1"/></g><g id="g2278" transform="translate(546.43 225.94)"><path id="path2280" d="m0 0v22.027c0 0.371-0.087 0.724-0.211 1.062l4.286 2.469c0.114-0.327 0.195-0.665 0.195-1.021l-0.001-22.027c0-0.516-0.271-0.937-0.655-1.175v-0.002l-0.028-0.017c-0.007-0.004-0.015-0.008-0.022-0.012l-4.253-2.501c0.402 0.234 0.689 0.666 0.689 1.197" fill="#3cc743"/></g><g id="g2282" transform="translate(570.04 297.17)"><path id="path2284" d="m0 0-18.264 10.539c-0.558 0.322-1.199 0.309-1.828-0.072h-0.001l-4.01-2.316 1.865-2.528 0.695-0.796v-18.094c0-1.077 0.574-2.073 1.507-2.612l13.669-7.903 0.14-0.76 2.789-3.908 4.291 2.521c0.006 0.005 0.014 0.009 0.021 0.013l0.029 0.017v0.002c0.383 0.239 0.654 0.659 0.654 1.175l0.001 22.027c0 1.112-0.594 2.14-1.558 2.695" fill="#9263c1"/></g><g id="g2286" transform="translate(565.77 294.66)"><path id="path2288" d="m0 0-18.479 10.662c-0.902 0.521-2.028-0.131-2.028-1.172v-22.119c0-1.077 0.574-2.073 1.507-2.612l18.477-10.682c0.924-0.535 2.081 0.132 2.081 1.2v22.027c0 1.112-0.594 2.14-1.558 2.696" fill="#8444b2"/></g><g id="g2290" transform="translate(566.62 268.74)"><path id="path2292" d="m0 0-0.026-0.016-0.003 0.003c0.009 0.005 0.02 0.007 0.029 0.013" fill="#bbcee1"/></g><g id="g2294" transform="translate(567.32 269.94)"><path id="path2296" d="m0 0v22.027c0 0.371-0.087 0.723-0.211 1.061l4.286 2.469c0.114-0.326 0.195-0.664 0.195-1.021l-0.001-22.026c0-0.517-0.271-0.937-0.654-1.175v-0.003l-0.029-0.017c-0.007-0.003-0.015-0.007-0.022-0.012l-4.253-2.5c0.402 0.234 0.689 0.666 0.689 1.197" fill="#7231a3"/></g><g id="g2298" transform="translate(508.96 296.85)"><path id="path2300" d="m0 0-18.264 10.539c-0.558 0.321-1.199 0.308-1.828-0.073v0.001l-4.011-2.316 1.865-2.528 0.695-0.797v-18.094c0-1.077 0.574-2.073 1.507-2.612l13.67-7.902 0.139-0.761 2.789-3.908 4.291 2.522 0.021 0.012 0.029 0.017v0.003c0.383 0.238 0.655 0.659 0.655 1.174v22.027c0 1.112-0.594 2.14-1.558 2.696" fill="#ffa8e1"/></g><g id="g2302" transform="translate(504.7 294.34)"><path id="path2304" d="m0 0-18.479 10.663c-0.902 0.52-2.028-0.132-2.028-1.173v-22.119c0-1.077 0.574-2.072 1.508-2.612l18.476-10.682c0.924-0.534 2.081 0.133 2.081 1.2v22.028c0 1.112-0.594 2.139-1.558 2.695" fill="#ff7ad2"/></g><g id="g2306" transform="translate(505.55 268.42)"><path id="path2308" d="m0 0-0.026-0.016-0.002 0.004c0.008 0.005 0.019 0.007 0.028 0.012" fill="#bbcee1"/></g><g id="g2310" transform="translate(506.25 269.62)"><path id="path2312" d="m0 0v22.027c0 0.371-0.087 0.724-0.211 1.062l4.286 2.469c0.114-0.327 0.195-0.665 0.195-1.022v-22.026c0-0.516-0.272-0.937-0.655-1.175v-0.003l-0.029-0.017c-0.007-0.003-0.014-0.007-0.022-0.011l-4.252-2.501c0.401 0.234 0.688 0.666 0.688 1.197" fill="#de64c6"/></g><g id="g2314" transform="translate(468.97 339.51)"><path id="path2316" d="m0 0-18.264 10.539c-0.558 0.322-1.199 0.308-1.828-0.073l-0.001 0.001-4.01-2.316 1.865-2.528 0.695-0.796v-18.095c0-1.077 0.574-2.072 1.507-2.612l13.669-7.902 0.14-0.76 2.789-3.909 4.291 2.522c0.006 0.004 0.014 0.008 0.021 0.013l0.029 0.017v0.002c0.383 0.239 0.654 0.659 0.654 1.175l0.001 22.027c0 1.112-0.594 2.14-1.558 2.695" fill="#fcec32"/></g><g id="g2318" transform="translate(464.7 337)"><path id="path2320" d="m0 0-18.479 10.663c-0.902 0.521-2.028-0.131-2.028-1.172v-22.12c0-1.076 0.574-2.072 1.507-2.611l18.477-10.683c0.924-0.534 2.081 0.133 2.081 1.2v22.028c0 1.112-0.594 2.14-1.558 2.695" fill="#f5d012"/></g><g id="g2322" transform="translate(465.56 311.08)"><path id="path2324" d="m0 0-0.026-0.017-0.003 0.004c0.009 0.005 0.02 0.007 0.029 0.013" fill="#bbcee1"/></g><g id="g2326" transform="translate(466.26 312.28)"><path id="path2328" d="m0 0v22.027c0 0.371-0.087 0.724-0.211 1.062l4.286 2.469c0.114-0.327 0.195-0.665 0.195-1.021l-0.001-22.026c0-0.517-0.271-0.937-0.654-1.176v-0.002l-0.029-0.017c-0.007-0.004-0.015-0.008-0.022-0.012l-4.253-2.501c0.402 0.234 0.689 0.666 0.689 1.197" fill="#eaa10c"/></g><g id="g2330" transform="translate(499.56 283.19)"><path id="path2332" d="m0 0c-0.722-0.41-1.664-0.279-2.605 0.265-0.943 0.543-1.883 1.5-2.599 2.74-1.433 2.48-1.425 5.158 0.017 5.976 0.72 0.411 1.664 0.28 2.605-0.264 0.942-0.543 1.883-1.5 2.599-2.74 1.432-2.478 1.424-5.155-0.017-5.977m1.488 6.815c-1.121 1.942-2.592 3.439-4.064 4.289-1.473 0.849-2.946 1.053-4.073 0.41-2.002-1.142-2.231-4.572-0.687-8.041l-5.02-2.862 1.461-2.532 5.021 2.861c0.978-1.346 2.122-2.398 3.267-3.058 1.47-0.85 2.941-1.054 4.069-0.414 2.254 1.284 2.266 5.469 0.026 9.347" fill="#fff"/></g><g id="g2334" transform="translate(450.01 335.1)"><path id="path2336" d="m0 0c0.271-0.156 0.552-0.376 0.833-0.651 0.282-0.278 0.563-0.572 0.845-0.887l0.518 1.186c-0.734 0.828-1.465 1.451-2.192 1.871-0.716 0.413-1.337 0.592-1.871 0.541-0.53-0.053-0.94-0.334-1.223-0.845-0.288-0.509-0.431-1.211-0.433-2.104-0.004-1.423 0.282-2.678 0.855-3.772 0.577-1.091 1.409-1.953 2.499-2.582 0.758-0.438 1.443-0.685 2.061-0.748l0.004 1.532c-0.75 0.131-1.387 0.345-1.913 0.648-1.253 0.724-1.878 2.044-1.873 3.965 0.003 0.924 0.169 1.547 0.498 1.874s0.794 0.318 1.392-0.028" fill="#8444b2"/></g><g id="g2338" transform="translate(456.13 331.55)"><path id="path2340" d="m0 0-1.119 0.646-0.007-2.296-1.983 1.145-0.004-1.291 1.984-1.145-0.007-2.267 1.119-0.646 0.007 2.266 1.984-1.145 0.004 1.291-1.984 1.145z" fill="#8444b2"/></g><g id="g2342" transform="translate(462.11 325.79)"><path id="path2344" d="m0 0 0.007 2.298-1.123 0.648-0.007-2.297-1.981 1.143-0.002-1.29 1.979-1.144-0.006-2.266 1.123-0.649 0.007 2.267 1.98-1.144 0.003 1.291z" fill="#8444b2"/></g><g id="g2346" transform="translate(551.31 296.06)"><path id="path2348" d="m0 0c-0.204-0.208-0.302-0.612-0.303-1.207l-0.008-2.644v-0.067c-0.001-0.503-0.163-0.772-0.483-0.809-0.321-0.036-0.78 0.12-1.373 0.461l-0.005-1.839c0.593-0.342 1.051-0.718 1.371-1.13 0.32-0.411 0.479-0.891 0.477-1.437l-0.007-2.612c-0.002-0.595 0.093-1.111 0.294-1.559 0.197-0.445 0.512-0.866 0.943-1.269 0.432-0.403 1.03-0.822 1.787-1.259l0.005 1.741c-0.491 0.302-0.821 0.598-0.997 0.89-0.176 0.298-0.26 0.641-0.259 1.04l0.007 2.502v0.098c0.003 1-0.545 1.907-1.654 2.738v0.097c1.095-0.447 1.646-0.139 1.665 0.918l0.007 2.503c0.002 0.405 0.094 0.647 0.269 0.736 0.177 0.087 0.509-0.005 0.994-0.267l0.005 1.742c-0.747 0.431-1.339 0.699-1.778 0.799-0.443 0.103-0.759 0.045-0.957-0.166" fill="#fff"/></g><g id="g2350" transform="translate(561.64 284.91)"><path id="path2352" d="m0 0c-0.309 0.399-0.468 0.854-0.467 1.356v0.068l0.008 2.643c0.003 0.853-0.22 1.583-0.678 2.198-0.453 0.612-1.237 1.236-2.357 1.883l-0.006-1.742c0.486-0.299 0.822-0.591 0.998-0.883 0.176-0.285 0.26-0.634 0.259-1.04l-0.007-2.502c0.018-1.08 0.577-2.029 1.67-2.844v-0.099c-0.545 0.217-0.962 0.261-1.245 0.123-0.289-0.14-0.435-0.455-0.436-0.958l-0.001-0.073-0.007-2.503c-0.001-0.404-0.086-0.656-0.263-0.744-0.177-0.082-0.514 0.008-0.999 0.269l-0.005-1.742c1.115-0.643 1.9-0.919 2.36-0.834 0.455 0.087 0.686 0.556 0.689 1.414l0.007 2.614c0.001 0.545 0.163 0.839 0.473 0.887 0.316 0.045 0.77-0.106 1.373-0.454l0.005 1.84c-0.603 0.348-1.057 0.72-1.371 1.123" fill="#fff"/></g><g id="g2354" transform="translate(526.71 247.07)"><path id="path2356" d="m0 0 5.725-6.216 0.004 1.584-3.945 4.151 3.956-0.179 0.005 1.594-5.742 0.018z" fill="#1f5e77"/></g><g id="g2358" transform="translate(533.02 239.17)"><path id="path2360" d="m0 0 1.597-0.922 3.179 7.886-1.601 0.924z" fill="#1f5e77"/></g><g id="g2362" transform="translate(538.35 244.6)"><path id="path2364" d="m0 0-0.004-1.594 3.948-4.385-3.96 0.414-0.004-1.584 5.746-0.406 0.002 0.952z" fill="#1f5e77"/></g><g id="g2366" transform="translate(420.24 276.13)"><path id="path2368" d="m0 0v-1.07l4.497-2.594v1.07z" fill="#f5d012"/></g><g id="g2370" transform="translate(420.24 274.17)"><path id="path2372" d="m0 0v-1.07l4.497-2.594v1.07z" fill="#edf0f8"/></g><g id="g2374" transform="translate(420.24 272.22)"><path id="path2376" d="m0 0v-1.071l4.497-2.594v1.071z" fill="#edf0f8"/></g><g id="g2378" transform="translate(454.18 249.62)"><path id="path2380" d="m0 0v1.071l-27.753 16.008v-1.071z" fill="#edf0f8"/></g><g id="g2382" transform="translate(420.24 270.26)"><path id="path2384" d="m0 0v-1.07l4.497-2.594v1.07z" fill="#edf0f8"/></g><g id="g2386" transform="translate(420.24 268.31)"><path id="path2388" d="m0 0v-1.071l4.497-2.594v1.071z" fill="#edf0f8"/></g><g id="g2390" transform="translate(454.18 247.66)"><path id="path2392" d="m0 0v1.07l-27.753 16.008v-1.07z" fill="#50e85e"/></g><g id="g2394" transform="translate(420.24 262.44)"><path id="path2396" d="m0 0v-1.07l4.497-2.594v1.07z" fill="#edf0f8"/></g><g id="g2398" transform="translate(420.24 260.49)"><path id="path2400" d="m0 0v-1.07l4.497-2.594v1.07z" fill="#f5d012"/></g><g id="g2402" transform="translate(420.24 252.66)"><path id="path2404" d="m0 0v-1.07l4.497-2.594v1.07z" fill="#edf0f8"/></g><g id="g2406" transform="translate(420.24 250.71)"><path id="path2408" d="m0 0v-1.07l4.497-2.594v1.07z" fill="#edf0f8"/></g><g id="g2410" transform="translate(443.93 237.04)"><path id="path2412" d="m0 0-17.509 10.099v-1.071l17.509-10.098z" fill="#50e85e"/></g><g id="g2414" transform="translate(444.85 236.51)"><path id="path2416" d="m0 0v-1.07l9.321-5.377v1.07z" fill="#edf0f8"/></g><g id="g2418" transform="translate(435.22 244.02)"><path id="path2420" d="m0 0-8.797 5.074v-1.07l8.797-5.074z" fill="#edf0f8"/></g><g id="g2422" transform="translate(436.14 243.49)"><path id="path2424" d="m0 0v-1.07l18.033-10.402v1.071z" fill="#edf0f8"/></g><g id="g2426" transform="translate(451.8 240.32)"><path id="path2428" d="m0 0v-1.07l2.372-1.368v1.07z" fill="#edf0f8"/></g><g id="g2430" transform="translate(438.89 249.73)"><path id="path2432" d="m0 0-12.471 7.193v-1.071l12.471-7.192z" fill="#ed5561"/></g><g id="g2434" transform="translate(433.78 268.32)"><path id="path2436" d="m0 0-7.36 4.246v-1.07l7.36-4.246z" fill="#edf0f8"/></g><g id="g2438" transform="translate(445.85 261.36)"><path id="path2440" d="m0 0-11.143 6.427v-1.071l11.143-6.426z" fill="#edf0f8"/></g><g id="g2442" transform="translate(439.35 263.15)"><path id="path2444" d="m0 0-7.845 4.525v-1.07l7.845-4.525z" fill="#edf0f8"/></g><g id="g2446" transform="translate(447.59 258.4)"><path id="path2448" d="m0 0-7.309 4.215v-1.07l7.309-4.215z" fill="#ed5561"/></g><g id="g2450" transform="translate(448.51 257.87)"><path id="path2452" d="m0 0v-1.07l5.667-3.27v1.07z" fill="#edf0f8"/></g><g id="g2454" transform="translate(427.87 267.82)"><path id="path2456" d="m0 0v-1.07l5.91-3.41v1.071z" fill="#ed5561"/></g><g id="g2458" transform="translate(451.86 253.98)"><path id="path2460" d="m0 0-17.157 9.896v-1.071l17.157-9.895z" fill="#edf0f8"/></g><g id="g2462" transform="translate(442.04 253.78)"><path id="path2464" d="m0 0-11.213 6.468v-1.071l11.213-6.467z" fill="#edf0f8"/></g><g id="g2466" transform="translate(451.86 248.11)"><path id="path2468" d="m0 0-8.899 5.133v-1.071l8.899-5.133z" fill="#edf0f8"/></g><g id="g2470" transform="translate(450.88 242.81)"><path id="path2472" d="m0 0-11.064 6.382v-1.07l11.064-6.382z" fill="#edf0f8"/></g><g id="g2474" transform="translate(444.85 244.33)"><path id="path2476" d="m0 0v-1.07l6.026-3.477v1.07z" fill="#50e85e"/></g><g id="g2478" transform="translate(428.59 253.71)"><path id="path2480" d="m0 0-2.17 1.252v-1.07l2.17-1.252z" fill="#edf0f8"/></g><g id="g2482" transform="translate(432.66 251.37)"><path id="path2484" d="m0 0v-1.07l11.273-6.502v1.07z" fill="#edf0f8"/></g><g id="g2486" transform="translate(431.74 251.9)"><path id="path2488" d="m0 0-2.22 1.28v-1.07l2.22-1.28z" fill="#edf0f8"/></g><g id="g2490" transform="translate(441.85 244.11)"><path id="path2492" d="m0 0-12.33 7.112v-1.07l12.33-7.112z" fill="#edf0f8"/></g><g id="g2494" transform="translate(456.13 255.42)"><path id="path2496" d="m0 0v-0.295l1.239-0.715v0.295z" fill="#edf0f8"/></g><g id="g2498" transform="translate(456.13 254.88)"><path id="path2500" d="m0 0v-0.295l1.239-0.715v0.295z" fill="#edf0f8"/></g><g id="g2502" transform="translate(456.13 254.34)"><path id="path2504" d="m0 0v-0.295l1.239-0.715v0.296z" fill="#edf0f8"/></g><g id="g2506" transform="translate(465.48 248.11)"><path id="path2508" d="m0 0v0.296l-7.646 4.41v-0.295z" fill="#edf0f8"/></g><g id="g2510" transform="translate(456.13 253.8)"><path id="path2512" d="m0 0v-0.296l1.239-0.714v0.295z" fill="#edf0f8"/></g><g id="g2514" transform="translate(456.13 253.26)"><path id="path2516" d="m0 0v-0.295l1.239-0.715v0.295z" fill="#edf0f8"/></g><g id="g2518" transform="translate(465.48 247.57)"><path id="path2520" d="m0 0v0.295l-7.646 4.41v-0.295z" fill="#edf0f8"/></g><g id="g2522" transform="translate(456.13 251.65)"><path id="path2524" d="m0 0v-0.296l1.239-0.714v0.295z" fill="#edf0f8"/></g><g id="g2526" transform="translate(456.13 251.11)"><path id="path2528" d="m0 0v-0.295l1.239-0.715v0.295z" fill="#edf0f8"/></g><g id="g2530" transform="translate(456.13 248.95)"><path id="path2532" d="m0 0v-0.295l1.239-0.715v0.295z" fill="#edf0f8"/></g><g id="g2534" transform="translate(456.13 248.41)"><path id="path2536" d="m0 0v-0.295l1.239-0.715v0.295z" fill="#edf0f8"/></g><g id="g2538" transform="translate(462.66 244.65)"><path id="path2540" d="m0 0-4.824 2.783v-0.295l4.824-2.783z" fill="#edf0f8"/></g><g id="g2542" transform="translate(462.91 244.5)"><path id="path2544" d="m0 0v-0.295l2.568-1.481v0.295z" fill="#edf0f8"/></g><g id="g2546" transform="translate(460.25 246.57)"><path id="path2548" d="m0 0-2.423 1.397v-0.294l2.423-1.398z" fill="#edf0f8"/></g><g id="g2550" transform="translate(460.51 246.42)"><path id="path2552" d="m0 0v-0.295l4.969-2.866v0.295z" fill="#edf0f8"/></g><g id="g2554" transform="translate(464.83 245.55)"><path id="path2556" d="m0 0v-0.295l0.653-0.377v0.295z" fill="#edf0f8"/></g><g id="g2558" transform="translate(461.27 248.14)"><path id="path2560" d="m0 0-3.436 1.981v-0.294l3.436-1.982z" fill="#edf0f8"/></g><g id="g2562" transform="translate(459.86 253.26)"><path id="path2564" d="m0 0-2.027 1.17v-0.295l2.027-1.17z" fill="#edf0f8"/></g><g id="g2566" transform="translate(463.18 251.35)"><path id="path2568" d="m0 0-3.07 1.771v-0.295l3.07-1.771z" fill="#edf0f8"/></g><g id="g2570" transform="translate(461.39 251.84)"><path id="path2572" d="m0 0-2.161 1.247v-0.295l2.161-1.247z" fill="#edf0f8"/></g><g id="g2574" transform="translate(463.66 250.53)"><path id="path2576" d="m0 0-2.014 1.161v-0.295l2.014-1.162z" fill="#edf0f8"/></g><g id="g2578" transform="translate(463.92 250.38)"><path id="path2580" d="m0 0v-0.295l1.562-0.9v0.295z" fill="#edf0f8"/></g><g id="g2582" transform="translate(458.23 253.13)"><path id="path2584" d="m0 0v-0.295l1.628-0.939v0.295z" fill="#edf0f8"/></g><g id="g2586" transform="translate(464.84 249.31)"><path id="path2588" d="m0 0-4.728 2.727v-0.295l4.728-2.728z" fill="#edf0f8"/></g><g id="g2590" transform="translate(462.13 249.26)"><path id="path2592" d="m0 0-3.09 1.782v-0.295l3.09-1.782z" fill="#edf0f8"/></g><g id="g2594" transform="translate(464.84 247.7)"><path id="path2596" d="m0 0-2.453 1.415v-0.295l2.453-1.415z" fill="#edf0f8"/></g><g id="g2598" transform="translate(464.57 246.24)"><path id="path2600" d="m0 0-3.049 1.759v-0.295l3.049-1.759z" fill="#edf0f8"/></g><g id="g2602" transform="translate(462.91 246.65)"><path id="path2604" d="m0 0v-0.295l1.66-0.958v0.295z" fill="#edf0f8"/></g><g id="g2606" transform="translate(458.43 249.24)"><path id="path2608" d="m0 0-0.598 0.346v-0.295l0.598-0.345z" fill="#edf0f8"/></g><g id="g2610" transform="translate(459.55 248.59)"><path id="path2612" d="m0 0v-0.295l3.106-1.792v0.295z" fill="#edf0f8"/></g><g id="g2614" transform="translate(459.29 248.74)"><path id="path2616" d="m0 0-0.611 0.353v-0.295l0.611-0.353z" fill="#edf0f8"/></g><g id="g2618" transform="translate(462.08 246.59)"><path id="path2620" d="m0 0-3.397 1.96v-0.296l3.397-1.959z" fill="#edf0f8"/></g><g id="g2622" transform="translate(456.13 246.3)"><path id="path2624" d="m0 0v-0.295l1.239-0.715v0.295z" fill="#edf0f8"/></g><g id="g2626" transform="translate(456.13 245.76)"><path id="path2628" d="m0 0v-0.295l1.239-0.715v0.295z" fill="#edf0f8"/></g><g id="g2630" transform="translate(456.13 245.22)"><path id="path2632" d="m0 0v-0.295l1.239-0.714v0.295z" fill="#edf0f8"/></g><g id="g2634" transform="translate(465.48 238.99)"><path id="path2636" d="m0 0v0.295l-7.646 4.41v-0.295z" fill="#edf0f8"/></g><g id="g2638" transform="translate(456.13 244.68)"><path id="path2640" d="m0 0v-0.295l1.239-0.715v0.295z" fill="#edf0f8"/></g><g id="g2642" transform="translate(456.13 244.14)"><path id="path2644" d="m0 0v-0.295l1.239-0.715v0.295z" fill="#edf0f8"/></g><g id="g2646" transform="translate(465.48 238.46)"><path id="path2648" d="m0 0v0.295l-7.646 4.411v-0.296z" fill="#edf0f8"/></g><g id="g2650" transform="translate(456.13 242.53)"><path id="path2652" d="m0 0v-0.295l1.239-0.715v0.295z" fill="#edf0f8"/></g><g id="g2654" transform="translate(456.13 241.99)"><path id="path2656" d="m0 0v-0.295l1.239-0.715v0.295z" fill="#edf0f8"/></g><g id="g2658" transform="translate(456.13 239.83)"><path id="path2660" d="m0 0v-0.295l1.239-0.715v0.295z" fill="#edf0f8"/></g><g id="g2662" transform="translate(456.13 239.29)"><path id="path2664" d="m0 0v-0.295l1.239-0.715v0.295z" fill="#edf0f8"/></g><g id="g2666" transform="translate(462.66 235.53)"><path id="path2668" d="m0 0-4.824 2.783v-0.295l4.824-2.783z" fill="#edf0f8"/></g><g id="g2670" transform="translate(462.91 235.38)"><path id="path2672" d="m0 0v-0.295l2.568-1.481v0.295z" fill="#edf0f8"/></g><g id="g2674" transform="translate(460.25 237.45)"><path id="path2676" d="m0 0-2.423 1.398v-0.295l2.423-1.398z" fill="#edf0f8"/></g><g id="g2678" transform="translate(460.51 237.31)"><path id="path2680" d="m0 0v-0.295l4.969-2.866v0.295z" fill="#edf0f8"/></g><g id="g2682" transform="translate(464.83 236.43)"><path id="path2684" d="m0 0v-0.295l0.653-0.377v0.295z" fill="#edf0f8"/></g><g id="g2686" transform="translate(461.27 239.02)"><path id="path2688" d="m0 0-3.436 1.981v-0.294l3.436-1.982z" fill="#edf0f8"/></g><g id="g2690" transform="translate(459.86 244.15)"><path id="path2692" d="m0 0-2.027 1.169v-0.295l2.027-1.169z" fill="#edf0f8"/></g><g id="g2694" transform="translate(463.18 242.23)"><path id="path2696" d="m0 0-3.07 1.771v-0.295l3.07-1.771z" fill="#edf0f8"/></g><g id="g2698" transform="translate(461.39 242.72)"><path id="path2700" d="m0 0-2.161 1.247v-0.295l2.161-1.247z" fill="#edf0f8"/></g><g id="g2702" transform="translate(463.66 241.41)"><path id="path2704" d="m0 0-2.014 1.161v-0.295l2.014-1.161z" fill="#edf0f8"/></g><g id="g2706" transform="translate(463.92 241.27)"><path id="path2708" d="m0 0v-0.295l1.562-0.9v0.295z" fill="#edf0f8"/></g><g id="g2710" transform="translate(458.23 244.01)"><path id="path2712" d="m0 0v-0.295l1.628-0.939v0.295z" fill="#edf0f8"/></g><g id="g2714" transform="translate(464.84 240.2)"><path id="path2716" d="m0 0-4.728 2.727v-0.295l4.728-2.727z" fill="#edf0f8"/></g><g id="g2718" transform="translate(462.13 240.14)"><path id="path2720" d="m0 0-3.09 1.782v-0.295l3.09-1.782z" fill="#edf0f8"/></g><g id="g2722" transform="translate(464.84 238.58)"><path id="path2724" d="m0 0-2.453 1.415v-0.295l2.453-1.415z" fill="#edf0f8"/></g><g id="g2726" transform="translate(464.57 237.12)"><path id="path2728" d="m0 0-3.049 1.759v-0.295l3.049-1.759z" fill="#edf0f8"/></g><g id="g2730" transform="translate(462.91 237.54)"><path id="path2732" d="m0 0v-0.295l1.66-0.958v0.295z" fill="#edf0f8"/></g><g id="g2734" transform="translate(458.43 240.12)"><path id="path2736" d="m0 0-0.598 0.345v-0.295l0.598-0.345z" fill="#edf0f8"/></g><g id="g2738" transform="translate(459.55 239.48)"><path id="path2740" d="m0 0v-0.295l3.106-1.792v0.295z" fill="#edf0f8"/></g><g id="g2742" transform="translate(459.29 239.62)"><path id="path2744" d="m0 0-0.611 0.353v-0.295l0.611-0.353z" fill="#edf0f8"/></g><g id="g2746" transform="translate(462.08 237.48)"><path id="path2748" d="m0 0-3.397 1.96v-0.295l3.397-1.96z" fill="#edf0f8"/></g><g id="g2750" transform="translate(456.13 237.18)"><path id="path2752" d="m0 0v-0.295l1.239-0.715v0.295z" fill="#edf0f8"/></g><g id="g2754" transform="translate(456.13 236.64)"><path id="path2756" d="m0 0v-0.295l1.239-0.715v0.295z" fill="#edf0f8"/></g><g id="g2758" transform="translate(456.13 236.1)"><path id="path2760" d="m0 0v-0.295l1.239-0.714v0.295z" fill="#edf0f8"/></g><g id="g2762" transform="translate(465.48 229.88)"><path id="path2764" d="m0 0v0.295l-7.646 4.41v-0.295z" fill="#edf0f8"/></g><g id="g2766" transform="translate(456.13 235.57)"><path id="path2768" d="m0 0v-0.295l1.239-0.715v0.295z" fill="#edf0f8"/></g><g id="g2770" transform="translate(456.13 235.03)"><path id="path2772" d="m0 0v-0.295l1.239-0.715v0.295z" fill="#edf0f8"/></g><g id="g2774" transform="translate(465.48 229.34)"><path id="path2776" d="m0 0v0.295l-7.646 4.411v-0.295z" fill="#edf0f8"/></g><g id="g2778" transform="translate(456.13 233.41)"><path id="path2780" d="m0 0v-0.295l1.239-0.715v0.295z" fill="#edf0f8"/></g><g id="g2782" transform="translate(456.13 232.87)"><path id="path2784" d="m0 0v-0.295l1.239-0.715v0.295z" fill="#edf0f8"/></g><g id="g2786" transform="translate(456.13 230.72)"><path id="path2788" d="m0 0v-0.295l1.239-0.715v0.295z" fill="#edf0f8"/></g><g id="g2790" transform="translate(456.13 230.18)"><path id="path2792" d="m0 0v-0.295l1.239-0.715v0.295z" fill="#edf0f8"/></g><g id="g2794" transform="translate(462.66 226.41)"><path id="path2796" d="m0 0-4.824 2.783v-0.295l4.824-2.783z" fill="#edf0f8"/></g><g id="g2798" transform="translate(462.91 226.27)"><path id="path2800" d="m0 0v-0.295l2.568-1.481v0.295z" fill="#edf0f8"/></g><g id="g2802" transform="translate(460.25 228.34)"><path id="path2804" d="m0 0-2.423 1.398v-0.294l2.423-1.399z" fill="#edf0f8"/></g><g id="g2806" transform="translate(460.51 228.19)"><path id="path2808" d="m0 0v-0.295l4.969-2.866v0.295z" fill="#edf0f8"/></g><g id="g2810" transform="translate(464.83 227.32)"><path id="path2812" d="m0 0v-0.295l0.653-0.377v0.295z" fill="#edf0f8"/></g><g id="g2814" transform="translate(461.27 229.91)"><path id="path2816" d="m0 0-3.436 1.982v-0.295l3.436-1.982z" fill="#edf0f8"/></g><g id="g2818" transform="translate(459.86 235.03)"><path id="path2820" d="m0 0-2.027 1.17v-0.295l2.027-1.17z" fill="#edf0f8"/></g><g id="g2822" transform="translate(463.18 233.11)"><path id="path2824" d="m0 0-3.07 1.771v-0.295l3.07-1.771z" fill="#edf0f8"/></g><g id="g2826" transform="translate(461.39 233.61)"><path id="path2828" d="m0 0-2.161 1.247v-0.295l2.161-1.247z" fill="#edf0f8"/></g><g id="g2830" transform="translate(463.66 232.3)"><path id="path2832" d="m0 0-2.014 1.161v-0.295l2.014-1.161z" fill="#edf0f8"/></g><g id="g2834" transform="translate(463.92 232.15)"><path id="path2836" d="m0 0v-0.296l1.562-0.9v0.295z" fill="#edf0f8"/></g><g id="g2838" transform="translate(458.23 234.89)"><path id="path2840" d="m0 0v-0.295l1.628-0.939v0.295z" fill="#edf0f8"/></g><g id="g2842" transform="translate(464.84 231.08)"><path id="path2844" d="m0 0-4.728 2.727v-0.295l4.728-2.727z" fill="#edf0f8"/></g><g id="g2846" transform="translate(462.13 231.02)"><path id="path2848" d="m0 0-3.09 1.782v-0.295l3.09-1.782z" fill="#edf0f8"/></g><g id="g2850" transform="translate(464.84 229.46)"><path id="path2852" d="m0 0-2.453 1.414v-0.295l2.453-1.414z" fill="#edf0f8"/></g><g id="g2854" transform="translate(464.57 228)"><path id="path2856" d="m0 0-3.049 1.759v-0.295l3.049-1.759z" fill="#edf0f8"/></g><g id="g2858" transform="translate(462.91 228.42)"><path id="path2860" d="m0 0v-0.295l1.66-0.958v0.295z" fill="#edf0f8"/></g><g id="g2862" transform="translate(458.43 231.01)"><path id="path2864" d="m0 0-0.598 0.345v-0.295l0.598-0.345z" fill="#edf0f8"/></g><g id="g2866" transform="translate(459.55 230.36)"><path id="path2868" d="m0 0v-0.295l3.106-1.792v0.295z" fill="#edf0f8"/></g><g id="g2870" transform="translate(459.29 230.51)"><path id="path2872" d="m0 0-0.611 0.354v-0.296l0.611-0.353z" fill="#edf0f8"/></g><g id="g2874" transform="translate(462.08 228.36)"><path id="path2876" d="m0 0-3.397 1.96v-0.295l3.397-1.96z" fill="#edf0f8"/></g><g id="g2878" transform="translate(456.13 228.07)"><path id="path2880" d="m0 0v-0.295l1.239-0.715v0.295z" fill="#edf0f8"/></g><g id="g2882" transform="translate(456.13 227.53)"><path id="path2884" d="m0 0v-0.295l1.239-0.715v0.296z" fill="#edf0f8"/></g><g id="g2886" transform="translate(456.13 226.99)"><path id="path2888" d="m0 0v-0.295l1.239-0.715v0.295z" fill="#edf0f8"/></g><g id="g2890" transform="translate(465.48 220.76)"><path id="path2892" d="m0 0v0.295l-7.646 4.41v-0.295z" fill="#edf0f8"/></g><g id="g2894" transform="translate(456.13 226.45)"><path id="path2896" d="m0 0v-0.295l1.239-0.715v0.295z" fill="#edf0f8"/></g><g id="g2898" transform="translate(456.13 225.91)"><path id="path2900" d="m0 0v-0.295l1.239-0.715v0.295z" fill="#edf0f8"/></g><g id="g2902" transform="translate(465.48 220.22)"><path id="path2904" d="m0 0v0.295l-7.646 4.411v-0.295z" fill="#edf0f8"/></g><g id="g2906" transform="translate(456.13 224.29)"><path id="path2908" d="m0 0v-0.295l1.239-0.715v0.295z" fill="#edf0f8"/></g><g id="g2910" transform="translate(456.13 223.75)"><path id="path2912" d="m0 0v-0.295l1.239-0.715v0.295z" fill="#edf0f8"/></g><g id="g2914" transform="translate(464.83 218.2)"><path id="path2916" d="m0 0v-0.295l0.653-0.377v0.295z" fill="#edf0f8"/></g><g id="g2918" transform="translate(461.27 220.79)"><path id="path2920" d="m0 0-3.436 1.982v-0.295l3.436-1.982z" fill="#edf0f8"/></g><g id="g2922" transform="translate(459.86 225.91)"><path id="path2924" d="m0 0-2.027 1.17v-0.295l2.027-1.17z" fill="#edf0f8"/></g><g id="g2926" transform="translate(463.18 223.99)"><path id="path2928" d="m0 0-3.07 1.771v-0.294l3.07-1.772z" fill="#edf0f8"/></g><g id="g2930" transform="translate(461.39 224.49)"><path id="path2932" d="m0 0-2.161 1.247v-0.295l2.161-1.247z" fill="#edf0f8"/></g><g id="g2934" transform="translate(463.66 223.18)"><path id="path2936" d="m0 0-2.014 1.161v-0.295l2.014-1.161z" fill="#edf0f8"/></g><g id="g2938" transform="translate(463.92 223.03)"><path id="path2940" d="m0 0v-0.295l1.562-0.901v0.295z" fill="#edf0f8"/></g><g id="g2942" transform="translate(458.23 225.77)"><path id="path2944" d="m0 0v-0.295l1.628-0.939v0.295z" fill="#edf0f8"/></g><g id="g2946" transform="translate(464.84 221.96)"><path id="path2948" d="m0 0-4.728 2.727v-0.295l4.728-2.727z" fill="#edf0f8"/></g><g id="g2950" transform="translate(462.13 221.91)"><path id="path2952" d="m0 0-3.09 1.782v-0.295l3.09-1.782z" fill="#edf0f8"/></g><g id="g2954" transform="translate(464.84 220.35)"><path id="path2956" d="m0 0-2.453 1.414v-0.295l2.453-1.414z" fill="#edf0f8"/></g><g id="g2958" transform="translate(464.57 218.88)"><path id="path2960" d="m0 0-3.049 1.759v-0.295l3.049-1.759z" fill="#edf0f8"/></g><g id="g2962" transform="translate(462.91 219.3)"><path id="path2964" d="m0 0v-0.295l1.66-0.957v0.295z" fill="#edf0f8"/></g><g id="g2966" transform="translate(458.43 221.89)"><path id="path2968" d="m0 0-0.598 0.345v-0.295l0.598-0.345z" fill="#edf0f8"/></g><g id="g2970" transform="translate(459.55 221.24)"><path id="path2972" d="m0 0v-0.295l3.106-1.792v0.296z" fill="#edf0f8"/></g><g id="g2974" transform="translate(459.29 221.39)"><path id="path2976" d="m0 0-0.611 0.354v-0.295l0.611-0.354z" fill="#edf0f8"/></g><g id="g2978" transform="translate(462.08 219.24)"><path id="path2980" d="m0 0-3.397 1.96v-0.295l3.397-1.96z" fill="#edf0f8"/></g><g id="g2982" transform="translate(417.36 277.79)"><path id="path2984" d="m0 0-1.482 0.854c-0.073 0.042-0.163-0.01-0.163-0.093v-1.774c0-0.087 0.046-0.166 0.121-0.21l1.481-0.856c0.074-0.043 0.167 0.011 0.167 0.097v1.765c0 0.09-0.047 0.172-0.124 0.217" fill="#50e85e"/></g><g id="g2986" transform="translate(417.36 275.14)"><path id="path2988" d="m0 0-1.482 0.854c-0.073 0.042-0.163-0.009-0.163-0.093v-1.774c0-0.086 0.046-0.166 0.121-0.21l1.481-0.856c0.074-0.042 0.167 0.011 0.167 0.097v1.766c0 0.089-0.047 0.171-0.124 0.216" fill="#50e85e"/></g><g id="g2990" transform="translate(417.36 272.49)"><path id="path2992" d="m0 0-1.482 0.855c-0.073 0.041-0.163-0.01-0.163-0.094v-1.774c0-0.086 0.046-0.166 0.121-0.209l1.481-0.856c0.074-0.043 0.167 0.011 0.167 0.096v1.766c0 0.089-0.047 0.171-0.124 0.216" fill="#50e85e"/></g><g id="g2994" transform="translate(417.36 269.83)"><path id="path2996" d="m0 0-1.482 0.855c-0.073 0.041-0.163-0.01-0.163-0.093v-1.775c0-0.086 0.046-0.166 0.121-0.209l1.481-0.856c0.074-0.043 0.167 0.011 0.167 0.096v1.766c0 0.089-0.047 0.172-0.124 0.216" fill="#50e85e"/></g><g id="g2998" transform="translate(417.36 267.18)"><path id="path3000" d="m0 0-1.482 0.855c-0.073 0.042-0.163-0.01-0.163-0.093v-1.774c0-0.087 0.046-0.167 0.121-0.21l1.481-0.856c0.074-0.043 0.167 0.011 0.167 0.097v1.765c0 0.089-0.047 0.172-0.124 0.216" fill="#50e85e"/></g><g id="g3002" transform="translate(417.36 264.53)"><path id="path3004" d="m0 0-1.482 0.854c-0.073 0.042-0.163-0.01-0.163-0.093v-1.774c0-0.087 0.046-0.167 0.121-0.21l1.481-0.856c0.074-0.043 0.167 0.011 0.167 0.097v1.765c0 0.09-0.047 0.172-0.124 0.217" fill="#50e85e"/></g><g id="g3006" transform="translate(417.36 261.87)"><path id="path3008" d="m0 0-1.482 0.854c-0.073 0.042-0.163-0.01-0.163-0.093v-1.774c0-0.087 0.046-0.166 0.121-0.21l1.481-0.856c0.074-0.043 0.167 0.011 0.167 0.097v1.765c0 0.09-0.047 0.172-0.124 0.217" fill="#50e85e"/></g><g id="g3010" transform="translate(417.36 259.22)"><path id="path3012" d="m0 0-1.482 0.854c-0.073 0.042-0.163-0.009-0.163-0.093v-1.774c0-0.086 0.046-0.166 0.121-0.209l1.481-0.857c0.074-0.042 0.167 0.011 0.167 0.097v1.766c0 0.089-0.047 0.171-0.124 0.216" fill="#50e85e"/></g><g id="g3014" transform="translate(417.36 256.57)"><path id="path3016" d="m0 0-1.482 0.855c-0.073 0.041-0.163-0.01-0.163-0.094v-1.774c0-0.086 0.046-0.166 0.121-0.209l1.481-0.856c0.074-0.043 0.167 0.011 0.167 0.096v1.766c0 0.089-0.047 0.171-0.124 0.216" fill="#50e85e"/></g><g id="g3018" transform="translate(417.36 253.91)"><path id="path3020" d="m0 0-1.482 0.855c-0.073 0.041-0.163-0.01-0.163-0.093v-1.775c0-0.086 0.046-0.166 0.121-0.209l1.481-0.856c0.074-0.043 0.167 0.011 0.167 0.096v1.766c0 0.089-0.047 0.172-0.124 0.216" fill="#50e85e"/></g><g id="g3022" transform="translate(417.36 251.26)"><path id="path3024" d="m0 0-1.482 0.855c-0.073 0.042-0.163-0.01-0.163-0.093v-1.774c0-0.087 0.046-0.167 0.121-0.21l1.481-0.856c0.074-0.043 0.167 0.011 0.167 0.097v1.765c0 0.089-0.047 0.172-0.124 0.216" fill="#50e85e"/></g><g id="g3026" transform="translate(417.36 248.61)"><path id="path3028" d="m0 0-1.482 0.854c-0.073 0.042-0.163-0.01-0.163-0.093v-1.774c0-0.087 0.046-0.167 0.121-0.21l1.481-0.856c0.074-0.043 0.167 0.011 0.167 0.097v1.765c0 0.09-0.047 0.172-0.124 0.217" fill="#50e85e"/></g><g id="g3030"><g id="g3168"><g id="g3166" opacity=".39999" clip-path="url(#clipPath3036)"><g id="g3040" transform="translate(486.96 268.39)"><path id="path3038" d="m0 0v-1.071l4.496-2.594v1.071z" fill="#fff"/></g><g id="g3044" transform="translate(486.96 266.43)"><path id="path3042" d="m0 0v-1.07l4.496-2.594v1.07z" fill="#fff"/></g><g id="g3048" transform="translate(486.96 264.48)"><path id="path3046" d="m0 0v-1.07l4.496-2.594v1.07z" fill="#fff"/></g><g id="g3052" transform="translate(520.89 241.88)"><path id="path3050" d="m0 0v1.07l-27.753 16.008v-1.07z" fill="#fff"/></g><g id="g3056" transform="translate(486.96 262.52)"><path id="path3054" d="m0 0v-1.07l4.496-2.594v1.07z" fill="#fff"/></g><g id="g3060" transform="translate(486.96 260.57)"><path id="path3058" d="m0 0v-1.07l4.496-2.594v1.07z" fill="#fff"/></g><g id="g3064" transform="translate(520.89 239.92)"><path id="path3062" d="m0 0v1.07l-27.753 16.008v-1.07z" fill="#fff"/></g><g id="g3068" transform="translate(486.96 254.7)"><path id="path3066" d="m0 0v-1.071l4.496-2.594v1.071z" fill="#fff"/></g><g id="g3072" transform="translate(486.96 252.75)"><path id="path3070" d="m0 0v-1.07l4.496-2.594v1.07z" fill="#fff"/></g><g id="g3076" transform="translate(486.96 244.92)"><path id="path3074" d="m0 0v-1.071l4.496-2.594v1.071z" fill="#fff"/></g><g id="g3080" transform="translate(486.96 242.97)"><path id="path3078" d="m0 0v-1.07l4.496-2.594v1.07z" fill="#fff"/></g><g id="g3084" transform="translate(510.65 229.3)"><path id="path3082" d="m0 0-17.509 10.1v-1.072l17.509-10.098z" fill="#fff"/></g><g id="g3088" transform="translate(511.57 228.77)"><path id="path3086" d="m0 0v-1.07l9.321-5.376v1.07z" fill="#fff"/></g><g id="g3092" transform="translate(501.94 236.28)"><path id="path3090" d="m0 0-8.797 5.073v-1.07l8.797-5.074z" fill="#fff"/></g><g id="g3096" transform="translate(502.86 235.75)"><path id="path3094" d="m0 0v-1.07l18.033-10.402v1.071z" fill="#fff"/></g><g id="g3100" transform="translate(518.52 232.58)"><path id="path3098" d="m0 0v-1.071l2.372-1.368v1.07z" fill="#fff"/></g><g id="g3104" transform="translate(505.61 241.99)"><path id="path3102" d="m0 0-12.471 7.193v-1.07l12.471-7.193z" fill="#fff"/></g><g id="g3108" transform="translate(500.5 260.58)"><path id="path3106" d="m0 0-7.36 4.245v-1.07l7.36-4.246z" fill="#fff"/></g><g id="g3112" transform="translate(512.56 253.62)"><path id="path3110" d="m0 0-11.143 6.428v-1.072l11.143-6.426z" fill="#fff"/></g><g id="g3116" transform="translate(506.07 255.41)"><path id="path3114" d="m0 0-7.845 4.524v-1.07l7.845-4.525z" fill="#fff"/></g><g id="g3120" transform="translate(514.3 250.66)"><path id="path3118" d="m0 0-7.308 4.216v-1.071l7.308-4.215z" fill="#fff"/></g><g id="g3124" transform="translate(515.22 250.13)"><path id="path3122" d="m0 0v-1.07l5.668-3.27v1.071z" fill="#fff"/></g><g id="g3128" transform="translate(494.59 260.08)"><path id="path3126" d="m0 0v-1.07l5.91-3.409v1.07z" fill="#fff"/></g><g id="g3132" transform="translate(518.58 246.24)"><path id="path3130" d="m0 0-17.157 9.896v-1.07l17.157-9.896z" fill="#fff"/></g><g id="g3136" transform="translate(508.76 246.04)"><path id="path3134" d="m0 0-11.212 6.467v-1.071l11.212-6.467z" fill="#fff"/></g><g id="g3140" transform="translate(518.58 240.37)"><path id="path3138" d="m0 0-8.9 5.134v-1.072l8.9-5.132z" fill="#fff"/></g><g id="g3144" transform="translate(517.6 235.07)"><path id="path3142" d="m0 0-11.064 6.382v-1.07l11.064-6.382z" fill="#fff"/></g><g id="g3148" transform="translate(511.57 236.59)"><path id="path3146" d="m0 0v-1.07l6.026-3.477v1.071z" fill="#fff"/></g><g id="g3152" transform="translate(495.31 245.97)"><path id="path3150" d="m0 0-2.17 1.251v-1.07l2.17-1.252z" fill="#fff"/></g><g id="g3156" transform="translate(499.37 243.63)"><path id="path3154" d="m0 0v-1.071l11.273-6.502v1.07z" fill="#fff"/></g><g id="g3160" transform="translate(498.45 244.16)"><path id="path3158" d="m0 0-2.22 1.28v-1.071l2.22-1.279z" fill="#fff"/></g><g id="g3164" transform="translate(508.56 236.37)"><path id="path3162" d="m0 0-12.33 7.112v-1.07l12.33-7.112z" fill="#fff"/></g></g></g></g><g id="g3170"><g id="g3308"><g id="g3306" opacity=".39999" clip-path="url(#clipPath3176)"><g id="g3180" transform="translate(528.29 335.41)"><path id="path3178" d="m0 0v-1.07l4.497-2.594v1.07z" fill="#fff"/></g><g id="g3184" transform="translate(528.29 333.45)"><path id="path3182" d="m0 0v-1.07l4.497-2.594v1.07z" fill="#fff"/></g><g id="g3188" transform="translate(528.29 331.5)"><path id="path3186" d="m0 0v-1.071l4.497-2.594v1.071z" fill="#fff"/></g><g id="g3192" transform="translate(562.23 308.89)"><path id="path3190" d="m0 0v1.071l-27.753 16.008v-1.071z" fill="#fff"/></g><g id="g3196" transform="translate(528.29 329.54)"><path id="path3194" d="m0 0v-1.07l4.497-2.594v1.07z" fill="#fff"/></g><g id="g3200" transform="translate(528.29 327.58)"><path id="path3198" d="m0 0v-1.071l4.497-2.594v1.071z" fill="#fff"/></g><g id="g3204" transform="translate(562.23 306.94)"><path id="path3202" d="m0 0v1.07l-27.753 16.008v-1.07z" fill="#fff"/></g><g id="g3208" transform="translate(528.29 321.72)"><path id="path3206" d="m0 0v-1.07l4.497-2.594v1.07z" fill="#fff"/></g><g id="g3212" transform="translate(528.29 319.76)"><path id="path3210" d="m0 0v-1.07l4.497-2.594v1.07z" fill="#fff"/></g><g id="g3216" transform="translate(528.29 311.94)"><path id="path3214" d="m0 0v-1.07l4.497-2.594v1.07z" fill="#fff"/></g><g id="g3220" transform="translate(528.29 309.98)"><path id="path3218" d="m0 0v-1.07l4.497-2.594v1.07z" fill="#fff"/></g><g id="g3224" transform="translate(551.98 296.32)"><path id="path3222" d="m0 0-17.509 10.099v-1.071l17.509-10.098z" fill="#fff"/></g><g id="g3228" transform="translate(552.91 295.79)"><path id="path3226" d="m0 0v-1.07l9.321-5.377v1.07z" fill="#fff"/></g><g id="g3232" transform="translate(543.27 303.3)"><path id="path3230" d="m0 0-8.797 5.074v-1.07l8.797-5.074z" fill="#fff"/></g><g id="g3236" transform="translate(544.19 302.77)"><path id="path3234" d="m0 0v-1.07l18.033-10.402v1.071z" fill="#fff"/></g><g id="g3240" transform="translate(559.86 299.6)"><path id="path3238" d="m0 0v-1.07l2.372-1.368v1.07z" fill="#fff"/></g><g id="g3244" transform="translate(546.95 309)"><path id="path3242" d="m0 0-12.471 7.193v-1.071l12.471-7.192z" fill="#fff"/></g><g id="g3248" transform="translate(541.84 327.59)"><path id="path3246" d="m0 0-7.36 4.246v-1.07l7.36-4.246z" fill="#fff"/></g><g id="g3252" transform="translate(553.9 320.63)"><path id="path3250" d="m0 0-11.143 6.427v-1.071l11.143-6.426z" fill="#fff"/></g><g id="g3256" transform="translate(547.41 322.42)"><path id="path3254" d="m0 0-7.845 4.525v-1.07l7.845-4.525z" fill="#fff"/></g><g id="g3260" transform="translate(555.64 317.68)"><path id="path3258" d="m0 0-7.309 4.215v-1.07l7.309-4.215z" fill="#fff"/></g><g id="g3264" transform="translate(556.56 317.15)"><path id="path3262" d="m0 0v-1.07l5.667-3.27v1.07z" fill="#fff"/></g><g id="g3268" transform="translate(535.92 327.09)"><path id="path3266" d="m0 0v-1.07l5.91-3.41v1.071z" fill="#fff"/></g><g id="g3272" transform="translate(559.92 313.25)"><path id="path3270" d="m0 0-17.157 9.896v-1.071l17.157-9.895z" fill="#fff"/></g><g id="g3276" transform="translate(550.09 313.05)"><path id="path3274" d="m0 0-11.213 6.468v-1.071l11.213-6.467z" fill="#fff"/></g><g id="g3280" transform="translate(559.92 307.39)"><path id="path3278" d="m0 0-8.899 5.133v-1.071l8.899-5.133z" fill="#fff"/></g><g id="g3284" transform="translate(558.93 302.09)"><path id="path3282" d="m0 0-11.064 6.382v-1.07l11.064-6.382z" fill="#fff"/></g><g id="g3288" transform="translate(552.91 303.61)"><path id="path3286" d="m0 0v-1.07l6.026-3.477v1.07z" fill="#fff"/></g><g id="g3292" transform="translate(536.65 312.99)"><path id="path3290" d="m0 0-2.171 1.252v-1.07l2.171-1.252z" fill="#fff"/></g><g id="g3296" transform="translate(540.71 310.64)"><path id="path3294" d="m0 0v-1.07l11.273-6.502v1.07z" fill="#fff"/></g><g id="g3300" transform="translate(539.79 311.18)"><path id="path3298" d="m0 0-2.219 1.279v-1.07l2.219-1.28z" fill="#fff"/></g><g id="g3304" transform="translate(549.9 303.39)"><path id="path3302" d="m0 0-12.329 7.112v-1.07l12.329-7.112z" fill="#fff"/></g></g></g></g><g id="g3310" transform="translate(447 197.99)"><path id="path3312" d="m0 0s-2.535 1.133-5.516-0.842c-2.981-1.974-4.989-4.736-3.777-5.753 1.212-1.016 3.568-2.106 5.097-1.558s9.089 4.995 4.196 8.153" fill="#0f4463"/></g><g id="g3314" transform="translate(509.91 209.67)"><path id="path3316" d="m0 0-23.56-13.347-15.014 8.686 23.556 13.344z" fill="#ed5561"/></g><g id="g3318" transform="translate(490.96 196.64)"><path id="path3320" d="m0 0v-0.525l23.56 13.487v0.385z" fill="#f0cec9"/></g><g id="g3322" transform="translate(514.52 209.99)"><path id="path3324" d="m0 0-23.56-13.347-15.014 8.686 23.557 13.343z" fill="#fffbf0"/></g><g id="g3326" transform="translate(490.96 196.64)"><path id="path3328" d="m0 0v-0.525l-15.015 8.686v0.525z" fill="#f5ddd8"/></g><g id="g3330" transform="translate(499.34 217.24)"><path id="path3332" d="m0 0 9.071-5.231-0.397-0.225-9.071 5.231z" fill="#dfbab8"/></g><g id="g3334" transform="translate(498.4 216.71)"><path id="path3336" d="m0 0 9.071-5.231-0.397-0.225-9.071 5.231z" fill="#dfbab8"/></g><g id="g3338" transform="translate(496.21 215.47)"><path id="path3340" d="m0 0 12.491-7.21-0.397-0.225-12.491 7.209z" fill="#dfbab8"/></g><g id="g3342" transform="translate(495.34 214.98)"><path id="path3344" d="m0 0 12.491-7.21-0.397-0.226-12.491 7.21z" fill="#dfbab8"/></g><g id="g3346" transform="translate(494.48 214.49)"><path id="path3348" d="m0 0 12.491-7.21-0.397-0.225-12.491 7.21z" fill="#dfbab8"/></g><g id="g3350" transform="translate(493.61 214)"><path id="path3352" d="m0 0 12.491-7.21-0.397-0.226-12.491 7.21z" fill="#dfbab8"/></g><g id="g3354" transform="translate(492.75 213.51)"><path id="path3356" d="m0 0 12.491-7.21-0.398-0.225-12.491 7.209z" fill="#dfbab8"/></g><g id="g3358" transform="translate(491.88 213.02)"><path id="path3360" d="m0 0 12.491-7.211-0.397-0.225-12.491 7.21z" fill="#dfbab8"/></g><g id="g3362" transform="translate(491.02 212.52)"><path id="path3364" d="m0 0 12.491-7.21-0.397-0.225-12.491 7.209z" fill="#dfbab8"/></g><g id="g3366" transform="translate(490.15 212.03)"><path id="path3368" d="m0 0 12.491-7.209-0.397-0.226-12.491 7.21z" fill="#dfbab8"/></g><g id="g3370" transform="translate(489.29 211.54)"><path id="path3372" d="m0 0 12.491-7.21-0.397-0.225-12.491 7.209z" fill="#dfbab8"/></g><g id="g3374" transform="translate(488.42 211.05)"><path id="path3376" d="m0 0 12.491-7.209-0.397-0.226-12.491 7.21z" fill="#dfbab8"/></g><g id="g3378" transform="translate(487.56 210.56)"><path id="path3380" d="m0 0 12.491-7.21-0.397-0.225-12.491 7.209z" fill="#dfbab8"/></g><g id="g3382" transform="translate(486.7 210.07)"><path id="path3384" d="m0 0 12.491-7.21-0.397-0.225-12.491 7.21z" fill="#dfbab8"/></g><g id="g3386" transform="translate(485.83 209.58)"><path id="path3388" d="m0 0 12.491-7.21-0.397-0.225-12.491 7.209z" fill="#dfbab8"/></g><g id="g3390" transform="translate(484.97 209.09)"><path id="path3392" d="m0 0 12.491-7.21-0.397-0.225-12.491 7.21z" fill="#dfbab8"/></g><g id="g3394" transform="translate(484.1 208.6)"><path id="path3396" d="m0 0 12.491-7.21-0.397-0.226-12.491 7.21z" fill="#dfbab8"/></g><g id="g3398" transform="translate(473.92 201.9)"><path id="path3400" d="m0 0h-2.203v-2.376h2.203c0.819 0 1.486-0.667 1.486-1.485v-3.863c0-0.819-0.667-1.486-1.486-1.486h-3.23v-2.376h3.23c2.13 0 3.862 1.732 3.862 3.862v3.863c0 2.129-1.732 3.861-3.862 3.861" fill="#a7bcce"/></g><g id="g3402" transform="translate(473.09 203.21)"><path id="path3404" d="m0 0v-13.383c0-2.074-3.092-3.756-6.907-3.756s-6.907 1.682-6.907 3.756v13.383z" fill="#bbcee1"/></g><g id="g3406" transform="translate(459.28 203.21)"><path id="path3408" d="m0 0c0-2.074 3.093-3.756 6.907-3.756 3.816 0 6.907 1.682 6.907 3.756 0 2.073-3.091 3.755-6.907 3.755-3.814 0-6.907-1.682-6.907-3.755" fill="#fff"/></g><g id="g3410" transform="translate(460.66 203.26)"><path id="path3412" d="m0 0c0-1.622 2.477-2.938 5.531-2.938 3.056 0 5.532 1.316 5.532 2.938s-2.476 2.937-5.532 2.937c-3.054 0-5.531-1.315-5.531-2.937" fill="#a7bcce"/></g><g id="g3414" transform="translate(466.19 204.27)"><path id="path3416" d="m0 0c-2.42 0-4.472-0.826-5.223-1.976 0.751-1.15 2.803-1.976 5.223-1.976 2.421 0 4.473 0.826 5.224 1.976-0.751 1.15-2.803 1.976-5.224 1.976" fill="#9d4d36"/></g><g id="g3418" transform="translate(468.8 199.73)"><path id="path3420" d="m0 0v-13.383c1.355 0.302 2.491 0.831 3.255 1.501v13.383c-0.764-0.67-1.9-1.199-3.255-1.501" fill="#a7bcce"/></g></g></g></g></svg>
